<svg width="34" height="34" viewBox="0 0 34 34" fill="none" xmlns="http://www.w3.org/2000/svg">
<path d="M28.3333 29.7499V26.9166C28.3333 25.4137 27.7363 23.9724 26.6736 22.9097C25.6109 21.847 24.1696 21.2499 22.6667 21.2499H21.25C20.8743 21.2499 20.514 21.1007 20.2483 20.835C19.9826 20.5693 19.8334 20.209 19.8334 19.8333V12.75C19.8334 11.9985 19.5348 11.2778 19.0035 10.7465C18.4721 10.2151 17.7515 9.91663 17 9.91663C16.2486 9.91663 15.5279 10.2151 14.9966 10.7465C14.4652 11.2778 14.1667 11.9985 14.1667 12.75V25.4999L10.7667 20.9666C10.5028 20.6147 10.1606 20.3291 9.76714 20.1324C9.37372 19.9357 8.9399 19.8333 8.50004 19.8333H7.88521C6.65979 19.8333 5.66671 20.8264 5.66671 22.0518C5.66671 22.4541 5.77579 22.8494 5.98262 23.1936L9.9167 29.7499M17 5.66663V4.24997V5.66663ZM25.5 14.1666H26.9167H25.5ZM7.08337 14.1666H8.50004H7.08337ZM10.4026 7.56921L9.40104 6.56763L10.4026 7.56921ZM23.5974 7.56921L24.599 6.56763L23.5974 7.56921Z" fill="#4CAF4F"/>
<path d="M28.3333 29.7499V26.9166C28.3333 25.4137 27.7363 23.9724 26.6736 22.9097C25.6109 21.847 24.1696 21.2499 22.6667 21.2499H21.25C20.8743 21.2499 20.514 21.1007 20.2483 20.835C19.9826 20.5693 19.8334 20.209 19.8334 19.8333V12.75C19.8334 11.9985 19.5348 11.2778 19.0035 10.7465C18.4721 10.2151 17.7515 9.91663 17 9.91663V9.91663C16.2486 9.91663 15.5279 10.2151 14.9966 10.7465C14.4652 11.2778 14.1667 11.9985 14.1667 12.75V25.4999L10.7667 20.9666C10.5028 20.6147 10.1606 20.3291 9.76714 20.1324C9.37372 19.9357 8.9399 19.8333 8.50004 19.8333H7.88521C6.65979 19.8333 5.66671 20.8264 5.66671 22.0518C5.66671 22.4541 5.77579 22.8494 5.98262 23.1936L9.9167 29.7499M17 5.66663V4.24997M25.5 14.1666H26.9167M7.08337 14.1666H8.50004M10.4026 7.56921L9.40104 6.56763M23.5974 7.56921L24.599 6.56763" stroke="#4CAF4F" stroke-width="1.39214" stroke-linecap="round" stroke-linejoin="round"/>
</svg>
