<svg width="346" height="34" viewBox="0 0 346 34" fill="none" xmlns="http://www.w3.org/2000/svg">
<rect y="1.71688e-05" width="33.4165" height="33.4165" rx="5.56856" fill="#E8F5E9"/>
<g clip-path="url(#clip0_4_893)">
<path fill-rule="evenodd" clip-rule="evenodd" d="M7.20778 0.135378C11.0526 0.135378 14.1696 3.25227 14.1696 7.09715V0.135378H21.1313C24.9762 0.135378 28.0931 3.25227 28.0931 7.09715C28.0931 10.942 24.9762 14.0589 21.1313 14.0589C24.9762 14.0589 28.0931 17.1758 28.0931 21.0207C28.0931 22.9298 27.3246 24.6595 26.0801 25.9172L26.0541 25.9434L26.0309 25.9664C24.773 27.2127 23.042 27.9825 21.1313 27.9825C19.2336 27.9825 17.5132 27.2231 16.2574 25.9917C16.2411 25.9757 16.2248 25.9596 16.2086 25.9434C16.1933 25.9282 16.1782 25.9129 16.1631 25.8975C14.9301 24.6414 14.1696 22.9199 14.1696 21.0207C14.1696 24.8655 11.0526 27.9825 7.20778 27.9825C3.3629 27.9825 0.24601 24.8655 0.24601 21.0207V14.0589H7.20778C3.3629 14.0589 0.24601 10.942 0.24601 7.09715C0.24601 3.25227 3.3629 0.135378 7.20778 0.135378ZM12.7772 7.09715C12.7772 10.1731 10.2837 12.6666 7.20778 12.6666V1.52773C10.2837 1.52773 12.7772 4.02124 12.7772 7.09715ZM26.7007 21.0207C26.7007 17.9448 24.2072 15.4513 21.1313 15.4513C18.0554 15.4513 15.5619 17.9448 15.5619 21.0207H26.7007ZM1.63836 15.4513V21.0207C1.63836 24.0966 4.13188 26.5901 7.20778 26.5901C10.2837 26.5901 12.7772 24.0966 12.7772 21.0207V15.4513H1.63836ZM15.5619 12.6666V1.52773H21.1313C24.2072 1.52773 26.7007 4.02124 26.7007 7.09715C26.7007 10.1731 24.2072 12.6666 21.1313 12.6666H15.5619Z" fill="#5417D7"/>
</g>
<rect x="61.9598" width="33.4165" height="33.4165" rx="5.56856" fill="#F5F7FA"/>
<g clip-path="url(#clip1_4_893)">
<path fill-rule="evenodd" clip-rule="evenodd" d="M68.9898 9.7196L62.038 16.6016C63.4285 17.9781 65.0169 19.1382 66.7487 20.0458C67.2274 21.3029 67.9778 22.4817 68.9997 23.4934C72.8447 27.2996 79.0784 27.2996 82.9233 23.4934C83.9453 22.4817 84.6956 21.3029 85.1743 20.0458C86.9061 19.1382 88.4946 17.9781 89.8851 16.6016L82.9388 9.7252C82.9337 9.72005 82.9285 9.71491 82.9233 9.70977C79.0784 5.90354 72.8447 5.90354 68.9997 9.70977C68.9964 9.71305 68.9931 9.71632 68.9898 9.7196ZM82.2581 21.2875C80.2322 21.9643 78.1055 22.3109 75.9615 22.3109C73.8175 22.3109 71.6909 21.9643 69.665 21.2875C69.8845 21.5758 70.1268 21.8524 70.3921 22.115C73.468 25.16 78.455 25.16 81.5309 22.115C81.7962 21.8524 82.0386 21.5758 82.2581 21.2875ZM70.5349 10.9503C71.0572 11.2919 71.6126 11.5842 72.1938 11.8226C73.3883 12.3124 74.6686 12.5645 75.9615 12.5645C77.2544 12.5645 78.5347 12.3124 79.7292 11.8226C80.3104 11.5842 80.8658 11.2919 81.3882 10.9503C78.3507 8.08909 73.5724 8.0891 70.5349 10.9503Z" fill="#3B4158"/>
</g>
<rect x="123.92" width="33.4165" height="33.4165" rx="5.56856" fill="#F5F7FA"/>
<g clip-path="url(#clip2_4_893)">
<path d="M162.206 13.5869C162.21 13.5579 162.21 13.5285 162.206 13.4995C162.21 13.4758 162.21 13.4517 162.206 13.428L161.923 11.3864C161.882 11.1421 161.772 10.9138 161.607 10.727L161.558 10.6714L161.469 10.584L156.558 6.43717L156.696 6.57223C156.583 6.44004 156.442 6.3343 156.282 6.26281C156.122 6.19132 155.948 6.15589 155.772 6.15913H154.281C154.039 6.15442 153.802 6.22999 153.609 6.37363C153.406 6.23086 153.162 6.15567 152.912 6.15913H151.421C151.225 6.15602 151.032 6.2036 150.862 6.29707C150.691 6.39053 150.548 6.52656 150.449 6.69138C150.295 6.9268 150.237 7.21044 150.286 7.4858L150.473 8.77274C150.349 8.70412 150.21 8.66852 150.068 8.66948H142.848C142.589 8.67107 142.336 8.74551 142.118 8.88396C141.908 9.01283 141.74 9.19737 141.632 9.41621L141.073 8.94752C140.853 8.7479 140.563 8.6397 140.263 8.64564H128.934C128.675 8.65029 128.42 8.72148 128.197 8.85219C127.892 9.02743 127.668 9.31236 127.573 9.6466L123.975 21.4436C123.908 21.638 123.901 21.8477 123.956 22.0458C124.011 22.2438 124.125 22.4214 124.283 22.5558C124.324 22.5901 124.368 22.6219 124.413 22.6511C124.413 22.6511 124.34 22.6034 124.299 22.5638L129.21 26.7185C129.418 26.906 129.689 27.0108 129.972 27.0124H141.389C141.65 27.0058 141.904 26.9318 142.127 26.7979C142.252 26.7306 142.365 26.6418 142.459 26.5358L142.499 26.4802L142.564 26.4008L142.613 26.3134L143.148 26.7662C143.352 26.9462 143.618 27.0453 143.893 27.0442H155.335C155.595 27.0357 155.849 26.9619 156.072 26.8297C156.195 26.7583 156.307 26.67 156.404 26.5676L156.445 26.512L156.51 26.4326C156.544 26.3823 156.574 26.3291 156.599 26.2736C156.625 26.2255 156.647 26.1749 156.664 26.1227L159.945 15.3505V15.2552C159.949 15.2182 159.949 15.1809 159.945 15.1439V15.0725C159.949 15.0488 159.949 15.0246 159.945 15.0009C159.949 14.9507 159.949 14.9003 159.945 14.85H160.999C161.091 14.8582 161.183 14.8582 161.274 14.85H161.347C161.407 14.8326 161.464 14.8086 161.518 14.7785H161.599L161.744 14.6673L161.809 14.6196L161.923 14.4766V14.429L162.004 14.2939C161.999 14.2676 161.999 14.2408 162.004 14.2145C161.999 14.2016 161.999 14.1877 162.004 14.1748C162.021 14.1282 162.034 14.0804 162.044 14.0317C162.04 14.0161 162.04 13.9997 162.044 13.9841C162.04 13.9604 162.04 13.9362 162.044 13.9126C162.044 13.9126 162.206 13.6028 162.206 13.5869Z" fill="black"/>
<path d="M140.595 9.55134C140.638 9.58948 140.668 9.63963 140.681 9.69502C140.694 9.75042 140.69 9.80841 140.668 9.86116L137.078 21.6502C137.033 21.7789 136.941 21.8866 136.819 21.9521C136.72 22.017 136.605 22.0554 136.487 22.0634H125.077C124.98 22.0588 124.888 22.0192 124.818 21.9521C124.777 21.9146 124.748 21.8658 124.735 21.8121C124.722 21.7583 124.725 21.702 124.745 21.6502L128.343 9.86116C128.384 9.73083 128.474 9.62034 128.594 9.55134C128.695 9.4911 128.809 9.45566 128.926 9.44807H140.336C140.432 9.44898 140.525 9.48591 140.595 9.55134ZM134.639 19.275L136.787 12.2364H130.774L128.635 19.275H134.639ZM151.486 9.6705C151.525 9.71485 151.573 9.75002 151.628 9.7734C151.683 9.79678 151.742 9.80777 151.802 9.80555H153.285C153.341 9.80609 153.397 9.79252 153.446 9.76611C153.496 9.7397 153.538 9.70132 153.568 9.65461C153.595 9.61813 153.613 9.57682 153.623 9.53315C153.633 9.48948 153.633 9.44434 153.625 9.40041L153.333 7.30316C153.306 7.20609 153.256 7.11646 153.187 7.041C153.148 6.99665 153.1 6.96148 153.045 6.9381C152.99 6.91471 152.931 6.90373 152.871 6.90595H151.389C151.332 6.90541 151.276 6.91899 151.227 6.9454C151.177 6.9718 151.135 7.01018 151.105 7.05689C151.048 7.16811 151.024 7.2396 151.048 7.30316L151.348 9.40041C151.363 9.50252 151.412 9.59715 151.486 9.6705ZM156.194 7.28727C156.166 7.1902 156.116 7.10057 156.048 7.02511C156.011 6.98092 155.963 6.94576 155.91 6.92234C155.857 6.89892 155.798 6.88787 155.74 6.89006H154.249C154.193 6.88851 154.138 6.90172 154.09 6.92829C154.041 6.95486 154.001 6.99381 153.973 7.041C153.92 7.11148 153.896 7.2 153.909 7.28727L154.208 9.38451C154.227 9.48556 154.275 9.57925 154.346 9.65461C154.386 9.6981 154.435 9.73268 154.489 9.75598C154.544 9.77929 154.603 9.79078 154.662 9.78966H156.153C156.209 9.79038 156.263 9.77682 156.312 9.75032C156.36 9.72383 156.4 9.68536 156.429 9.63873C156.457 9.60319 156.477 9.5619 156.486 9.51791C156.496 9.47393 156.496 9.42835 156.485 9.38451L156.194 7.28727ZM150.181 10.4649L150.035 9.43218H142.848C142.735 9.43828 142.626 9.47394 142.532 9.53545C142.472 9.56736 142.42 9.61158 142.379 9.66507C142.339 9.71856 142.311 9.78004 142.297 9.84527L141.697 11.8154C141.673 11.8646 141.665 11.9199 141.674 11.9738C141.682 12.0276 141.707 12.0777 141.746 12.1173C141.814 12.1803 141.903 12.217 141.997 12.2206H150.732L148.585 19.2591H139.874C139.762 19.2616 139.652 19.2946 139.558 19.3544C139.443 19.4257 139.36 19.5361 139.323 19.6642L138.715 21.6344C138.695 21.6849 138.69 21.7398 138.7 21.7931C138.71 21.8464 138.735 21.8959 138.772 21.9362C138.838 22.0034 138.928 22.0432 139.023 22.0474H150.465C150.583 22.0375 150.697 21.9993 150.797 21.9362C150.917 21.8703 151.006 21.7625 151.048 21.6344L154.338 10.8621H150.635C150.576 10.8633 150.518 10.8526 150.463 10.8307C150.409 10.8088 150.36 10.7763 150.319 10.735C150.252 10.663 150.205 10.5755 150.181 10.4808V10.4649Z" fill="white"/>
</g>
<rect x="185.879" width="33.4165" height="33.4165" rx="5.56856" fill="#F5F7FA"/>
<g clip-path="url(#clip3_4_893)">
<path d="M216.509 9.33674C216.509 9.36028 216.509 9.38971 216.503 9.40736C216.472 9.63688 216.472 9.8664 216.49 10.1018C216.503 10.1607 216.515 10.2195 216.564 10.2666C216.644 10.3549 216.766 10.3372 216.815 10.2313C216.84 10.1783 216.84 10.1253 216.828 10.0724C216.766 9.84874 216.754 9.61334 216.748 9.38382C216.748 9.37205 216.748 9.35439 216.748 9.33674C216.815 9.33086 216.877 9.32497 216.932 9.32497C216.975 9.31909 217.011 9.3132 217.042 9.29554C217.134 9.24847 217.134 9.14842 217.036 9.10134C216.999 9.08368 216.95 9.07779 216.907 9.07779C216.754 9.08368 216.601 9.08368 216.447 9.08368C216.392 9.08368 216.337 9.08957 216.282 9.09545C216.251 9.10134 216.214 9.10134 216.19 9.11899C216.147 9.13665 216.122 9.16607 216.122 9.20727C216.129 9.24847 216.147 9.272 216.19 9.28966C216.214 9.30732 216.245 9.3132 216.276 9.3132C216.349 9.31909 216.429 9.33086 216.509 9.33674ZM218.195 9.60746C218.195 9.61334 218.201 9.61923 218.201 9.61923C218.226 9.77812 218.25 9.93114 218.268 10.0841C218.275 10.1371 218.281 10.1842 218.318 10.2254C218.397 10.3254 218.52 10.3137 218.575 10.2077C218.6 10.1548 218.606 10.1018 218.593 10.043C218.557 9.8664 218.538 9.68985 218.501 9.51918C218.477 9.41325 218.446 9.3132 218.416 9.21904C218.397 9.16019 218.354 9.11899 218.281 9.11311C218.207 9.10134 218.152 9.13665 218.121 9.18961C218.085 9.23669 218.054 9.28377 218.029 9.33674C217.986 9.4309 217.95 9.52507 217.901 9.61334C217.894 9.63688 217.888 9.65454 217.876 9.67219C217.87 9.66042 217.864 9.65454 217.864 9.65454C217.784 9.50741 217.71 9.36028 217.631 9.21904C217.618 9.20727 217.612 9.1955 217.606 9.18373C217.569 9.13076 217.527 9.10134 217.459 9.10134C217.398 9.10722 217.349 9.14253 217.318 9.1955C217.306 9.21904 217.306 9.23669 217.3 9.26023C217.275 9.44856 217.244 9.63688 217.22 9.8252C217.208 9.93114 217.202 10.0371 217.202 10.143C217.195 10.1665 217.202 10.196 217.214 10.2195C217.226 10.2666 217.263 10.296 217.312 10.3019C217.373 10.3078 217.416 10.2901 217.435 10.243C217.453 10.2077 217.459 10.1783 217.465 10.1489C217.49 10.043 217.508 9.94291 217.527 9.84286C217.539 9.78401 217.545 9.73693 217.563 9.67219C217.576 9.69573 217.588 9.71339 217.6 9.73104C217.655 9.80167 217.71 9.87229 217.778 9.93114C217.845 9.97822 217.901 9.97233 217.956 9.91936C217.968 9.90759 217.974 9.90171 217.986 9.88994C218.042 9.80755 218.109 9.72516 218.164 9.64276C218.177 9.63099 218.183 9.61923 218.195 9.60746Z" fill="#3A3B7B"/>
<path d="M204.067 9.45237C204.024 9.56422 204.016 9.6448 204.035 9.71177C204.057 9.80284 204.114 9.83266 204.19 9.80949C204.91 9.63856 206.49 10.1237 207.074 10.259C207.212 10.2874 207.325 10.1165 207.23 9.96333C207.093 9.81499 205.514 9.17987 204.912 9.14524C204.676 9.13243 204.254 9.07432 204.067 9.45237Z" fill="#3A3B7B"/>
<path d="M210.239 7.39639C210.316 7.43891 210.358 7.47947 210.38 7.52479C210.411 7.58424 210.395 7.62537 210.342 7.64636C209.865 7.86937 209.232 8.82946 208.976 9.16058C208.914 9.23675 208.771 9.19249 208.75 9.06723C208.754 8.92559 209.316 7.88368 209.629 7.5999C209.752 7.4891 209.956 7.2717 210.239 7.39639Z" fill="#3A3B7B"/>
<path d="M206.447 6.92381C206.54 6.8571 206.635 6.83373 206.684 6.87708C207.403 7.46667 207.784 8.40034 208.019 9.25509C208.028 9.27501 208.029 9.30358 208.022 9.33339C208.019 9.35887 207.999 9.38579 207.969 9.40662C207.936 9.42961 207.907 9.43661 207.894 9.4168C207.579 9.00583 205.781 7.4068 206.447 6.92381Z" fill="#3A3B7B"/>
<path d="M191.237 17.1458C191.409 17.0228 191.596 16.9204 191.794 16.8409C192.001 16.7841 192.222 16.7935 192.423 16.8678C192.624 16.9421 192.795 17.0773 192.909 17.2528C193.011 17.4279 193.05 17.6301 193.022 17.8289C192.994 18.0276 192.9 18.2122 192.753 18.3548C192.639 18.4705 192.509 18.5712 192.368 18.6544C191.738 19.0449 191.103 19.414 190.467 19.8046C190.337 19.9023 190.199 19.99 190.055 20.0667C189.835 20.1719 189.584 20.2001 189.345 20.1463C189.106 20.0927 188.893 19.9604 188.745 19.7725C188.634 19.6394 188.541 19.4939 188.466 19.3391C187.864 18.1248 187.24 16.9158 186.661 15.6801C186.393 15.1451 186.176 14.5299 185.964 13.9361C185.872 13.7636 185.854 13.5636 185.914 13.3786C185.974 13.1936 186.106 13.0382 186.283 12.9455C186.46 12.8528 186.668 12.8302 186.863 12.8823C187.057 12.9344 187.222 13.0573 187.324 13.2246C187.636 13.6223 187.912 14.0446 188.149 14.4871C188.751 15.557 189.325 16.6269 189.904 17.6647C189.938 17.7221 189.975 17.7774 190.016 17.8306C190.452 17.6545 190.863 17.4243 191.237 17.1458Z" fill="#3A3B7B"/>
<path d="M197.46 16.7726C196.084 18.3186 193.776 17.928 192.617 15.938C191.792 14.5258 191.647 12.1934 193.442 10.7223C193.825 10.4143 194.283 10.2045 194.774 10.1124C195.375 10.0296 195.989 10.1315 196.526 10.4034C197.064 10.6753 197.498 11.1033 197.767 11.6263C198.748 13.3382 198.609 15.5208 197.46 16.7726ZM196.903 13.167C196.757 12.7463 196.463 12.3872 196.073 12.1506C195.851 11.9993 195.583 11.9257 195.312 11.9423C195.041 11.9589 194.784 12.0645 194.584 12.2415C193.787 12.9209 193.62 14.5311 194.2 15.4887C194.274 15.6448 194.382 15.7836 194.518 15.8953C194.653 16.007 194.813 16.0889 194.985 16.1352C195.157 16.1816 195.337 16.1913 195.514 16.1637C195.69 16.1361 195.858 16.0719 196.006 15.9755C196.438 15.654 196.755 15.2113 196.913 14.7089C197.07 14.2065 197.061 13.6695 196.886 13.1724L196.903 13.167Z" fill="#3A3B7B"/>
<path d="M203.079 13.8411C202.938 13.8702 202.792 13.8719 202.651 13.8462C202.509 13.8204 202.374 13.7678 202.254 13.6913C202.149 13.6336 202.058 13.5542 201.989 13.4589C201.92 13.3636 201.873 13.2548 201.853 13.1402C201.833 13.0256 201.839 12.9081 201.872 12.7962C201.904 12.6843 201.963 12.5808 202.042 12.493C202.18 12.3166 202.377 12.1903 202.599 12.1346C203.181 11.9727 203.779 11.874 204.383 11.8404C204.516 11.8256 204.65 11.8363 204.779 11.8721C204.907 11.9079 205.026 11.9678 205.13 12.0486C205.234 12.1293 205.32 12.2292 205.383 12.3422C205.446 12.4553 205.485 12.5793 205.498 12.707C205.672 13.3342 205.691 13.9919 205.553 14.6275C205.052 16.6817 203.324 17.3878 201.384 16.7298C200.84 16.5539 200.362 16.2261 200.013 15.7883C199.547 15.2611 199.217 14.6363 199.049 13.9641C198.913 13.3656 198.928 12.7445 199.093 12.1526C199.257 11.5608 199.567 11.0153 199.996 10.5618C200.404 10.0689 200.932 9.68106 201.535 9.43307C201.915 9.23171 202.361 9.17446 202.783 9.27259C202.879 9.29805 202.966 9.34765 203.035 9.41625C203.104 9.48486 203.153 9.56996 203.177 9.66274C203.2 9.75552 203.197 9.8526 203.168 9.94391C203.139 10.0352 203.085 10.1174 203.012 10.182C202.873 10.3029 202.721 10.4104 202.56 10.503C202.065 10.8058 201.634 11.1961 201.29 11.6531C201.064 11.9488 200.909 12.2884 200.835 12.6479C200.76 13.0074 200.769 13.3782 200.86 13.7341C200.987 14.2194 201.267 14.655 201.663 14.9805C202.889 16.0504 204.483 15.018 204.205 13.5575C203.798 13.6539 203.441 13.7555 203.079 13.8411Z" fill="#3A3B7B"/>
<path d="M210.57 16.8582C208.758 17.9281 206.696 16.8582 206.245 14.6114C205.916 13.0066 206.54 10.7598 208.725 9.90383C209.19 9.72564 209.694 9.66308 210.191 9.72195C210.788 9.82682 211.335 10.1088 211.756 10.5283C212.177 10.9477 212.451 11.4833 212.537 12.0597C212.905 13.9695 212.069 16.0076 210.57 16.8582ZM211.2 13.258C211.199 12.8136 211.035 12.3836 210.737 12.0436C210.578 11.8334 210.347 11.6828 210.085 11.6174C209.823 11.552 209.545 11.576 209.299 11.6852C208.318 12.0918 207.627 13.5682 207.878 14.6542C207.897 14.8246 207.955 14.989 208.047 15.1358C208.139 15.2826 208.264 15.4083 208.412 15.5041C208.56 15.5998 208.728 15.6634 208.904 15.6903C209.081 15.7172 209.261 15.7069 209.433 15.6599C209.951 15.4861 210.4 15.1612 210.717 14.7305C211.034 14.2999 211.203 13.7851 211.2 13.258Z" fill="#3A3B7B"/>
<path d="M214.369 17.3076C214.342 17.5033 214.235 17.6807 214.071 17.8006C213.908 17.9204 213.701 17.9731 213.497 17.9468C213.293 17.9206 213.108 17.8176 212.983 17.6606C212.858 17.5036 212.804 17.3054 212.831 17.1096C212.858 16.9138 212.966 16.7365 213.129 16.6166C213.293 16.4967 213.499 16.4441 213.703 16.4704C213.907 16.4966 214.092 16.5995 214.217 16.7565C214.342 16.9135 214.397 17.1118 214.369 17.3076ZM213.884 10.091C213.99 9.93564 214.146 9.81731 214.328 9.75368C214.51 9.69005 214.708 9.68454 214.893 9.73796C215.082 9.78321 215.248 9.88921 215.365 10.0382C215.482 10.1872 215.541 10.3702 215.534 10.5564C215.51 10.8552 215.463 11.152 215.395 11.4444C215.211 12.4341 215.033 13.4238 214.838 14.4028C214.748 14.7933 214.631 15.1677 214.503 15.5636C214.459 15.6873 214.384 15.7992 214.286 15.8899C214.225 15.9582 214.147 16.0105 214.059 16.0422C213.971 16.0738 213.876 16.0837 213.784 16.0709C213.691 16.0581 213.603 16.023 213.528 15.969C213.453 15.9149 213.394 15.8435 213.355 15.7615C213.289 15.6144 213.253 15.4564 213.249 15.2961C213.249 14.6328 213.249 13.9641 213.294 13.2954C213.369 12.3411 213.518 11.3934 213.74 10.4601C213.766 10.3351 213.815 10.2155 213.884 10.1071V10.091Z" fill="#3A3B7B"/>
<path fill-rule="evenodd" clip-rule="evenodd" d="M188.882 21.6063C188.816 21.7473 188.798 21.9045 188.83 22.0558C188.851 22.2552 188.898 22.4514 188.97 22.6398C189.059 22.8705 189.159 23.0986 189.282 23.3798C189.311 23.4445 189.34 23.5121 189.371 23.5831C189.537 23.9641 189.746 24.4509 190.024 25.1554C190.103 25.3556 190.172 25.5574 190.243 25.7606C190.271 25.8427 190.3 25.925 190.329 26.0076C190.434 26.301 190.614 26.5647 190.853 26.7737C190.954 26.8885 191.088 26.9722 191.239 27.014C191.393 27.0567 191.556 27.054 191.709 27.0063C191.861 26.9585 191.994 26.8679 192.092 26.7463C192.188 26.6271 192.245 26.4833 192.256 26.3332C192.318 26.0407 192.297 25.7375 192.194 25.4555C192.032 24.9874 191.847 24.5185 191.633 24.06L191.632 24.0579C191.28 23.3405 190.923 22.628 190.549 21.9152L190.546 21.9102C190.437 21.7245 190.295 21.5585 190.126 21.4197C190.016 21.2957 189.865 21.2121 189.698 21.1833C189.528 21.1539 189.352 21.1836 189.202 21.267C189.061 21.3447 188.948 21.4634 188.882 21.6063Z" fill="#3A3B7B"/>
<path fill-rule="evenodd" clip-rule="evenodd" d="M194.249 19.8397C193.698 19.7027 193.123 19.6828 192.563 19.7812C192.129 19.8222 191.703 19.9182 191.407 20.1084C191.256 20.2051 191.134 20.3294 191.067 20.4873C190.998 20.6461 190.99 20.8277 191.046 21.0301C191.147 21.4007 191.28 21.7611 191.412 22.1203L191.433 22.1785L191.433 22.1798C191.831 23.2234 192.231 24.2635 192.636 25.2999C192.683 25.4633 192.75 25.6209 192.835 25.7695L192.836 25.7722C192.948 25.9569 193.092 26.122 193.262 26.2607C193.346 26.337 193.451 26.3897 193.565 26.4133C193.68 26.4371 193.799 26.4302 193.91 26.3933C194.021 26.3565 194.119 26.2911 194.194 26.2043C194.268 26.1189 194.316 26.016 194.333 25.9065C194.407 25.6091 194.383 25.2973 194.266 25.013C194.23 24.9174 194.201 24.8196 194.171 24.7167C194.161 24.6823 194.151 24.6474 194.14 24.6119C195.066 24.2645 196.051 23.7975 196.397 22.7109C196.533 22.3354 196.544 21.9289 196.43 21.5469C196.315 21.1646 196.08 20.8257 195.756 20.5769C195.316 20.2286 194.801 19.977 194.249 19.8397ZM192.722 21.1724C192.74 21.1674 192.758 21.1627 192.777 21.1583C193.379 21.0674 193.996 21.1886 194.513 21.4995C194.741 21.6516 194.834 21.8206 194.85 21.9832C194.867 22.1506 194.804 22.332 194.676 22.5065C194.435 22.8359 193.996 23.0996 193.599 23.1487C193.31 22.5092 193.016 21.8438 192.722 21.1724Z" fill="#3A3B7B"/>
<path d="M197.923 18.6691C198.579 18.3783 199.392 18.328 200.028 18.5325C200.188 18.5773 200.327 18.6742 200.421 18.8065C200.514 18.9381 200.557 19.0966 200.543 19.2551C200.542 19.358 200.516 19.4592 200.466 19.5505C200.416 19.6435 200.343 19.7234 200.253 19.7836C200.164 19.8438 200.061 19.8824 199.953 19.8962C199.844 19.9101 199.734 19.8987 199.632 19.8631L199.624 19.8604L199.616 19.8566C199.564 19.8303 199.508 19.8104 199.45 19.7975L199.447 19.7967C198.999 19.6826 198.577 19.8716 198.423 20.1038C198.35 20.2145 198.34 20.3263 198.402 20.428C198.467 20.5369 198.628 20.6591 198.954 20.7462C199.043 20.7697 199.135 20.7925 199.228 20.8156C199.485 20.8796 199.753 20.946 200.011 21.0381L200.012 21.0385C201.206 21.4742 201.65 22.3766 201.498 23.2254C201.347 24.0648 200.617 24.8286 199.519 25.0088C199.119 25.0938 198.703 25.0773 198.312 24.9608C197.92 24.8439 197.567 24.6307 197.287 24.3422L197.28 24.3346C197.192 24.2259 197.132 24.0982 197.106 23.9627C197.082 23.8405 197.094 23.7141 197.143 23.5985C197.19 23.4836 197.271 23.3842 197.376 23.3117C197.486 23.2296 197.619 23.1803 197.758 23.1701C197.897 23.1598 198.036 23.1888 198.158 23.2533C198.28 23.3097 198.393 23.3817 198.495 23.4673L198.496 23.4689C198.676 23.6267 198.894 23.6678 199.102 23.6297C199.314 23.5911 199.513 23.4709 199.641 23.3115C199.768 23.153 199.819 22.9648 199.758 22.7821C199.698 22.5981 199.514 22.3919 199.112 22.2195C199.006 22.1766 198.897 22.142 198.784 22.1083C198.753 22.0992 198.722 22.0902 198.69 22.081C198.606 22.0565 198.52 22.0313 198.435 22.0036C198.377 21.9845 198.319 21.9664 198.262 21.9485C198.105 21.8995 197.952 21.8518 197.805 21.7878C197.486 21.6833 197.209 21.4826 197.018 21.2154C196.825 20.9471 196.728 20.6264 196.741 20.3009C196.742 19.5079 197.263 18.9616 197.923 18.6691Z" fill="#3A3B7B"/>
<path d="M206.242 18.5846C206.114 18.525 205.974 18.4966 205.832 18.5022C205.691 18.5078 205.553 18.5471 205.431 18.6166C205.31 18.6856 205.209 18.7822 205.137 18.8979C205.07 18.9953 205.024 19.1042 205.001 19.2186C204.978 19.3329 204.979 19.4504 205.003 19.5644C205.026 19.711 205.053 19.8535 205.079 19.994C205.122 20.2266 205.163 20.454 205.191 20.6858L205.192 20.6917C205.255 21.0552 205.288 21.4229 205.29 21.7913L205.291 21.7966C205.312 22.1945 205.171 22.5846 204.897 22.8842L204.893 22.8896C204.804 22.9991 204.685 23.0827 204.549 23.131C204.413 23.1793 204.266 23.1904 204.124 23.1631C203.982 23.1357 203.851 23.071 203.745 22.9762C203.639 22.8814 203.563 22.7598 203.525 22.6257C203.444 22.3432 203.397 22.0526 203.385 21.7598L203.524 19.6371C203.526 19.6093 203.528 19.5809 203.53 19.5522C203.536 19.4877 203.541 19.422 203.543 19.3608C203.547 19.2707 203.544 19.178 203.522 19.0902C203.5 19.0006 203.457 18.9153 203.381 18.8427C203.307 18.7708 203.206 18.7177 203.079 18.6816C202.849 18.6178 202.655 18.6198 202.493 18.6857C202.331 18.7517 202.22 18.8741 202.141 19.0155C202.063 19.1557 202.013 19.3217 201.975 19.488C201.947 19.6114 201.925 19.7409 201.903 19.8642C201.896 19.9067 201.889 19.9484 201.881 19.9889L201.881 19.9901C201.766 20.6663 201.732 21.3528 201.779 22.0364C201.788 22.4058 201.868 22.7705 202.016 23.1117C202.183 23.552 202.484 23.9335 202.882 24.2058C203.28 24.4787 203.755 24.629 204.244 24.637C204.733 24.6449 205.213 24.5101 205.62 24.2503C206.027 23.9909 206.342 23.6192 206.524 23.1842C206.779 22.6302 206.898 22.0276 206.874 21.4225C206.859 20.9807 206.834 20.5356 206.809 20.0926C206.796 19.8754 206.784 19.6586 206.773 19.4431C206.768 19.227 206.694 19.0178 206.56 18.8433C206.478 18.7331 206.369 18.6442 206.242 18.5846Z" fill="#3A3B7B"/>
<path d="M210.745 21.9131C210.732 21.9288 210.718 21.9451 210.704 21.9621C210.601 21.389 210.505 20.8162 210.409 20.2425C210.374 20.0367 210.34 19.83 210.305 19.6239L210.301 19.6009L210.288 19.581C210.264 19.5436 210.262 19.507 210.262 19.4288V19.4197L210.26 19.4108C210.234 19.2493 210.158 19.099 210.042 18.9797C209.926 18.8606 209.776 18.7777 209.61 18.7417C209.445 18.7026 209.271 18.7112 209.111 18.7666C208.951 18.8218 208.811 18.921 208.71 19.0517C208.626 19.1521 208.557 19.2634 208.505 19.3823C208.387 19.6386 208.269 19.8954 208.15 20.153L208.148 20.1574C207.851 20.8004 207.552 21.4477 207.262 22.1001L207.261 22.1022C207.083 22.5252 206.936 22.9709 206.789 23.4153C206.76 23.5039 206.731 23.5926 206.701 23.681C206.648 23.8212 206.625 23.9702 206.633 24.1191C206.623 24.2524 206.657 24.3853 206.728 24.5C206.801 24.617 206.911 24.7091 207.041 24.7632C207.18 24.8214 207.334 24.8338 207.481 24.7983C207.627 24.763 207.756 24.682 207.849 24.5682C207.968 24.4281 208.07 24.2752 208.154 24.1132C208.399 23.6306 208.634 23.1421 208.868 22.6557C208.959 22.4676 209.047 22.2991 209.147 22.1156C209.154 22.1382 209.161 22.1603 209.168 22.1824C209.273 22.6254 209.45 23.0498 209.692 23.4399C209.738 23.5225 209.802 23.5948 209.88 23.6516C209.958 23.7091 210.049 23.7495 210.145 23.77C210.242 23.7905 210.342 23.7906 210.438 23.7703C210.534 23.75 210.625 23.7096 210.704 23.6523L210.859 23.5406L212.066 22.5648L211.995 23.0014C211.897 23.6015 211.8 24.1966 211.697 24.7919C211.629 25.0557 211.629 25.3313 211.697 25.595C211.726 25.7435 211.801 25.8801 211.912 25.9876C212.023 26.0959 212.166 26.1695 212.322 26.1989C212.478 26.2282 212.639 26.212 212.785 26.1522C212.929 26.0933 213.051 25.9948 213.137 25.8693C213.336 25.6323 213.46 25.3454 213.494 25.0427C213.545 24.6153 213.603 24.182 213.661 23.7488C213.728 23.2496 213.794 22.7504 213.851 22.2609L213.851 22.2594C213.905 21.7235 213.931 21.1854 213.929 20.647C213.941 20.4769 213.897 20.3074 213.803 20.1625C213.709 20.0171 213.569 19.9041 213.404 19.8395C213.232 19.7645 213.04 19.7445 212.855 19.7824C212.672 19.82 212.506 19.9128 212.381 20.0472C212.158 20.2448 211.95 20.4563 211.756 20.6802L211.755 20.6817C211.543 20.9347 211.333 21.1926 211.124 21.4489C210.997 21.6047 210.871 21.7601 210.745 21.9131Z" fill="#3A3B7B"/>
</g>
<rect x="247.839" width="33.4165" height="33.4165" rx="5.56856" fill="#F5F7FA"/>
<g clip-path="url(#clip4_4_893)">
<path d="M274.598 8.13868C274.598 8.46309 274.865 8.72608 275.193 8.72608H275.788C276.116 8.72608 276.382 8.46309 276.382 8.13868C276.382 7.81427 276.116 7.55128 275.788 7.55128H275.193C274.865 7.55128 274.598 7.81427 274.598 8.13868Z" fill="#212326"/>
<path d="M257.353 26.3481H260.242L259.401 25.5173C259.178 25.297 258.876 25.1733 258.56 25.1733H257.353C252.756 25.1733 249.028 21.4914 249.028 16.9497C249.028 12.4079 252.756 8.72608 257.353 8.72608H266.868C271.466 8.72608 275.193 12.4079 275.193 16.9497C275.193 21.4914 271.466 25.1733 266.868 25.1733H263.309C262.836 25.1733 262.382 24.9876 262.047 24.6571L261.062 23.6839C260.504 23.1331 259.748 22.8237 258.96 22.8237H257.353C254.069 22.8237 251.407 20.1938 251.407 16.9497C251.407 13.7055 254.069 11.0757 257.353 11.0757H266.868C270.152 11.0757 272.814 13.7055 272.814 16.9497C272.814 20.1938 270.152 22.8237 266.868 22.8237H264.583C264.109 22.8237 263.656 22.638 263.321 22.3075L262.336 21.3343C261.778 20.7835 261.022 20.4741 260.233 20.4741H257.353C255.383 20.4741 253.786 18.8961 253.786 16.9497C253.786 15.0032 255.383 13.4253 257.353 13.4253H266.868C268.838 13.4253 270.436 15.0032 270.436 16.9497C270.436 18.8724 268.877 20.4355 266.94 20.4734L266.939 20.4741H266.069C265.596 20.4741 265.142 20.2884 264.808 19.958L263.822 18.9847C263.365 18.5327 262.774 18.2433 262.141 18.154L262.111 18.1245H257.353C256.697 18.1245 256.164 17.5985 256.164 16.9497C256.164 16.3009 256.697 15.7749 257.353 15.7749H266.868C267.525 15.7749 268.057 16.3009 268.057 16.9497C268.057 17.5985 267.525 18.1245 266.868 18.1245H264.489L265.33 18.9552C265.553 19.1755 265.856 19.2993 266.171 19.2993H266.868C268.182 19.2993 269.247 18.2473 269.247 16.9497C269.247 15.652 268.182 14.6001 266.868 14.6001H257.353C256.04 14.6001 254.975 15.652 254.975 16.9497C254.975 18.2473 256.04 19.2993 257.353 19.2993H261.72C262.193 19.2993 262.647 19.4849 262.982 19.8154L263.967 20.7886C264.524 21.3394 265.281 21.6489 266.069 21.6489H267.165V21.6398C269.654 21.4882 271.625 19.4463 271.625 16.9497C271.625 14.3544 269.495 12.2505 266.868 12.2505H257.353C254.726 12.2505 252.596 14.3544 252.596 16.9497C252.596 19.545 254.726 21.6489 257.353 21.6489H260.233C260.707 21.6489 261.16 21.8345 261.495 22.165L262.48 23.1382C263.038 23.689 263.794 23.9985 264.583 23.9985H266.868C270.809 23.9985 274.004 20.8426 274.004 16.9497C274.004 13.0567 270.809 9.90088 266.868 9.90088H257.353C253.412 9.90088 250.218 13.0567 250.218 16.9497C250.218 20.8426 253.412 23.9985 257.353 23.9985H258.96C259.433 23.9985 259.887 24.1841 260.221 24.5146L261.206 25.4878C261.764 26.0386 262.52 26.3481 263.309 26.3481H266.868C272.123 26.3481 276.382 22.1403 276.382 16.9497C276.382 11.7591 272.123 7.55128 266.868 7.55128L257.353 7.55128C252.099 7.55128 247.839 11.7591 247.839 16.9497C247.839 22.1403 252.099 26.3481 257.353 26.3481Z" fill="#212326"/>
</g>
<rect x="309.799" width="33.4165" height="33.4165" rx="5.56856" fill="#F5F7FA"/>
<g clip-path="url(#clip5_4_893)">
<path d="M318.392 9.63981C316.978 9.63981 315.622 10.2014 314.623 11.2011L311.36 14.4636C310.36 15.4632 309.799 16.8191 309.799 18.2328C309.799 21.1768 312.185 23.5633 315.129 23.5633C316.543 23.5633 317.899 23.0017 318.899 22.0021L321.155 19.7454C321.155 19.7453 321.155 19.7454 321.155 19.7454L327.731 13.1702C328.208 12.6927 328.855 12.4245 329.531 12.4245C330.661 12.4245 331.619 13.1613 331.952 14.1808L334.027 12.1056C333.08 10.623 331.42 9.63981 329.531 9.63981C328.117 9.63981 326.761 10.2014 325.761 11.2011L316.93 20.033C316.452 20.5104 315.805 20.7786 315.129 20.7786C313.723 20.7786 312.584 19.6389 312.584 18.2328C312.584 17.5576 312.852 16.9101 313.329 16.4326L316.592 13.1702C317.069 12.6927 317.717 12.4245 318.392 12.4245C319.522 12.4245 320.481 13.1613 320.813 14.1808L322.888 12.1057C321.941 10.623 320.281 9.63981 318.392 9.63981Z" fill="#394149"/>
<path d="M328.068 20.033C327.591 20.5104 326.943 20.7787 326.268 20.7787C325.138 20.7787 324.18 20.0421 323.847 19.0228L321.772 21.0978C322.719 22.5803 324.379 23.5634 326.268 23.5634C327.682 23.5634 329.038 23.0017 330.037 22.0021L338.869 13.1702C339.347 12.6928 339.994 12.4245 340.67 12.4245C342.076 12.4245 343.215 13.5643 343.215 14.9704C343.215 15.6456 342.947 16.2931 342.47 16.7705L339.207 20.033C338.73 20.5104 338.082 20.7787 337.407 20.7787C336.277 20.7787 335.318 20.042 334.986 19.0225L332.911 21.0976C333.858 22.5803 335.518 23.5634 337.407 23.5634C338.821 23.5634 340.177 23.0017 341.176 22.0021L344.439 18.7396C345.438 17.7399 346 16.3841 346 14.9704C346 12.0264 343.614 9.63982 340.67 9.63982C339.256 9.63982 337.9 10.2014 336.9 11.2011L328.068 20.033Z" fill="#394149"/>
</g>
<defs>
<clipPath id="clip0_4_893">
<rect width="27.8428" height="27.8428" fill="white" transform="translate(0.24601 0.135378)"/>
</clipPath>
<clipPath id="clip1_4_893">
<rect width="27.8428" height="19.4899" fill="white" transform="translate(62.038 6.8551)"/>
</clipPath>
<clipPath id="clip2_4_893">
<rect width="38.2838" height="20.8821" fill="white" transform="translate(123.92 6.15892)"/>
</clipPath>
<clipPath id="clip3_4_893">
<rect width="32.7153" height="20.186" fill="white" transform="translate(185.879 6.8551)"/>
</clipPath>
<clipPath id="clip4_4_893">
<rect width="28.5388" height="18.7939" fill="white" transform="translate(247.839 7.55128)"/>
</clipPath>
<clipPath id="clip5_4_893">
<rect width="36.1956" height="13.9214" fill="white" transform="translate(309.799 9.63981)"/>
</clipPath>
</defs>
</svg>
