<svg width="46" height="39" viewBox="0 0 46 39" fill="none" xmlns="http://www.w3.org/2000/svg">
<path d="M45.2679 26.4643C45.2679 33.3876 39.6555 39 32.7322 39L13.9286 39C12.0055 39 10.4465 37.441 10.4465 35.5179L10.4465 11.8393C10.4465 7.99299 13.5645 4.87497 17.4108 4.87497L41.7858 4.87497C43.7089 4.87497 45.2679 6.43398 45.2679 8.35712L45.2679 26.4643Z" fill="#E8F5E9"/>
<path d="M18.7453 13.2397C18.528 13.2397 18.3513 13.0634 18.3513 12.8458V12.1763C18.3513 11.959 18.5277 11.7823 18.7453 11.7823C18.9626 11.7823 19.1392 11.9587 19.1392 12.1763V12.8458C19.1392 13.0634 18.9626 13.2397 18.7453 13.2397Z" fill="#103E13"/>
<path d="M17.089 13.2397C16.8717 13.2397 16.6951 13.0634 16.6951 12.8458V12.1763C16.6951 11.959 16.8715 11.7823 17.089 11.7823C17.3063 11.7823 17.483 11.9587 17.483 12.1763V12.8458C17.4827 13.0634 17.3066 13.2397 17.089 13.2397Z" fill="#103E13"/>
<path d="M15.4329 13.2397C15.2156 13.2397 15.039 13.0634 15.039 12.8458V12.1763C15.039 11.959 15.2153 11.7823 15.4329 11.7823C15.6502 11.7823 15.8269 11.9587 15.8269 12.1763V12.8458C15.8269 13.0634 15.6505 13.2397 15.4329 13.2397Z" fill="#103E13"/>
<path d="M18.7453 15.9776C18.528 15.9776 18.3513 15.8012 18.3513 15.5836V14.9144C18.3513 14.6971 18.5277 14.5204 18.7453 14.5204C18.9626 14.5204 19.1392 14.6968 19.1392 14.9144V15.5836C19.1392 15.8012 18.9626 15.9776 18.7453 15.9776Z" fill="#103E13"/>
<path d="M17.089 15.9776C16.8717 15.9776 16.6951 15.8012 16.6951 15.5836V14.9144C16.6951 14.6971 16.8715 14.5204 17.089 14.5204C17.3063 14.5204 17.483 14.6968 17.483 14.9144V15.5836C17.4827 15.8012 17.3066 15.9776 17.089 15.9776Z" fill="#103E13"/>
<path d="M15.4329 15.9776C15.2156 15.9776 15.039 15.8012 15.039 15.5836V14.9144C15.039 14.6971 15.2153 14.5204 15.4329 14.5204C15.6502 14.5204 15.8269 14.6968 15.8269 14.9144V15.5836C15.8269 15.8012 15.6505 15.9776 15.4329 15.9776Z" fill="#103E13"/>
<path d="M18.7453 18.7153C18.528 18.7153 18.3513 18.539 18.3513 18.3214V17.6519C18.3513 17.4346 18.5277 17.2579 18.7453 17.2579C18.9626 17.2579 19.1392 17.4343 19.1392 17.6519V18.3214C19.1392 18.539 18.9626 18.7153 18.7453 18.7153Z" fill="#103E13"/>
<path d="M17.089 18.7153C16.8717 18.7153 16.6951 18.539 16.6951 18.3214V17.6519C16.6951 17.4346 16.8715 17.2579 17.089 17.2579C17.3063 17.2579 17.483 17.4343 17.483 17.6519V18.3214C17.4827 18.539 17.3066 18.7153 17.089 18.7153Z" fill="#103E13"/>
<path d="M15.4329 18.7153C15.2156 18.7153 15.039 18.539 15.039 18.3214V17.6519C15.039 17.4346 15.2153 17.2579 15.4329 17.2579C15.6502 17.2579 15.8269 17.4343 15.8269 17.6519V18.3214C15.8269 18.539 15.6505 18.7153 15.4329 18.7153Z" fill="#103E13"/>
<path d="M18.7453 21.4526C18.528 21.4526 18.3513 21.2762 18.3513 21.0586V20.3891C18.3513 20.1718 18.5277 19.9952 18.7453 19.9952C18.9626 19.9952 19.1392 20.1716 19.1392 20.3891V21.0586C19.1392 21.2762 18.9626 21.4526 18.7453 21.4526Z" fill="#103E13"/>
<path d="M17.089 21.4526C16.8717 21.4526 16.6951 21.2762 16.6951 21.0586V20.3891C16.6951 20.1718 16.8715 19.9952 17.089 19.9952C17.3063 19.9952 17.483 20.1716 17.483 20.3891V21.0586C17.4827 21.2762 17.3066 21.4526 17.089 21.4526Z" fill="#103E13"/>
<path d="M15.4329 21.4526C15.2156 21.4526 15.039 21.2762 15.039 21.0586V20.3891C15.039 20.1718 15.2153 19.9952 15.4329 19.9952C15.6502 19.9952 15.8269 20.1716 15.8269 20.3891V21.0586C15.8269 21.2762 15.6505 21.4526 15.4329 21.4526Z" fill="#103E13"/>
<path d="M18.7453 24.1904C18.528 24.1904 18.3513 24.014 18.3513 23.7965V23.1273C18.3513 22.91 18.5277 22.7333 18.7453 22.7333C18.9626 22.7333 19.1392 22.9097 19.1392 23.1273V23.7965C19.1392 24.0138 18.9626 24.1904 18.7453 24.1904Z" fill="#103E13"/>
<path d="M17.089 24.1904C16.8717 24.1904 16.6951 24.014 16.6951 23.7965V23.1273C16.6951 22.91 16.8715 22.7333 17.089 22.7333C17.3063 22.7333 17.483 22.9097 17.483 23.1273V23.7965C17.4827 24.0138 17.3066 24.1904 17.089 24.1904Z" fill="#103E13"/>
<path d="M15.4329 24.1904C15.2156 24.1904 15.039 24.014 15.039 23.7965L15.0392 23.1273C15.0392 22.91 15.2156 22.7333 15.4332 22.7333C15.6505 22.7333 15.8271 22.9097 15.8271 23.1273V23.7965C15.8269 24.0138 15.6505 24.1904 15.4329 24.1904Z" fill="#103E13"/>
<path d="M4.17888 26.915C4.17888 27.1323 4.35525 27.309 4.57283 27.309H28.5632C28.7805 27.309 28.9572 27.1326 28.9572 26.915C28.9572 26.6977 28.7808 26.5211 28.5632 26.5211H27.835V15.2102C27.835 14.9929 27.6586 14.8162 27.441 14.8162L21.009 14.8165V6.6619C21.009 6.52399 20.9371 6.39652 20.8195 6.32509C20.7022 6.25339 20.5555 6.24899 20.4335 6.31245L13.1207 10.1198C12.9902 10.1877 12.9089 10.3223 12.9089 10.4693V17.5921H5.83179C5.61449 17.5921 5.43784 17.7685 5.43784 17.9861V26.5211H4.57195C4.35465 26.5209 4.17855 26.6972 4.17855 26.9148L4.17888 26.915ZM21.0092 20.783H27.0475V26.5214L21.0092 26.5211V20.783ZM21.0092 18.0454H27.0475V19.9954L21.0092 19.9951V18.0454ZM21.0092 15.604H27.0475V17.2581H21.0092V15.604ZM13.6964 10.7085L20.221 7.31126V26.5208H13.6964V10.7085ZM8.17318 23.3746C8.17318 22.557 8.82097 21.8917 9.61737 21.8917C10.4138 21.8917 11.0618 22.5568 11.0618 23.3746V26.5212H8.17318V23.3746ZM6.22572 18.3799H12.9088V26.5211H11.8497V23.3745C11.8497 22.1226 10.8487 21.1039 9.61737 21.1039C8.38663 21.1039 7.38557 22.1223 7.38557 23.3745V26.5211H6.22572V18.3799Z" fill="#103E13"/>
</svg>
