<svg width="95" height="199" viewBox="0 0 95 199" fill="none" xmlns="http://www.w3.org/2000/svg">
<path d="M83.8595 0.245988H69.8636C69.407 0.254452 68.9564 0.352803 68.5378 0.535418C68.1191 0.718034 67.7406 0.981336 67.4237 1.31029C67.1068 1.63924 66.8579 2.0274 66.6911 2.45258C66.5242 2.87777 66.4428 3.33166 66.4514 3.78832V6.32579C66.4601 6.78211 66.3786 7.23563 66.2116 7.66041C66.0447 8.08518 65.7957 8.47286 65.4787 8.80124C65.1617 9.12961 64.7831 9.39223 64.3645 9.57407C63.9459 9.7559 63.4956 9.85337 63.0392 9.8609L35.756 9.738C34.833 9.71339 33.9576 9.32348 33.3219 8.65388C32.6861 7.98428 32.3422 7.08976 32.3655 6.16675V3.62928C32.3888 2.70749 32.0458 1.81403 31.4117 1.14464C30.7775 0.475253 29.9039 0.0845125 28.9822 0.0580254H24.0591L11.8055 0.000195539C8.89094 -0.0171574 6.08826 1.12108 4.01113 3.1657C1.934 5.21031 0.751678 7.99468 0.723042 10.9091L0.00011684 187.607C-0.00654397 189.052 0.271646 190.486 0.818813 191.824C1.36598 193.162 2.17141 194.38 3.1891 195.407C4.2068 196.434 5.41682 197.25 6.7501 197.81C8.08338 198.369 9.51379 198.661 10.9597 198.667L83.0209 199C84.4677 199.007 85.9017 198.728 87.2409 198.181C88.5802 197.633 89.7985 196.827 90.8262 195.809C91.854 194.79 92.6711 193.58 93.2309 192.245C93.7907 190.911 94.0822 189.48 94.0889 188.033L94.8118 11.3357C94.8291 8.41298 93.6852 5.60304 91.6314 3.52351C89.5776 1.44399 86.7821 0.265102 83.8595 0.245988Z" fill="white"/>
</svg>
