<svg width="4" height="24" viewBox="0 0 4 24" fill="none" xmlns="http://www.w3.org/2000/svg">
<path d="M3.18151 24C3.07857 23.6994 3.00763 23.3888 2.96988 23.0733C2.85313 22.4676 2.72179 21.6139 2.56856 20.5047C2.25478 18.3156 1.93371 15.3165 1.59075 11.9963C1.24779 8.67619 0.861045 5.66981 0.539975 3.50259C0.372143 2.42262 0.226196 1.55427 0.124037 0.948619C0.0443126 0.638626 0.00266817 0.32007 0 0C0.125644 0.292336 0.216267 0.598507 0.269987 0.912132C0.430523 1.51049 0.612949 2.37155 0.817267 3.45881C1.2332 5.64792 1.64182 8.62511 1.98478 11.9526C2.32774 15.28 2.61964 18.1989 2.84585 20.4682C2.9553 21.4898 3.05017 22.3582 3.12314 23.0514C3.17983 23.3642 3.19941 23.6826 3.18151 24Z" fill="#263238"/>
</svg>
