<svg width="3" height="4" viewBox="0 0 3 4" fill="none" xmlns="http://www.w3.org/2000/svg">
<path d="M2.99639 1.60448C3.01071 1.80976 2.98264 2.01578 2.91393 2.20975C2.84522 2.40372 2.73734 2.58149 2.59698 2.73198C2.45663 2.88248 2.28681 3.00248 2.09809 3.08453C1.90938 3.16658 1.70579 3.20893 1.50001 3.20893C1.29422 3.20893 1.09064 3.16658 0.901921 3.08453C0.713202 3.00248 0.543386 2.88248 0.403032 2.73198C0.262679 2.58149 0.154794 2.40372 0.0860837 2.20975C0.0173734 2.01578 -0.0106878 1.80976 0.00364111 1.60448C-0.0106878 1.39919 0.0173734 1.19315 0.0860837 0.999178C0.154794 0.805204 0.262679 0.627437 0.403032 0.476945C0.543386 0.326453 0.713202 0.206447 0.901921 0.124397C1.09064 0.0423471 1.29422 0 1.50001 0C1.70579 0 1.90938 0.0423471 2.09809 0.124397C2.28681 0.206447 2.45663 0.326453 2.59698 0.476945C2.73734 0.627437 2.84522 0.805204 2.91393 0.999178C2.98264 1.19315 3.01071 1.39919 2.99639 1.60448Z" fill="#4CAF4F"/>
</svg>
