<svg width="38" height="43" viewBox="0 0 38 43" fill="none" xmlns="http://www.w3.org/2000/svg">
<path d="M18.8897 5.04186e-05H18.5445L17.5459 0.0734838C17.0055 0.105953 16.4681 0.177123 15.9378 0.286434C15.5944 0.334659 15.2537 0.400828 14.9172 0.484684L13.779 0.800434C11.8418 1.39475 10.0141 2.29993 8.3673 3.48058C6.19151 5.05987 4.3747 7.08189 3.03636 9.41364C2.24974 10.7578 1.62375 12.1896 1.17127 13.6799C0.695811 15.2995 0.42206 16.9716 0.356214 18.6583C0.312452 19.5444 0.327168 20.4324 0.40027 21.3165C0.40027 21.7644 0.525099 22.2123 0.583842 22.6676C0.633251 23.1265 0.719189 23.5807 0.840842 24.026C1.50113 26.9725 2.84088 29.7239 4.75321 32.0608C6.66554 34.3977 9.09753 36.2553 11.8552 37.4855C13.851 38.3467 15.9903 38.8273 18.1627 38.9027C20.4065 39.0261 22.6525 38.7041 24.7713 37.9554L25.4175 37.7131H25.5056L25.579 37.7572L34.8384 42.4566L34.5667 42.6916C33.5754 39.6223 32.6209 36.6484 31.6957 33.792V33.6819L31.7764 33.6011C34.0226 31.3387 35.6901 28.568 36.6374 25.5239C37.4954 22.741 37.7459 19.8062 37.3717 16.9181C37.0389 14.3514 36.2136 11.8731 34.9412 9.61924C33.8444 7.68316 32.4295 5.94554 30.7558 4.47922C29.3749 3.31861 27.8466 2.3458 26.2105 1.58612C24.9726 1.0522 23.6833 0.646236 22.3628 0.374545L20.8943 0.132228L19.8295 0.051456L19.1834 0.00740048H18.9631C19.0363 -0.000723077 19.1102 -0.000723077 19.1834 0.00740048H19.8369L20.9016 0.051456L22.3702 0.264395C23.7071 0.516197 25.014 0.907519 26.2693 1.43192C27.9334 2.18258 29.4893 3.15315 30.8953 4.31767C32.5997 5.77748 34.0447 7.51539 35.1688 9.45769C36.4774 11.7357 37.328 14.2476 37.6728 16.852C38.078 19.7847 37.845 22.7703 36.9899 25.6047C36.0364 28.7121 34.3431 31.5417 32.0554 33.8508L32.0995 33.6599C33.0247 36.5162 33.9866 39.4901 34.9853 42.5521L35.1248 43L34.7062 42.7871L25.4469 38.095H25.6084L24.9475 38.3373C22.788 39.0972 20.5004 39.4265 18.2141 39.3065C15.9949 39.222 13.8109 38.724 11.7744 37.838C7.8898 36.1743 4.65784 33.2828 2.57376 29.6066C1.61472 27.9088 0.914329 26.0774 0.495725 24.1728C0.381094 23.7161 0.295259 23.2526 0.238725 22.785C0.179982 22.3224 0.0845262 21.8672 0.0624976 21.4119C-0.136232 18.7992 0.139913 16.1721 0.877558 13.6578C1.34131 12.1471 1.98474 10.6975 2.79405 9.3402C4.16432 6.98727 6.01898 4.95241 8.23513 3.37044C9.90904 2.18677 11.7675 1.28857 13.7349 0.712311L14.8878 0.4186C15.2271 0.339896 15.5702 0.278625 15.9158 0.235028C16.4516 0.135823 16.994 0.0769112 17.5386 0.0587949L18.5445 0.0220894C18.6589 0.00668339 18.7742 -0.000687882 18.8897 5.04186e-05Z" fill="#4CAF4F"/>
<path d="M23.0751 17.1237H21.7166L18.7795 12.997V10.2874C18.7795 10.2874 16.6794 10.1553 16.9291 13.7019C17.1787 17.2485 16.9291 16.3453 16.9291 16.3453C16.9291 16.3453 12.4719 16.3453 12.1048 16.7492C11.7377 17.153 11.7156 21.456 11.6642 23.8571C11.6361 24.4359 11.8022 25.0075 12.1361 25.4812C12.47 25.9548 12.9526 26.3032 13.5073 26.4712C13.6628 26.5142 13.8233 26.5365 13.9846 26.5372C15.1007 26.5372 20.7767 25.6341 20.7767 25.6341H23.1191L23.0751 17.1237Z" fill="#4CAF4F"/>
<path d="M26.9595 16.3967L26.1224 25.6781H23.8021V16.5876L26.9595 16.3967Z" fill="#4CAF4F"/>
</svg>
