<svg width="60" height="79" viewBox="0 0 60 79" fill="none" xmlns="http://www.w3.org/2000/svg">
<path d="M13.291 76.9341C2.13392 69.1422 -0.393569 54.6777 0.0469364 41.672C0.11915 39.5056 -0.119147 37.2092 0.913514 35.3099C1.94617 33.4107 4.35812 32.1036 6.30067 33.0135C7.91105 33.7718 8.61153 35.6493 9.51421 37.2019C10.7186 39.2699 12.4837 40.9548 14.6053 42.062C15.9846 42.7841 17.6961 43.2174 19.0609 42.4664C20.9385 41.4337 21.1551 38.8557 21.1407 36.6892C21.1407 32.6597 21.1166 28.635 21.0685 24.615C20.9387 22.4565 21.1581 20.2911 21.7184 18.2024C22.39 16.1516 23.8848 14.2523 25.9284 13.6746C27.9721 13.0969 30.5213 14.2884 30.9834 16.3971C31.063 17.2902 31.0847 18.1875 31.0484 19.0834C31.1062 19.9861 31.525 20.9755 32.3699 21.2499C33.2149 21.5243 34.0959 20.896 34.7458 20.2605C36.97 18.0941 38.4865 15.2705 39.8946 12.4831C41.3028 9.69562 42.6821 6.82871 44.7041 4.45287C46.7261 2.07703 49.5208 0.192247 52.6476 0.011712C55.7745 -0.168823 59.0314 1.75207 59.8113 4.78506C60.5912 7.81805 58.8219 10.916 56.9227 13.3785C54.0568 17.0338 50.6785 20.2564 46.8922 22.9469C46.1531 23.3504 45.5632 23.9808 45.2096 24.745C44.7402 26.1893 46.105 27.6336 47.5277 28.0885C49.138 28.6229 50.8856 28.4568 52.5826 28.659C54.2797 28.8612 56.085 29.5978 56.7277 31.1865C57.6087 33.3963 55.7601 35.7071 53.9475 37.2236C50.3079 40.2566 46.1751 42.643 41.7289 44.2789C40.1402 44.8566 38.472 45.3694 37.1866 46.4815C35.9012 47.5935 35.1357 49.5361 35.9084 51.0598C36.6811 52.5835 38.667 53.0674 40.3352 52.7569C42.0033 52.4463 43.4837 51.5509 45.0724 50.9515C48.0404 49.8322 51.8677 50.0344 53.7381 52.598C54.3175 53.4811 54.6843 54.4865 54.8096 55.5353C54.9349 56.584 54.8153 57.6476 54.4602 58.6423C53.7375 60.6219 52.6251 62.4366 51.1889 63.9789C46.4592 69.6299 40.3138 73.9237 33.3809 76.4214C26.4989 78.8045 20.1225 79.4544 13.2838 76.9486" fill="#4CAF4F"/>
</svg>
