<svg width="46" height="39" viewBox="0 0 46 39" fill="none" xmlns="http://www.w3.org/2000/svg">
<path d="M45.2679 26.4643C45.2679 33.3876 39.6555 39 32.7322 39L13.9286 39C12.0055 39 10.4465 37.441 10.4465 35.5179L10.4465 11.8393C10.4465 7.99299 13.5645 4.87497 17.4108 4.87497L41.7858 4.87497C43.7089 4.87497 45.2679 6.43398 45.2679 8.35712L45.2679 26.4643Z" fill="#E8F5E9"/>
<path d="M16.7073 6.96429C14.2202 6.96429 12.1955 9.00753 12.1955 11.5052C12.1955 13.0853 13.0068 14.4805 14.2321 15.2937C12.7522 15.7885 11.4718 16.7133 10.5326 17.9231C10.0134 17.5237 9.43322 17.2025 8.80777 16.9723C9.75621 16.2682 10.376 15.1371 10.376 13.8659C10.376 11.7475 8.66273 10.0134 6.55721 10.0134C4.45168 10.0134 2.73841 11.7475 2.73841 13.8659C2.73841 15.1379 3.35872 16.2695 4.30796 16.9736C1.79484 17.901 0 20.3289 0 23.1864V25.1936C0.000257224 25.3466 0.0614646 25.4932 0.16999 25.601C0.278516 25.709 0.425364 25.7692 0.578382 25.7687H9.3847C9.40605 25.771 9.4274 25.7723 9.44874 25.772H23.9664C23.9877 25.7723 24.0093 25.771 24.0304 25.7687H32.8374C33.154 25.7674 33.4104 25.5105 33.4112 25.1936V23.1864C33.4112 20.3289 31.6194 17.901 29.1076 16.9733C30.0569 16.2695 30.6772 15.1376 30.6772 13.8656C30.6772 11.7473 28.9639 10.0131 26.8584 10.0131C24.7529 10.0131 23.0396 11.7473 23.0396 13.8656C23.0396 15.1369 23.6596 16.2681 24.6081 16.9721C23.9813 17.2028 23.4009 17.525 22.8809 17.9254C21.9422 16.7148 20.6635 15.7888 19.1838 15.2937C20.4087 14.4805 21.2204 13.0853 21.2204 11.5052C21.2204 9.00753 19.1946 6.96429 16.7075 6.96429H16.7073ZM16.7073 8.11643C18.5675 8.11643 20.067 9.62607 20.067 11.5052C20.067 13.3697 18.5908 14.8647 16.7513 14.8887C16.7366 14.8887 16.7222 14.8866 16.7073 14.8866C16.6924 14.8866 16.6783 14.8887 16.6633 14.8887C14.8238 14.865 13.3486 13.3698 13.3486 11.5052C13.3486 9.6258 14.8469 8.11643 16.7071 8.11643H16.7073ZM6.55727 11.1655C8.0332 11.1655 9.22392 12.3634 9.22392 13.8658C9.22392 15.3582 8.04861 16.551 6.58657 16.5672C6.5768 16.5672 6.56728 16.5661 6.55725 16.5661C6.54748 16.5661 6.53796 16.5672 6.52793 16.5672C5.0659 16.551 3.89058 15.3579 3.89058 13.8658C3.89058 12.3634 5.0813 11.1655 6.55723 11.1655H6.55727ZM26.858 11.1655C28.334 11.1655 29.5247 12.3634 29.5247 13.8658C29.5247 15.3582 28.3494 16.551 26.8873 16.5672C26.8776 16.5672 26.868 16.5661 26.858 16.5661C26.8482 16.5661 26.8387 16.5672 26.8287 16.5672C25.3667 16.551 24.1913 15.3579 24.1913 13.8658C24.1913 12.3634 25.3821 11.1655 26.858 11.1655H26.858ZM16.6632 16.0407C16.6779 16.041 16.6923 16.0428 16.7072 16.0428C16.7218 16.0428 16.7362 16.0407 16.7512 16.0407C20.4403 16.0644 23.3928 19.0422 23.3928 22.7699L23.3925 24.6195H10.0224V22.7699C10.0224 19.0419 12.974 16.0644 16.6627 16.0407H16.6632ZM6.51316 17.7206C6.52782 17.7209 6.54222 17.7227 6.55714 17.7227C6.57205 17.7227 6.5862 17.7206 6.60112 17.7206C7.84892 17.7307 8.9877 18.1609 9.89447 18.8807C9.24561 20.0288 8.87038 21.354 8.87038 22.7702V24.6154H1.15168V23.1863C1.15168 20.1568 3.53365 17.7443 6.51303 17.7204L6.51316 17.7206ZM26.8139 17.7206C26.8288 17.7209 26.843 17.7227 26.8579 17.7227C26.8728 17.7227 26.887 17.7206 26.9019 17.7206C29.8812 17.7443 32.2632 20.1571 32.2632 23.1866V24.6154H24.5406L24.5403 22.7702C24.5403 21.3548 24.1661 20.0306 23.5185 18.8828C24.4256 18.1619 25.5651 17.7306 26.814 17.7206H26.8139Z" fill="#103E13"/>
</svg>
