<svg width="13" height="13" viewBox="0 0 13 13" fill="none" xmlns="http://www.w3.org/2000/svg">
<g clip-path="url(#clip0_0_73)">
<path fill-rule="evenodd" clip-rule="evenodd" d="M12.2997 0.700311C12.4468 0.847447 12.4967 1.06586 12.4279 1.26226L8.63627 12.0956C8.5629 12.3052 8.36901 12.4488 8.1471 12.4578C7.92519 12.4669 7.72024 12.3396 7.63004 12.1366L5.54799 7.452L0.863385 5.36996C0.660434 5.27976 0.533109 5.07481 0.542162 4.8529C0.551215 4.63099 0.694813 4.43709 0.904437 4.36372L11.7377 0.572071C11.9341 0.50333 12.1525 0.553174 12.2997 0.700311ZM6.60443 7.1616L8.06511 10.4481L10.6213 3.14473L6.60443 7.1616ZM9.85527 2.3787L2.55187 4.93489L5.8384 6.39557L9.85527 2.3787Z" fill="white"/>
</g>
<defs>
<clipPath id="clip0_0_73">
<rect width="12.5293" height="12.5293" fill="white" transform="scale(1.03757)"/>
</clipPath>
</defs>
</svg>
