<svg width="104" height="212" viewBox="0 0 104 212" fill="none" xmlns="http://www.w3.org/2000/svg">
<path d="M87.4993 211.938L15.5864 211.607C11.4335 211.584 7.45945 209.913 4.53706 206.963C1.61467 204.012 -0.0170967 200.022 0.000135104 195.869L0.763249 15.5937C0.771737 13.5362 1.18563 11.5005 1.98129 9.60309C2.77695 7.70565 3.93877 5.98362 5.40032 4.53544C6.86187 3.08726 8.59451 1.94132 10.4992 1.16314C12.4039 0.384951 14.4432 -0.0102224 16.5007 0.000200948L88.4064 0.331364C92.5593 0.35232 96.5341 2.0207 99.4579 4.97008C102.382 7.91947 104.015 11.9087 104 16.0616L103.237 196.33C103.228 198.388 102.814 200.424 102.019 202.323C101.224 204.221 100.062 205.944 98.6006 207.393C97.1392 208.842 95.4067 209.99 93.5019 210.77C91.5972 211.549 89.5575 211.946 87.4993 211.938Z" fill="#455A64"/>
</svg>
