<svg width="12" height="12" viewBox="0 0 12 12" fill="none" xmlns="http://www.w3.org/2000/svg">
<path fill-rule="evenodd" clip-rule="evenodd" d="M6.0005 0C4.371 0 4.1665 0.00712501 3.5265 0.03625C2.88775 0.0655001 2.45175 0.166625 2.07025 0.315C1.67563 0.46825 1.34088 0.673251 1.00738 1.00688C0.673626 1.34038 0.468625 1.67513 0.314875 2.06963C0.166125 2.45125 0.0648751 2.88738 0.036125 3.52588C0.00750001 4.16588 0 4.3705 0 6C0 7.62951 0.00725001 7.83338 0.03625 8.47338C0.0656251 9.11213 0.16675 9.54813 0.315 9.92963C0.468375 10.3243 0.673376 10.659 1.007 10.9925C1.34038 11.3263 1.67513 11.5318 2.0695 11.685C2.45125 11.8334 2.88738 11.9345 3.526 11.9638C4.166 11.9929 4.37038 12 5.99976 12C7.62938 12 7.83326 11.9929 8.47326 11.9638C9.11201 11.9345 9.54851 11.8334 9.93026 11.685C10.3248 11.5318 10.659 11.3263 10.9924 10.9925C11.3261 10.659 11.5311 10.3243 11.6849 9.92976C11.8324 9.54813 11.9336 9.11201 11.9636 8.47351C11.9924 7.83351 11.9999 7.62951 11.9999 6C11.9999 4.3705 11.9924 4.166 11.9636 3.526C11.9336 2.88725 11.8324 2.45125 11.6849 2.06975C11.5311 1.67513 11.3261 1.34038 10.9924 1.00688C10.6586 0.673126 10.3249 0.468125 9.92988 0.315C9.54738 0.166625 9.11113 0.0655001 8.47238 0.03625C7.83238 0.00712501 7.62863 0 5.99863 0H6.0005ZM5.46223 1.08123C5.62198 1.08098 5.80023 1.08123 6.00048 1.08123C7.60248 1.08123 7.79236 1.08698 8.42498 1.11573C9.00998 1.14248 9.32748 1.24023 9.53898 1.32236C9.81898 1.43111 10.0186 1.56111 10.2285 1.77111C10.4385 1.98111 10.5685 2.18111 10.6775 2.46111C10.7596 2.67236 10.8575 2.98986 10.8841 3.57486C10.9129 4.20736 10.9191 4.39736 10.9191 5.99861C10.9191 7.59987 10.9129 7.78986 10.8841 8.42237C10.8574 9.00737 10.7596 9.32487 10.6775 9.53612C10.5687 9.81612 10.4385 10.0155 10.2285 10.2254C10.0185 10.4354 9.81911 10.5654 9.53898 10.6741C9.32773 10.7566 9.00998 10.8541 8.42498 10.8809C7.79248 10.9096 7.60248 10.9159 6.00048 10.9159C4.39835 10.9159 4.20848 10.9096 3.57598 10.8809C2.99098 10.8539 2.67348 10.7561 2.46185 10.674C2.18185 10.5652 1.98185 10.4352 1.77185 10.2252C1.56185 10.0152 1.43185 9.81574 1.32285 9.53562C1.24073 9.32437 1.14285 9.00687 1.11623 8.42187C1.08748 7.78937 1.08173 7.59936 1.08173 5.99711C1.08173 4.39486 1.08748 4.20586 1.11623 3.57336C1.14298 2.98836 1.24073 2.67086 1.32285 2.45936C1.4316 2.17936 1.56185 1.97936 1.77185 1.76936C1.98185 1.55936 2.18185 1.42936 2.46185 1.32036C2.67335 1.23786 2.99098 1.14036 3.57598 1.11348C4.12948 1.08848 4.34398 1.08098 5.46223 1.07973V1.08123ZM9.20324 2.07749C8.80574 2.07749 8.48324 2.39961 8.48324 2.79724C8.48324 3.19474 8.80574 3.51724 9.20324 3.51724C9.60074 3.51724 9.92324 3.19474 9.92324 2.79724C9.92324 2.39974 9.60074 2.07749 9.20324 2.07749ZM6.00052 2.91874C4.29889 2.91874 2.91926 4.29836 2.91926 5.99999C2.91926 7.70161 4.29889 9.08062 6.00052 9.08062C7.70214 9.08062 9.08127 7.70161 9.08127 5.99999C9.08127 4.29836 7.70214 2.91874 6.00052 2.91874ZM6.00049 3.99999C7.10499 3.99999 8.00049 4.89536 8.00049 5.99999C8.00049 7.10449 7.10499 7.99999 6.00049 7.99999C4.89587 7.99999 4.00049 7.10449 4.00049 5.99999C4.00049 4.89536 4.89587 3.99999 6.00049 3.99999Z" fill="white"/>
</svg>
