<svg width="37" height="12" viewBox="0 0 37 12" fill="none" xmlns="http://www.w3.org/2000/svg">
<path d="M37 0C36.884 0.066562 36.7599 0.117683 36.6307 0.152078L35.5588 0.514185L31.5974 1.79605C28.2515 2.88237 23.6311 4.43219 18.5616 6.14133C13.4921 7.85047 8.84986 9.37131 5.48227 10.3852C3.8021 10.8994 2.43334 11.2905 1.48463 11.5512L0.391059 11.8336C0.263905 11.874 0.13282 11.9007 0 11.9133C0.115968 11.8467 0.24012 11.7956 0.369333 11.7612L1.44118 11.3991L5.40262 10.1172C8.74848 9.03093 13.369 7.48111 18.4384 5.77197C23.5079 4.06283 28.1429 2.54197 31.5105 1.52808C33.1979 1.01389 34.5594 0.622823 35.5154 0.362106L36.6089 0.0796528C36.7361 0.0392658 36.8672 0.0125709 37 0Z" fill="#263238"/>
</svg>
