<svg width="104" height="201" viewBox="0 0 104 201" fill="none" xmlns="http://www.w3.org/2000/svg">
<path d="M35.1553 197.629V191.456L24.0867 191.376L23.9928 200.712L24.6788 200.762C27.7329 200.957 40.2167 201.246 42.2673 200.611C44.5488 199.903 35.1553 197.629 35.1553 197.629Z" fill="#4CAF4F"/>
<path d="M42.5272 200.033C42.5272 200.134 38.3827 200.221 33.278 200.221C28.1733 200.221 24.0289 200.134 24.0289 200.033C24.0289 199.932 28.1733 199.845 33.278 199.845C38.3827 199.845 42.5272 199.932 42.5272 200.033Z" fill="#263238"/>
<path d="M35.3503 198.892C35.2564 198.842 35.3503 198.517 35.5741 198.17C35.7979 197.824 36.1012 197.679 36.1734 197.752C36.2456 197.824 36.0939 198.098 35.8773 198.394C35.6607 198.69 35.4441 198.943 35.3503 198.892Z" fill="#263238"/>
<path d="M36.0579 199.297C35.9568 199.297 36.0073 198.892 36.2239 198.51C36.4405 198.127 36.7293 197.896 36.8088 197.954C36.8882 198.011 36.7582 198.336 36.556 198.676C36.3539 199.015 36.1517 199.333 36.0579 199.297Z" fill="#263238"/>
<path d="M27.3647 200.004C27.3214 200.004 27.1553 199.874 26.9171 199.6C26.6262 199.247 26.3022 198.923 25.9495 198.632C25.6027 198.355 25.1896 198.174 24.751 198.105C24.4116 198.062 24.195 198.105 24.1734 198.062C24.1517 198.019 24.3611 197.867 24.7582 197.838C25.2823 197.827 25.7935 198.001 26.2023 198.329C26.5852 198.641 26.9082 199.02 27.1553 199.448C27.3214 199.766 27.408 199.975 27.3647 200.004Z" fill="#263238"/>
<path d="M35.3863 197.73C35.4369 197.817 35.2491 198.033 34.9314 198.149C34.6138 198.264 34.3322 198.221 34.3177 198.149C34.3033 198.076 34.5271 197.925 34.8015 197.824C35.0759 197.723 35.3286 197.643 35.3863 197.73Z" fill="#263238"/>
<path d="M35.2131 197.131C35.2131 197.239 34.9243 197.326 34.5488 197.333C34.1734 197.34 33.8773 197.253 33.8845 197.152C33.8918 197.051 34.1878 196.957 34.5488 196.95C34.9098 196.943 35.1986 197.029 35.2131 197.131Z" fill="#263238"/>
<path d="M62.4117 197.629V191.456L51.3431 191.376L51.2492 200.618L51.9352 200.669C54.9893 200.863 67.4803 201.246 69.5236 200.611C71.8052 199.903 62.4117 197.629 62.4117 197.629Z" fill="#4CAF4F"/>
<path d="M69.7836 200.048C69.7836 200.149 65.6464 200.235 60.5344 200.235C55.4225 200.235 51.2925 200.149 51.2925 200.048C51.2925 199.946 55.4297 199.86 60.5344 199.86C65.6391 199.86 69.7836 199.946 69.7836 200.048Z" fill="#263238"/>
<path d="M62.6066 198.892C62.52 198.842 62.6066 198.517 62.8304 198.17C63.0543 197.824 63.3575 197.679 63.4297 197.752C63.5019 197.824 63.3503 198.098 63.1337 198.394C62.9171 198.69 62.7005 198.943 62.6066 198.892Z" fill="#263238"/>
<path d="M63.3142 199.297C63.2203 199.297 63.2637 198.892 63.4875 198.51C63.7113 198.127 63.9929 197.896 64.0723 197.954C64.1518 198.011 64.0146 198.336 63.8124 198.676C63.6102 199.015 63.4153 199.333 63.3142 199.297Z" fill="#263238"/>
<path d="M54.621 200.004C54.5777 200.004 54.4189 199.874 54.1734 199.6C53.8825 199.247 53.5585 198.923 53.2059 198.632C52.8591 198.355 52.4459 198.174 52.0073 198.105C51.6752 198.062 51.4514 198.105 51.4297 198.062C51.408 198.019 51.6174 197.867 52.0145 197.838C52.5386 197.827 53.0499 198.001 53.4586 198.329C53.8435 198.639 54.1668 199.019 54.4117 199.448C54.5777 199.766 54.6644 199.975 54.621 200.004Z" fill="#263238"/>
<path d="M62.6428 197.73C62.6933 197.817 62.5056 198.033 62.1879 198.149C61.8702 198.264 61.5886 198.221 61.5742 198.149C61.5597 198.076 61.7836 197.925 62.0579 197.824C62.3323 197.723 62.585 197.643 62.6428 197.73Z" fill="#263238"/>
<path d="M62.4839 197.131C62.4839 197.239 62.1951 197.326 61.8197 197.333C61.4442 197.34 61.1554 197.253 61.1626 197.152C61.1698 197.051 61.4587 196.957 61.8197 196.95C62.1807 196.943 62.4839 197.029 62.4839 197.131Z" fill="#263238"/>
<path d="M103.192 14.3071C102.903 14.011 102.188 14.1554 102.188 14.1554C102.26 13.7397 102.26 13.3148 102.188 12.8991C102.058 12.4948 101.148 12.5742 101.148 12.5742C101.106 12.2337 101.106 11.8894 101.148 11.5489C101.155 11.4735 101.139 11.3976 101.102 11.3317C101.064 11.2658 101.007 11.2131 100.939 11.1807C100.508 11.0052 100.046 10.9216 99.5814 10.9352C99.0255 10.5381 101.278 7.38286 102.116 6.37203C102.953 5.3612 102.802 4.5742 102.058 4.5742C101.545 4.5742 98.9172 7.6067 98.1085 8.62475C97.2998 9.6428 95.1554 12.4731 95.0832 10.2132C95.011 7.95326 94.1013 6.24929 93.5309 5.96048C92.9605 5.67167 92.354 6.35036 92.6645 6.97852C92.9372 7.69218 93.1074 8.44091 93.1699 9.20236C93.2483 9.80891 93.2214 10.4244 93.0905 11.0219C92.8511 12.1334 92.5252 13.2246 92.1157 14.2854H92.058C92.058 14.2854 76.3034 29.3974 75.1626 30.4732C74.1446 31.4407 53.668 29.3251 49.5597 28.8919C48.1636 28.6876 46.7539 28.5911 45.343 28.6031C43.5597 28.6826 43.242 28.9353 41.4658 28.9569C36.9802 29.0067 32.505 29.4002 28.0795 30.1338C26.0756 30.4745 24.2038 31.359 22.6683 32.6908C21.1327 34.0226 19.9924 35.7506 19.3719 37.6862C15.2347 50.6104 5.86282 81.2025 4.20938 98.3867C2.95996 100.652 1.83202 102.983 0.830321 105.369C-0.332137 108.531 -0.050548 108.639 0.339345 108.712C1.3935 108.907 2.59206 103.231 3.03971 104.603C3.48736 105.975 0.76534 111.369 1.87004 111.527C3.31408 111.73 4.4621 105.751 4.59928 105.275C4.73647 104.798 5.45127 104.95 5.32131 105.398C5.11192 106.033 3.08303 112.769 4.4982 112.986C5.27799 113.101 5.36463 111.679 5.36463 111.679C5.36463 111.679 6.80867 105.231 7.46572 105.361C8.12276 105.491 7.42239 109.296 7.09026 110.567C6.75813 111.838 7.22022 112.481 7.89892 112.17C8.36102 111.953 9.46572 108.091 9.76897 106.834C10.0722 105.578 10.8303 102.098 11.8484 104.112C12.8664 106.127 14.4116 107.296 15.047 107.325C15.1901 107.309 15.3251 107.25 15.4345 107.156C15.5438 107.062 15.6226 106.938 15.6607 106.799C15.6987 106.66 15.6943 106.512 15.648 106.376C15.6017 106.24 15.5155 106.12 15.4007 106.033C14.8542 105.499 14.3852 104.892 14.0072 104.228C13.6704 103.711 13.4261 103.139 13.2852 102.538C12.9943 101.341 12.8249 100.117 12.7798 98.8849L12.6643 98.1628C14.2816 90.1556 18.9387 66.6537 25.6607 51.6429L28.4188 57.318L29.6174 61.5202L22.2672 79.6646L53.6174 79.2531L48.9387 61.2458L54.6211 42.4732C60.7655 42.6104 76.5417 42.8414 79.1698 41.6501C82.4767 40.206 99.5814 18.6031 99.5814 18.6031C100.696 17.7367 101.764 16.8112 102.78 15.8305C102.78 15.8305 103.82 14.9569 103.192 14.3071Z" fill="#FFBE9D"/>
<path d="M20.8881 66.2567C21.7979 63.152 26.4694 47.8018 26.4694 47.8018C26.4694 47.8018 28.7654 60.3144 28.1589 61.8235C27.601 63.1153 26.9419 64.3611 26.1878 65.5491C20.8881 73.6141 21.5813 77.6502 21.5813 77.6502L53.603 76.6755C53.6752 72.1989 51.0254 61.7874 50.4767 60.1267C49.9279 58.4661 51.7546 53.0292 51.7546 53.0292C51.7546 53.0292 55.3648 49.3541 55.2348 47.4624C55.1662 45.7632 54.9561 44.0726 54.6066 42.4083L74.1013 43.1303L73.4875 29.9173L45.4875 27.1158C44.5128 29.8667 35.6968 28.5165 35.6968 28.5165C26.1806 28.8342 25.5885 30.5815 21.6318 33.6573C17.6751 36.7332 11.1264 63.1303 11.1264 63.1303L20.8881 66.2567Z" fill="#4CAF4F"/>
<path d="M39.8196 63.1303C39.2647 63.2295 38.6995 63.2586 38.1373 63.2169C37.0903 63.2169 35.6535 63.1447 34.0723 62.9859C32.4911 62.827 31.0615 62.6032 30.0434 62.4011C29.4821 62.3288 28.9316 62.1881 28.4044 61.9823C28.9689 61.9825 29.5322 62.0357 30.0867 62.1411C31.112 62.2711 32.5344 62.4516 34.1084 62.6104C35.6824 62.7693 37.112 62.8776 38.1445 62.9498C38.7073 62.9569 39.2682 63.0174 39.8196 63.1303Z" fill="#263238"/>
<path d="M42.0145 60.4083C41.4594 60.6802 40.8724 60.8815 40.2672 61.0075C37.3866 61.7645 34.4147 62.1168 31.4369 62.0545C30.8207 62.0745 30.2045 62.0163 29.603 61.8812C30.2111 61.8044 30.8241 61.773 31.4369 61.7873C32.5705 61.7512 34.13 61.6718 35.8485 61.4696C37.5669 61.2675 39.0976 60.9787 40.1806 60.7476C40.7822 60.587 41.3953 60.4735 42.0145 60.4083Z" fill="#263238"/>
<path d="M52.7871 48.2638C52.7725 48.8143 52.6974 49.3615 52.5633 49.8956C52.3755 50.8992 52.0867 52.2711 51.7185 53.7729C51.3503 55.2747 50.9965 56.661 50.6788 57.5996C50.551 58.1369 50.3621 58.6577 50.1156 59.1519C50.1558 58.6032 50.2576 58.0607 50.4189 57.5346C50.6932 56.4083 51.0037 55.1086 51.3503 53.6862C51.6968 52.2638 52.029 50.9642 52.3033 49.8378C52.4011 49.2957 52.5635 48.7673 52.7871 48.2638Z" fill="#263238"/>
<path d="M21.2275 64.4155C19.5571 64.1576 17.9086 63.7738 16.2961 63.2675C14.6483 62.8822 13.0314 62.3754 11.4585 61.7512C13.1281 62.0134 14.7763 62.3971 16.3899 62.8992C18.0381 63.2832 19.6551 63.79 21.2275 64.4155Z" fill="#263238"/>
<path d="M54.9532 42.2494C54.6808 42.2963 54.4024 42.2963 54.1301 42.2494C53.3759 42.172 52.6354 41.9948 51.9279 41.7223C50.7468 41.2785 49.6715 40.5925 48.7713 39.7084C47.871 38.8243 47.1656 37.7616 46.7005 36.5887C46.1863 35.2985 45.9668 33.9097 46.0579 32.5237C46.0901 31.3806 46.4319 30.2676 47.047 29.3035C47.4797 28.654 48.1259 28.1764 48.8738 27.9533C49.0736 27.8982 49.2802 27.8714 49.4875 27.8739C49.6319 27.8739 49.7041 27.8739 49.7041 27.8739C49.7041 27.8739 49.4008 27.8739 48.9171 28.0688C48.231 28.3223 47.6491 28.7975 47.2636 29.419C46.2817 30.9641 46.0073 33.7873 47.0543 36.4227C47.5415 37.6653 48.3044 38.7811 49.2853 39.6862C50.0891 40.4268 51.0149 41.0228 52.0218 41.4479C52.9667 41.8214 53.9497 42.0901 54.9532 42.2494Z" fill="#263238"/>
<path d="M71.7836 42.8703C71.6029 40.6562 71.5451 38.4338 71.6103 36.2133C71.5537 33.9946 71.6212 31.7746 71.8124 29.5635C71.9932 31.7752 72.051 33.9952 71.9857 36.2133C72.0464 38.4343 71.9789 40.6571 71.7836 42.8703Z" fill="#263238"/>
<path d="M45.2997 27.9244C45.3791 26.3143 45.5452 24.4948 45.5452 24.4948C45.5452 24.4948 49.5308 24.0544 49.769 19.9389C50.0073 15.8233 49.769 6.32873 49.769 6.32873L42.5488 2.63198L34.5344 8.93524L35.769 29.5129L43.1192 29.9822C43.681 29.9978 44.2261 29.7899 44.6349 29.4041C45.0436 29.0184 45.2827 28.4862 45.2997 27.9244Z" fill="#FFBE9D"/>
<path d="M46.0145 16.6825C46.0145 16.6825 46.0145 16.762 45.9495 16.8558C45.8958 16.9239 45.8263 16.9779 45.7471 17.0131C45.6678 17.0483 45.5812 17.0637 45.4947 17.058C45.0326 17.058 44.5849 16.5237 44.4261 15.9028C44.3506 15.6018 44.3506 15.2868 44.4261 14.9858C44.4409 14.8544 44.4883 14.7288 44.5639 14.6204C44.6396 14.5119 44.7411 14.4241 44.8593 14.3649C44.9564 14.3247 45.0654 14.3247 45.1625 14.3649C45.2345 14.4006 45.2928 14.4589 45.3286 14.5309C45.3791 14.6537 45.3286 14.7331 45.3286 14.7259C45.3286 14.7186 45.3286 14.6537 45.2564 14.5815C45.2186 14.5297 45.1631 14.4938 45.1005 14.4805C45.0379 14.4671 44.9726 14.4774 44.917 14.5093C44.8285 14.5628 44.7549 14.6379 44.7031 14.7275C44.6514 14.8171 44.6231 14.9184 44.621 15.0219C44.5602 15.2905 44.5602 15.5692 44.621 15.8378C44.7654 16.401 45.1553 16.8558 45.5019 16.8991C45.5697 16.9083 45.6387 16.9035 45.7045 16.8848C45.7703 16.8662 45.8316 16.8342 45.8845 16.7908C45.9712 16.7331 46.0001 16.6753 46.0145 16.6825Z" fill="#EB996E"/>
<path d="M52.2456 4.10491C51.6897 2.21321 49.6752 1.27458 47.8413 0.754724C45.047 -0.0395017 42.029 -0.386075 39.2997 0.617538C36.5705 1.62115 33.2925 3.38289 33.2925 6.39372C31.6824 6.26376 30.7582 7.67171 30.1228 9.419C29.7166 10.4835 29.4732 11.6032 29.4008 12.7403C29.1986 16.6826 28.0939 22.1266 25.538 25.0147C24.0939 26.6248 22.0939 27.7367 21.2708 29.744C20.5488 31.484 20.9242 33.549 20.2528 35.3108C19.6535 36.8631 18.3322 37.9678 17.3647 39.318C16.379 40.8497 15.7989 42.6068 15.6789 44.4243C15.5589 46.2418 15.903 48.0599 16.6787 49.7079C17.4601 51.3136 18.5602 52.7435 19.912 53.9103C21.2638 55.0771 22.8389 55.9565 24.5416 56.4949C27.9142 57.521 31.5106 57.5561 34.9026 56.596C37.4483 55.9873 39.823 54.8098 41.8485 53.152C43.9209 51.4596 45.3443 49.1025 45.8774 46.4805C46.39 43.5346 45.5669 40.5382 44.9532 37.6068C43.0326 28.3432 43.5813 27.8595 46.0073 19.2602C46.0651 19.1086 46.094 18.9497 46.1373 18.7981C46.1806 18.6465 46.2023 18.5743 46.2312 18.4587C46.3001 18.1188 46.3363 17.7731 46.3395 17.4262C45.9851 17.558 45.6005 17.5859 45.2309 17.5066C44.8612 17.4273 44.5219 17.2441 44.2528 16.9786C43.9831 16.6955 43.795 16.3446 43.7086 15.9633C43.6221 15.5819 43.6405 15.1843 43.7618 14.8125C43.9322 14.4059 44.186 14.0397 44.5069 13.7374C44.8278 13.4352 45.2086 13.2037 45.6247 13.058C46.4261 12.7259 47.2853 12.5526 48.0723 12.1844C49.7402 11.3901 50.8954 9.74391 51.6824 8.01828C52.3295 6.82227 52.5292 5.43484 52.2456 4.10491Z" fill="#263238"/>
<path d="M46.3033 16.8775C46.4559 17.1029 46.5819 17.3452 46.6788 17.5995C46.8954 18.0544 47.1842 18.697 47.5019 19.4407L47.5596 19.5779H47.408L46.686 19.6429C46.1878 19.6429 45.769 19.7367 45.2781 19.7295C45.2353 19.7199 45.1957 19.6996 45.1629 19.6706C45.13 19.6416 45.1051 19.6047 45.0903 19.5634C45.0688 19.4978 45.0688 19.427 45.0903 19.3613C45.107 19.264 45.1287 19.1676 45.1553 19.0725L45.2853 18.5598C45.3506 18.2179 45.4522 17.8838 45.5885 17.5634C45.5751 17.912 45.5242 18.2582 45.4369 18.5959L45.3358 19.1086C45.2997 19.2819 45.2347 19.549 45.3358 19.5273C45.6968 19.5273 46.2095 19.4479 46.686 19.419L47.408 19.3541L47.3142 19.5129C47.0037 18.7909 46.7438 18.1122 46.5921 17.6429C46.4591 17.4032 46.3618 17.1453 46.3033 16.8775Z" fill="#4CAF4F"/>
<path d="M21.5813 77.6502L53.603 76.6754L67.5381 131.073L64.9749 193.47H48.0434L50.1156 132.401L37.7329 94.5311L39.6391 195.889L22.5271 196.141L20.7293 100.87C20.6499 98.2206 19.7834 92.2495 20.1083 89.6213L21.5813 77.6502Z" fill="#263238"/>
<path d="M41.9929 95.3037C41.4687 95.3367 40.9425 95.3052 40.4261 95.2098C39.4586 95.0943 38.1373 94.8921 36.686 94.6033C35.2347 94.3145 33.9351 93.9824 32.9965 93.7152C32.4947 93.605 32.0093 93.4302 31.5524 93.1954C31.5524 93.0871 33.9062 93.6503 36.7943 94.2351C39.6824 94.8199 42.0073 95.1954 41.9929 95.3037Z" fill="#455A64"/>
<path d="M64.8016 190.048C64.8016 190.149 60.9676 190.235 56.2384 190.235C51.5091 190.235 47.668 190.149 47.668 190.048C47.668 189.946 51.5019 189.86 56.2384 189.86C60.9749 189.86 64.8016 189.939 64.8016 190.048Z" fill="#455A64"/>
<path d="M39.4875 193.253C39.4875 193.362 35.7618 193.441 31.1698 193.441C26.5777 193.441 22.8593 193.362 22.8593 193.253C22.8593 193.145 26.5849 193.066 31.1698 193.066C35.7546 193.066 39.4875 193.152 39.4875 193.253Z" fill="#455A64"/>
<path d="M37.2781 192.993C37.177 192.993 36.7293 170.849 36.2745 143.535C35.8196 116.221 35.5525 94.0618 35.6463 94.0618C35.7402 94.0618 36.2023 116.199 36.6499 143.528C37.0976 170.856 37.3864 192.993 37.2781 192.993Z" fill="#455A64"/>
<path d="M62.5272 190.048C62.5193 189.949 62.5193 189.85 62.5272 189.752V188.885C62.5272 188.105 62.585 186.986 62.6283 185.564C62.7294 182.676 62.8738 178.481 63.0543 173.34C63.4442 163.001 63.9929 148.748 64.5922 133.015C64.5922 132.863 64.5922 132.719 64.5922 132.589V132.639C60.8016 117.477 57.372 103.715 54.881 93.7585L51.9929 81.9823C51.6608 80.6033 51.4081 79.5275 51.2276 78.7765C51.1409 78.4228 51.0832 78.1484 51.0326 77.939C51.0045 77.845 50.9875 77.7481 50.9821 77.6502C51.0196 77.7412 51.0486 77.8354 51.0687 77.9318C51.1265 78.1339 51.1987 78.4083 51.2998 78.7549C51.4947 79.4769 51.7763 80.5744 52.1373 81.9462C52.8593 84.7332 53.8774 88.7477 55.1482 93.6936C57.6608 103.643 61.1265 117.369 64.9677 132.553V132.603C64.9677 132.733 64.9677 132.885 64.9677 133.029C64.3251 148.762 63.7402 163.008 63.3142 173.347C63.0904 178.495 62.9027 182.661 62.7727 185.564C62.7005 187.008 62.6428 188.105 62.6067 188.885C62.6067 189.253 62.5633 189.542 62.5561 189.752C62.5572 189.851 62.5475 189.95 62.5272 190.048Z" fill="#455A64"/>
<path d="M57.0037 131.318C55.7876 131.718 54.5347 131.996 53.2636 132.148C51.7041 132.416 50.3756 132.603 49.7763 132.632V132.488C49.9712 132.546 50.0723 132.582 50.0723 132.611C50.0723 132.639 49.9496 132.611 49.7474 132.611H49.3142L49.7474 132.481C50.3106 132.315 51.6391 132.04 53.1987 131.759C54.4495 131.487 55.724 131.34 57.0037 131.318Z" fill="#455A64"/>
<path d="M56.7077 133.39C55.5815 133.442 54.4529 133.391 53.3359 133.239C52.208 133.216 51.0845 133.092 49.9785 132.871C52.2349 132.686 54.5063 132.862 56.7077 133.39Z" fill="#455A64"/>
<path opacity="0.2" d="M21.4441 78.7982C21.8234 79.2852 22.301 79.6867 22.8459 79.9766C23.3909 80.2664 23.9908 80.4382 24.6066 80.4805C25.8962 80.6333 27.2008 80.609 28.4838 80.4083C36.751 79.4913 45.5092 78.6466 53.603 76.6754C43.1265 77.2603 32.0579 77.0653 21.5813 77.6502L21.473 78.5455" fill="black"/>
<g opacity="0.2">
<path d="M32.2383 93.5636L38.1445 116.481L37.7329 94.5311L32.2383 93.5636Z" fill="black"/>
</g>
</svg>
