<svg width="12" height="12" viewBox="0 0 12 12" fill="none" xmlns="http://www.w3.org/2000/svg">
<path fill-rule="evenodd" clip-rule="evenodd" d="M12 5.99169C12 6.39745 11.9587 6.80266 11.8776 7.19764C11.7984 7.58324 11.6813 7.96181 11.5277 8.3237C11.3777 8.67919 11.1917 9.02176 10.9743 9.34122C10.7601 9.65868 10.5134 9.9565 10.2424 10.228C9.97082 10.4983 9.67198 10.7443 9.35468 10.9594C9.03416 11.1753 8.6911 11.3611 8.3354 11.5118C7.97298 11.6645 7.59354 11.7815 7.20828 11.8605C6.81277 11.9418 6.40609 11.9833 5.99973 11.9833C5.59307 11.9833 5.18641 11.9418 4.79147 11.8605C4.40562 11.7815 4.0262 11.6645 3.66407 11.5118C3.3084 11.3611 2.965 11.1753 2.64449 10.9594C2.32719 10.7444 2.02834 10.4983 1.75733 10.228C1.48604 9.9565 1.23933 9.65868 1.02487 9.34122C0.808646 9.02176 0.622296 8.67916 0.471712 8.3237C0.31817 7.96181 0.2007 7.58322 0.121298 7.19764C0.0410276 6.80266 0 6.39745 0 5.99169C0 5.58561 0.0410042 5.17954 0.121322 4.78543C0.200723 4.39983 0.318193 4.02068 0.471736 3.65937C0.622319 3.30362 0.80867 2.96075 1.02489 2.64126C1.23935 2.32355 1.48606 2.02628 1.75735 1.75449C2.02837 1.48415 2.32721 1.23871 2.64451 1.02398C2.96503 0.807174 3.30842 0.621421 3.66409 0.470445C4.02623 0.317406 4.40562 0.200105 4.7915 0.121709C5.18644 0.0409684 5.5931 0 5.99976 0C6.40611 0 6.81277 0.0409684 7.2083 0.121709C7.59357 0.200129 7.97298 0.317429 8.33542 0.470445C8.6911 0.621398 9.03418 0.807174 9.3547 1.02398C9.672 1.23871 9.97087 1.48415 10.2424 1.75449C10.5135 2.02628 10.7602 2.32355 10.9743 2.64126C11.1917 2.96075 11.3777 3.30365 11.5277 3.65937C11.6813 4.02068 11.7984 4.39983 11.8776 4.78543C11.9587 5.17954 12 5.58561 12 5.99169ZM3.81346 1.36363C2.38456 2.03741 1.3181 3.35218 0.98556 4.9367C1.12064 4.93787 3.25591 4.96479 5.71609 4.31206C4.82924 2.73866 3.88173 1.45464 3.81346 1.36363ZM6.14062 5.09997C3.50231 5.88868 0.970622 5.83193 0.879807 5.82844C0.878327 5.88343 0.875697 5.93666 0.875697 5.99168C0.875697 7.30614 1.3723 8.50447 2.18856 9.41056C2.1868 9.40791 3.58904 6.92378 6.35421 6.03089C6.421 6.00866 6.48899 5.98875 6.55637 5.96945C6.42777 5.67866 6.2874 5.38726 6.14062 5.09997ZM9.38369 2.15151C8.48157 1.35718 7.29705 0.875365 5.99972 0.875365C5.58338 0.875365 5.17935 0.92569 4.79233 1.01872C4.86907 1.12171 5.83154 2.39668 6.70785 4.00341C8.64127 3.27963 9.37108 2.17022 9.38369 2.15151ZM6.90565 6.81729C6.89423 6.82107 6.88282 6.82433 6.87166 6.82841C3.84841 7.88084 2.86113 10.0018 2.85044 10.0249C3.72033 10.7005 4.81141 11.108 5.99975 11.108C6.70934 11.108 7.38525 10.9637 8.00022 10.7025C7.92434 10.2555 7.62667 8.68852 6.90565 6.81729ZM8.86305 10.235C10.0136 9.45972 10.8307 8.22863 11.0587 6.80263C10.9532 6.7687 9.51961 6.31552 7.86571 6.5803C8.53781 8.42463 8.81089 9.92665 8.86305 10.235ZM7.10225 4.76584C7.22117 5.00984 7.33634 5.25819 7.44268 5.50777C7.48049 5.59731 7.51741 5.68508 7.55344 5.77284C9.31368 5.55165 11.0479 5.92379 11.122 5.93899C11.1103 4.72604 10.6758 3.61284 9.9568 2.74131C9.94713 2.75503 9.12531 3.9408 7.10225 4.76584Z" fill="white"/>
</svg>
