<svg width="11" height="9" viewBox="0 0 11 9" fill="none" xmlns="http://www.w3.org/2000/svg">
<path fill-rule="evenodd" clip-rule="evenodd" d="M5.28808 2.39415L5.31168 2.78342L4.91823 2.73576C3.48604 2.55304 2.23484 1.93337 1.1725 0.892652L0.65314 0.376265L0.519365 0.757597C0.236075 1.60765 0.417066 2.50537 1.00725 3.10914C1.32202 3.44281 1.2512 3.49048 0.708224 3.29187C0.519365 3.22831 0.354112 3.18064 0.338374 3.20448C0.28329 3.26009 0.47215 3.98303 0.621664 4.26903C0.826262 4.66625 1.24333 5.05553 1.69974 5.28591L2.08533 5.46863L1.62892 5.47658C1.18824 5.47658 1.1725 5.48452 1.21972 5.65136C1.3771 6.16774 1.99877 6.71591 2.69125 6.95424L3.17914 7.12107L2.75421 7.37529C2.12467 7.74074 1.38497 7.94729 0.645271 7.96318C0.291159 7.97113 0 8.0029 0 8.02674C0 8.10618 0.960038 8.55107 1.51875 8.72585C3.19488 9.24223 5.18578 9.01979 6.68092 8.13796C7.74325 7.51035 8.80559 6.26308 9.30135 5.05553C9.5689 4.41203 9.83645 3.23625 9.83645 2.6722C9.83645 2.30676 9.86006 2.25909 10.3007 1.82215C10.5604 1.56793 10.8044 1.28987 10.8516 1.21043C10.9303 1.05948 10.9224 1.05949 10.5211 1.19454C9.85219 1.43287 9.75776 1.40109 10.0883 1.0436C10.3322 0.789375 10.6234 0.328599 10.6234 0.193544C10.6234 0.169711 10.5053 0.209433 10.3716 0.280932C10.2299 0.360377 9.91514 0.479543 9.67907 0.551042L9.25413 0.686098L8.86855 0.423932C8.65608 0.280932 8.35705 0.122044 8.19967 0.0743776C7.79834 -0.0368442 7.18454 -0.0209554 6.82256 0.106155C5.83892 0.463654 5.21725 1.38521 5.28808 2.39415Z" fill="white"/>
</svg>
