<svg width="34" height="34" viewBox="0 0 34 34" fill="none" xmlns="http://www.w3.org/2000/svg">
<path d="M3.89575 11.6875V12.0417H4.24992H29.7499H30.1041V11.6875V10.0937C30.1041 9.29533 29.7869 8.52961 29.2223 7.96505C28.6578 7.40049 27.8921 7.08332 27.0936 7.08332H6.90617C6.10776 7.08332 5.34204 7.40049 4.77748 7.96505C4.21292 8.52961 3.89575 9.29533 3.89575 10.0937V11.6875ZM30.1041 13.8125V13.4583H29.7499H4.24992H3.89575V13.8125V23.9062C3.89575 24.7046 4.21292 25.4703 4.77748 26.0349C5.34205 26.5995 6.10776 26.9166 6.90617 26.9166H27.0936C27.8921 26.9166 28.6578 26.5995 29.2223 26.0349C29.7869 25.4703 30.1041 24.7046 30.1041 23.9062V13.8125ZM2.47909 10.0937C2.47909 8.9196 2.94551 7.79356 3.77575 6.96332C4.60599 6.13308 5.73203 5.66666 6.90617 5.66666H27.0936C28.2678 5.66666 29.3938 6.13308 30.2241 6.96332C31.0543 7.79356 31.5207 8.9196 31.5207 10.0937V23.9062C31.5207 25.0804 31.0543 26.2064 30.2241 27.0366C29.3938 27.8669 28.2678 28.3333 27.0936 28.3333H6.90617C5.73203 28.3333 4.60599 27.8669 3.77575 27.0366C2.94551 26.2064 2.47909 25.0804 2.47909 23.9062V10.0937ZM22.3124 20.5416H25.4999C25.6878 20.5416 25.8679 20.6163 26.0008 20.7491C26.1336 20.8819 26.2082 21.0621 26.2082 21.25C26.2082 21.4378 26.1336 21.618 26.0008 21.7508C25.8679 21.8837 25.6878 21.9583 25.4999 21.9583H22.3124C22.1245 21.9583 21.9444 21.8837 21.8115 21.7508C21.6787 21.618 21.6041 21.4378 21.6041 21.25C21.6041 21.0621 21.6787 20.8819 21.8115 20.7491C21.9444 20.6163 22.1245 20.5416 22.3124 20.5416Z" fill="#4CAF4F" stroke="#4CAF4F" stroke-width="0.696069"/>
</svg>
