<svg width="44" height="102" viewBox="0 0 44 102" fill="none" xmlns="http://www.w3.org/2000/svg">
<path d="M44 0C44 0 43.9348 0.0724648 43.7898 0.202903L43.1449 0.775377C42.5797 1.28264 41.7463 2.02179 40.6956 3.00008C37.7164 5.7662 34.95 8.753 32.42 11.9351C30.804 13.9424 29.13 16.2178 27.3474 18.6889C25.5647 21.16 23.7241 23.8267 21.898 26.6601C19.9511 29.648 18.1682 32.7396 16.5572 35.9212C15.7166 37.5807 14.9775 39.3126 14.2166 41.0808L11.9702 46.4795C9.00905 53.2797 6.43009 60.24 4.24534 67.3278C2.48552 73.1271 1.27246 79.0783 0.622053 85.1037C0.200603 89.1699 0.132715 93.2651 0.41915 97.3431C0.535095 98.7924 0.643803 99.9011 0.745255 100.655C0.788734 101.017 0.817709 101.307 0.846695 101.517V101.814C0.815508 101.72 0.793666 101.623 0.781479 101.524C0.745246 101.314 0.701765 101.032 0.643792 100.669C0.513354 99.9446 0.375678 98.7997 0.24524 97.3503C-0.10439 93.2648 -0.0801301 89.1558 0.31771 85.0747C0.927757 79.0236 2.11432 73.0446 3.86127 67.2191C6.02768 60.1114 8.59959 53.1335 11.5644 46.32L13.8688 40.9431C14.6297 39.1822 15.3761 37.4357 16.2239 35.769C17.8461 32.5778 19.6435 29.4788 21.6081 26.4862C23.4632 23.5876 25.3328 20.9643 27.0938 18.515C28.8547 16.0656 30.5576 13.7757 32.1663 11.7757C34.7221 8.60198 37.5257 5.63608 40.5506 2.90587C41.6231 1.94208 42.4782 1.21742 43.0579 0.731899L43.7319 0.188407C43.8145 0.116478 43.9043 0.0533388 44 0Z" fill="#263238"/>
</svg>
