<svg width="14" height="36" viewBox="0 0 14 36" fill="none" xmlns="http://www.w3.org/2000/svg">
<path d="M14 35.5247C13.9229 35.4199 13.8597 35.3056 13.8119 35.1846L13.3344 34.1789C12.922 33.3034 12.3649 32.0084 11.6992 30.4239C10.3535 27.2404 8.63877 22.7835 6.81551 17.8347C4.99225 12.8858 3.31369 8.42897 2.0403 5.20933C1.41808 3.64653 0.904396 2.36591 0.520933 1.41087L0.115743 0.376243C0.0595843 0.256928 0.0206291 0.130246 0 0C0.0771381 0.104744 0.140355 0.219049 0.188099 0.340053L0.665623 1.34575C1.07079 2.22121 1.63514 3.5163 2.30078 5.1008C3.64652 8.28427 5.36125 12.7411 7.18451 17.69C9.00777 22.6388 10.6863 27.0957 11.9597 30.3153C12.5819 31.8781 13.0956 33.1587 13.4719 34.1138C13.6383 34.5262 13.7758 34.8373 13.8843 35.1484C13.9404 35.2677 13.9794 35.3944 14 35.5247Z" fill="#263238"/>
</svg>
