<svg width="40" height="4" viewBox="0 0 40 4" fill="none" xmlns="http://www.w3.org/2000/svg">
<g opacity="0.2">
<path d="M2.98714 1.60502C2.96572 1.89705 2.85904 2.17637 2.68034 2.40833C2.50163 2.64029 2.25877 2.81469 1.98186 2.9099C1.70495 3.00511 1.40618 3.01693 1.12261 2.94391C0.839046 2.87088 0.58315 2.71624 0.386668 2.49912C0.190186 2.28201 0.0617675 2.01198 0.0173269 1.72256C-0.0271138 1.43313 0.0143783 1.13703 0.13667 0.870967C0.258962 0.604908 0.456676 0.380607 0.705272 0.225872C0.953868 0.0711376 1.24241 -0.00722065 1.53513 0.000523243C1.9396 0.0230611 2.31888 0.204165 2.59071 0.504529C2.86253 0.804892 3.00497 1.20031 2.98714 1.60502Z" fill="white"/>
<path d="M7.6118 1.62683C7.62608 1.83151 7.59809 2.03692 7.52959 2.23032C7.46108 2.42372 7.35351 2.60096 7.21357 2.75101C7.07364 2.90106 6.90432 3.02071 6.71616 3.10251C6.528 3.18432 6.32502 3.22654 6.11984 3.22654C5.91467 3.22654 5.71168 3.18432 5.52352 3.10251C5.33536 3.02071 5.16605 2.90106 5.02611 2.75101C4.88617 2.60096 4.7786 2.42372 4.7101 2.23032C4.64159 2.03692 4.61361 1.83151 4.6279 1.62683C4.61361 1.42216 4.64159 1.21673 4.7101 1.02333C4.7786 0.829925 4.88617 0.652684 5.02611 0.502637C5.16605 0.35259 5.33536 0.232939 5.52352 0.151131C5.71168 0.0693238 5.91467 0.0271019 6.11984 0.0271019C6.32502 0.0271019 6.528 0.0693238 6.71616 0.151131C6.90432 0.232939 7.07364 0.35259 7.21357 0.502637C7.35351 0.652684 7.46108 0.829925 7.52959 1.02333C7.59809 1.21673 7.62608 1.42216 7.6118 1.62683Z" fill="white"/>
<path d="M12.2437 1.64857C12.2223 1.9406 12.1156 2.21991 11.9369 2.45188C11.7582 2.68384 11.5154 2.85824 11.2385 2.95345C10.9616 3.04865 10.6628 3.06048 10.3792 2.98745C10.0957 2.91443 9.83976 2.75978 9.64327 2.54267C9.44679 2.32556 9.31837 2.05553 9.27393 1.7661C9.22949 1.47668 9.27098 1.18057 9.39328 0.914515C9.51557 0.648456 9.71328 0.424155 9.96188 0.26942C10.2105 0.114686 10.499 0.0363272 10.7917 0.0440711C11.1955 0.0684471 11.5737 0.250084 11.8451 0.550026C12.1166 0.849969 12.2597 1.24435 12.2437 1.64857Z" fill="white"/>
<path d="M16.8685 1.67034C16.847 1.96237 16.7403 2.24169 16.5616 2.47365C16.3829 2.70561 16.1401 2.88001 15.8632 2.97522C15.5863 3.07043 15.2875 3.08225 15.0039 3.00923C14.7203 2.93621 14.4645 2.78156 14.268 2.56445C14.0715 2.34733 13.9431 2.07733 13.8986 1.7879C13.8542 1.49847 13.8957 1.20235 14.018 0.936289C14.1403 0.67023 14.338 0.445929 14.5866 0.291194C14.8352 0.136459 15.1237 0.0581012 15.4164 0.0658451C15.8202 0.0902211 16.1984 0.271858 16.4698 0.5718C16.7413 0.871742 16.8844 1.26612 16.8685 1.67034Z" fill="white"/>
<path d="M21.4931 1.68489C21.4731 1.97736 21.3675 2.25749 21.1896 2.49046C21.0117 2.72344 20.7692 2.89899 20.4923 2.99529C20.2154 3.09159 19.9164 3.10439 19.6323 3.03211C19.3482 2.95983 19.0916 2.80566 18.8944 2.58875C18.6972 2.37183 18.5681 2.10175 18.5231 1.81207C18.4782 1.52238 18.5194 1.22589 18.6415 0.959415C18.7637 0.692938 18.9615 0.468242 19.2103 0.313256C19.4592 0.15827 19.7481 0.07981 20.0411 0.0876634C20.4436 0.112031 20.8206 0.29266 21.0919 0.591026C21.3631 0.889393 21.5071 1.2819 21.4931 1.68489Z" fill="white"/>
<path d="M26.125 1.70666C26.1052 1.99761 26.0007 2.27641 25.8245 2.50877C25.6483 2.74113 25.408 2.91692 25.1331 3.01446C24.8583 3.112 24.5609 3.12707 24.2777 3.0578C23.9944 2.98853 23.7375 2.83794 23.5387 2.62458C23.3399 2.41122 23.2078 2.1444 23.1587 1.85694C23.1095 1.56948 23.1455 1.27393 23.2622 1.00666C23.3789 0.739388 23.5712 0.512046 23.8154 0.352636C24.0596 0.193226 24.345 0.108688 24.6367 0.109429C25.0456 0.124568 25.4319 0.301183 25.7108 0.600562C25.9898 0.89994 26.1387 1.29768 26.125 1.70666Z" fill="white"/>
<path d="M30.7497 1.72841C30.764 1.93309 30.736 2.13852 30.6675 2.33192C30.599 2.52532 30.4914 2.70256 30.3515 2.85261C30.2115 3.00266 30.0422 3.12231 29.8541 3.20412C29.6659 3.28592 29.4629 3.32812 29.2578 3.32812C29.0526 3.32812 28.8496 3.28592 28.6614 3.20412C28.4733 3.12231 28.304 3.00266 28.164 2.85261C28.0241 2.70256 27.9165 2.52532 27.848 2.33192C27.7795 2.13852 27.7515 1.93309 27.7658 1.72841C27.7515 1.52374 27.7795 1.31831 27.848 1.1249C27.9165 0.931505 28.0241 0.754263 28.164 0.604216C28.304 0.454169 28.4733 0.33454 28.6614 0.252733C28.8496 0.170925 29.0526 0.128703 29.2578 0.128703C29.4629 0.128703 29.6659 0.170925 29.8541 0.252733C30.0422 0.33454 30.2115 0.454169 30.3515 0.604216C30.4914 0.754263 30.599 0.931505 30.6675 1.1249C30.736 1.31831 30.764 1.52374 30.7497 1.72841Z" fill="white"/>
<path d="M35.3744 1.75021C35.3546 2.04117 35.2501 2.31999 35.0739 2.55235C34.8977 2.78471 34.6573 2.96047 34.3825 3.05802C34.1077 3.15556 33.8103 3.17062 33.527 3.10135C33.2438 3.03209 32.9869 2.8815 32.7881 2.66814C32.5893 2.45478 32.4572 2.18796 32.4081 1.9005C32.3589 1.61304 32.3949 1.31749 32.5116 1.05022C32.6283 0.782945 32.8205 0.555602 33.0648 0.396192C33.309 0.236782 33.5944 0.152266 33.8861 0.153008C34.295 0.168147 34.6813 0.34474 34.9602 0.644118C35.2392 0.943497 35.3881 1.34124 35.3744 1.75021Z" fill="white"/>
<path d="M39.9991 1.772C39.979 2.06446 39.8735 2.34459 39.6956 2.57757C39.5176 2.81054 39.2752 2.98609 38.9983 3.08239C38.7214 3.17869 38.4223 3.19152 38.1382 3.11924C37.8541 3.04696 37.5975 2.89276 37.4003 2.67585C37.2031 2.45894 37.074 2.18885 37.0291 1.89917C36.9841 1.60949 37.0253 1.313 37.1475 1.04652C37.2697 0.780042 37.4674 0.555346 37.7163 0.400361C37.9651 0.245375 38.254 0.166937 38.547 0.17479C38.9495 0.199158 39.3266 0.379764 39.5978 0.678131C39.8691 0.976497 40.013 1.36901 39.9991 1.772Z" fill="white"/>
</g>
</svg>
