<svg width="75" height="13" viewBox="0 0 75 13" fill="none" xmlns="http://www.w3.org/2000/svg">
<path d="M73.328 12.8126C73.4748 12.7953 73.6204 12.7686 73.7638 12.7327C73.9658 12.6685 74.1518 12.5621 74.3096 12.4207C74.4674 12.2792 74.5933 12.1058 74.679 11.9119C74.7929 11.6186 74.8376 11.3029 74.8097 10.9895C74.8097 10.6336 74.8097 10.2632 74.8097 9.83462C74.8097 8.99933 74.8097 8.0333 74.8097 6.92927V2.31702C74.8444 1.9831 74.7705 1.64689 74.5991 1.35825C74.4157 1.06763 74.1352 0.851451 73.8074 0.748127C73.4459 0.680991 73.0775 0.659035 72.7106 0.682759H62.2586L1.71836 0.457597C1.39272 0.458365 1.07843 0.577363 0.833945 0.792459C0.589457 1.00756 0.431405 1.3041 0.38916 1.62699C0.38916 2.35333 0.38916 3.07967 0.38916 3.806C0.38916 5.25868 0.38916 6.71136 0.38916 8.16403C0.38916 8.89037 0.38916 9.61671 0.38916 10.343C0.362112 10.6801 0.376748 11.0192 0.432739 11.3527C0.519724 11.649 0.707199 11.9058 0.962963 12.079C1.22959 12.2531 1.54605 12.3347 1.86363 12.3114H5.02319L21.0971 12.3986L48.3129 12.5656L66.6602 12.7109L71.6502 12.769H66.6602H48.3129L21.0971 12.6891L5.02319 12.6238H1.86363C1.47044 12.6503 1.07957 12.5455 0.752329 12.326C0.421826 12.097 0.180619 11.7609 0.0695699 11.3745C0.00446935 11.0054 -0.0150472 10.6297 0.0114615 10.2559C0.0114615 9.52955 0.0114615 8.80321 0.0114615 8.07688C0.0114615 6.6242 0.0114615 5.17152 0.0114615 3.71885C0.0114615 2.99251 0.0114615 2.26618 0.0114615 1.50352C0.0628109 1.08881 0.263884 0.707142 0.576874 0.430266C0.889864 0.15339 1.29321 0.000374418 1.71109 0L62.2514 0.334109L72.7034 0.414018C73.0926 0.390142 73.4832 0.416989 73.8655 0.493905C74.2429 0.617208 74.5612 0.875981 74.7589 1.22024C74.9468 1.54016 75.0282 1.91151 74.9913 2.28069C74.9913 2.62207 74.9913 2.96346 74.9913 3.29031C74.9913 4.60498 74.9913 5.8107 74.9913 6.922C74.9913 8.0333 74.9913 8.97027 74.9913 9.82735C74.9913 10.2414 74.9913 10.6263 74.9913 10.9822C75.0192 11.3071 74.9668 11.6338 74.8388 11.9337C74.7445 12.1341 74.6081 12.3119 74.4389 12.4548C74.2697 12.5977 74.0716 12.7024 73.8582 12.7618C73.6879 12.8201 73.5063 12.8375 73.328 12.8126Z" fill="#E0E0E0"/>
</svg>
