<svg width="805" height="69" viewBox="0 0 805 69" fill="none" xmlns="http://www.w3.org/2000/svg">
<g clip-path="url(#clip0_4_426)">
<path fill-rule="evenodd" clip-rule="evenodd" d="M9.74922 20.1947C13.5951 20.1947 16.7129 23.3124 16.7129 27.1583V20.1947H23.6766C27.5224 20.1947 30.6402 23.3124 30.6402 27.1583C30.6402 31.0042 27.5224 34.122 23.6766 34.122C27.5224 34.122 30.6402 37.2398 30.6402 41.0857C30.6402 42.9953 29.8715 44.7254 28.6267 45.9835L28.6006 46.0097L28.5775 46.0327C27.3192 47.2794 25.5878 48.0493 23.6766 48.0493C21.7783 48.0493 20.0575 47.2898 18.8013 46.0581C18.785 46.042 18.7687 46.0259 18.7525 46.0097C18.7372 45.9945 18.722 45.9792 18.7069 45.9638C17.4736 44.7074 16.7129 42.9853 16.7129 41.0857C16.7129 44.9316 13.5951 48.0493 9.74922 48.0493C5.90329 48.0493 2.78555 44.9316 2.78555 41.0857V34.122H9.74922C5.90329 34.122 2.78555 31.0042 2.78555 27.1583C2.78555 23.3124 5.90329 20.1947 9.74922 20.1947ZM15.3202 27.1583C15.3202 30.2351 12.826 32.7293 9.74922 32.7293V21.5874C12.826 21.5874 15.3202 24.0816 15.3202 27.1583ZM29.2475 41.0857C29.2475 38.0089 26.7533 35.5147 23.6766 35.5147C20.5998 35.5147 18.1056 38.0089 18.1056 41.0857H29.2475ZM4.17829 35.5147V41.0857C4.17829 44.1624 6.67248 46.6566 9.74922 46.6566C12.826 46.6566 15.3202 44.1624 15.3202 41.0857V35.5147H4.17829ZM18.1056 32.7293V21.5874H23.6766C26.7533 21.5874 29.2475 24.0816 29.2475 27.1583C29.2475 30.2351 26.7533 32.7293 23.6766 32.7293H18.1056Z" fill="#263238"/>
</g>
<g clip-path="url(#clip1_4_426)">
<path fill-rule="evenodd" clip-rule="evenodd" d="M137.871 27.1314L130.917 34.0152C132.308 35.3922 133.897 36.5526 135.629 37.4604C136.108 38.7178 136.858 39.897 137.881 40.9089C141.727 44.7162 147.962 44.7162 151.808 40.9089C152.83 39.897 153.581 38.7178 154.06 37.4604C155.792 36.5526 157.381 35.3922 158.772 34.0152L151.824 27.137C151.818 27.1318 151.813 27.1267 151.808 27.1215C147.962 23.3143 141.727 23.3143 137.881 27.1215C137.877 27.1248 137.874 27.1281 137.871 27.1314ZM151.143 38.7024C149.116 39.3794 146.989 39.7261 144.844 39.7261C142.7 39.7261 140.573 39.3794 138.546 38.7024C138.766 38.9908 139.008 39.2675 139.273 39.5302C142.35 42.576 147.338 42.576 150.415 39.5302C150.681 39.2675 150.923 38.9908 151.143 38.7024ZM139.416 28.3624C139.939 28.7041 140.494 28.9965 141.076 29.2349C142.27 29.7249 143.551 29.977 144.844 29.977C146.138 29.977 147.418 29.7249 148.613 29.2349C149.194 28.9965 149.75 28.7041 150.272 28.3624C147.234 25.5004 142.455 25.5004 139.416 28.3624Z" fill="#3B4158"/>
</g>
<g clip-path="url(#clip2_4_426)">
<path d="M292.471 30.9997C292.475 30.9707 292.475 30.9414 292.471 30.9123C292.475 30.8887 292.475 30.8645 292.471 30.8408L292.187 28.7986C292.146 28.5543 292.037 28.3259 291.871 28.1391L291.823 28.0834L291.733 27.996L286.822 23.8481L286.959 23.9832C286.847 23.8509 286.705 23.7452 286.545 23.6737C286.385 23.6022 286.211 23.5667 286.035 23.57H284.544C284.301 23.5653 284.064 23.6408 283.871 23.7845C283.668 23.6417 283.424 23.5665 283.174 23.57H281.683C281.487 23.5668 281.294 23.6144 281.123 23.7079C280.953 23.8014 280.81 23.9375 280.71 24.1024C280.556 24.3378 280.498 24.6216 280.548 24.897L280.734 26.1843C280.611 26.1156 280.471 26.08 280.329 26.081H273.107C272.848 26.0826 272.595 26.157 272.378 26.2955C272.168 26.4244 271.999 26.609 271.891 26.8279L271.332 26.3591C271.112 26.1594 270.821 26.0512 270.522 26.0572H259.19C258.93 26.0618 258.676 26.133 258.453 26.2638C258.147 26.439 257.923 26.724 257.828 27.0584L254.23 38.8586C254.162 39.0531 254.156 39.2628 254.211 39.4609C254.266 39.659 254.379 39.8367 254.538 39.9711C254.579 40.0054 254.622 40.0372 254.667 40.0664C254.667 40.0664 254.594 40.0188 254.554 39.9791L259.466 44.135C259.674 44.3225 259.945 44.4273 260.228 44.4289H271.648C271.909 44.4223 272.163 44.3483 272.386 44.2144C272.512 44.147 272.624 44.0582 272.718 43.9522L272.759 43.8965L272.823 43.8171L272.872 43.7297L273.407 44.1826C273.612 44.3627 273.878 44.4618 274.153 44.4608H285.598C285.858 44.4522 286.112 44.3784 286.335 44.2462C286.458 44.1747 286.57 44.0864 286.668 43.984L286.708 43.9283L286.773 43.8489C286.807 43.7986 286.837 43.7454 286.862 43.6899C286.889 43.6418 286.91 43.5912 286.927 43.539L290.21 32.7638V32.6685C290.214 32.6315 290.214 32.5942 290.21 32.5572V32.4857C290.214 32.462 290.214 32.4379 290.21 32.4142C290.213 32.3639 290.213 32.3135 290.21 32.2632H291.263C291.355 32.2714 291.447 32.2714 291.539 32.2632H291.612C291.671 32.2458 291.728 32.2218 291.782 32.1917H291.863L292.009 32.0804L292.074 32.0328L292.187 31.8897V31.8421L292.268 31.707C292.264 31.6807 292.264 31.6538 292.268 31.6275C292.264 31.6146 292.264 31.6007 292.268 31.5878C292.286 31.5412 292.299 31.4933 292.309 31.4447C292.305 31.4291 292.305 31.4127 292.309 31.397C292.305 31.3734 292.305 31.3492 292.309 31.3255C292.309 31.3255 292.471 31.0156 292.471 30.9997Z" fill="black"/>
<path d="M270.854 26.9631C270.897 27.0012 270.927 27.0514 270.94 27.1068C270.953 27.1622 270.948 27.2202 270.927 27.273L267.336 39.0653C267.291 39.194 267.198 39.3016 267.077 39.3672C266.978 39.4322 266.863 39.4705 266.744 39.4785H255.332C255.235 39.4739 255.142 39.4343 255.073 39.3672C255.031 39.3297 255.002 39.2809 254.989 39.2272C254.976 39.1734 254.98 39.117 255 39.0653L258.599 27.273C258.64 27.1426 258.73 27.0321 258.85 26.9631C258.95 26.9028 259.064 26.8674 259.182 26.8598H270.595C270.691 26.8607 270.784 26.8976 270.854 26.9631ZM264.896 36.6893L267.044 29.6489H261.03L258.89 36.6893H264.896ZM281.748 27.0822C281.787 27.1266 281.835 27.1618 281.89 27.1852C281.945 27.2086 282.004 27.2196 282.064 27.2173H283.547C283.603 27.2179 283.659 27.2043 283.709 27.1779C283.758 27.1515 283.8 27.1131 283.831 27.0664C283.857 27.0299 283.876 26.9885 283.885 26.9449C283.895 26.9012 283.896 26.856 283.887 26.8121L283.596 24.7143C283.568 24.6172 283.518 24.5275 283.45 24.452C283.411 24.4077 283.362 24.3725 283.307 24.3491C283.253 24.3257 283.193 24.3147 283.134 24.3169H281.65C281.594 24.3164 281.538 24.33 281.489 24.3564C281.439 24.3828 281.397 24.4212 281.367 24.4679C281.31 24.5792 281.286 24.6507 281.31 24.7143L281.61 26.8121C281.625 26.9142 281.673 27.0089 281.748 27.0822ZM286.457 24.6984C286.429 24.6013 286.379 24.5116 286.311 24.4361C286.274 24.3919 286.226 24.3568 286.173 24.3333C286.12 24.3099 286.061 24.2989 286.003 24.3011H284.512C284.456 24.2995 284.401 24.3127 284.353 24.3393C284.304 24.3659 284.264 24.4048 284.236 24.452C284.182 24.5225 284.159 24.6111 284.171 24.6984L284.471 26.7962C284.49 26.8973 284.538 26.991 284.609 27.0664C284.648 27.1099 284.697 27.1444 284.752 27.1678C284.806 27.1911 284.865 27.2026 284.925 27.2014H286.416C286.472 27.2022 286.526 27.1886 286.575 27.1621C286.623 27.1356 286.664 27.0971 286.692 27.0505C286.72 27.0149 286.74 26.9736 286.75 26.9296C286.759 26.8856 286.759 26.84 286.749 26.7962L286.457 24.6984ZM280.443 27.8769L280.297 26.8439H273.107C272.994 26.85 272.885 26.8856 272.791 26.9472C272.731 26.9791 272.679 27.0233 272.639 27.0768C272.598 27.1303 272.57 27.1918 272.556 27.2571L271.956 29.2277C271.932 29.277 271.924 29.3322 271.933 29.3861C271.942 29.44 271.967 29.4901 272.005 29.5297C272.073 29.5927 272.162 29.6294 272.256 29.633H280.994L278.846 36.6734H270.133C270.02 36.6759 269.911 36.709 269.816 36.7688C269.702 36.8402 269.618 36.9505 269.581 37.0787L268.973 39.0494C268.954 39.0999 268.948 39.1549 268.958 39.2081C268.968 39.2615 268.993 39.311 269.03 39.3513C269.096 39.4185 269.186 39.4583 269.281 39.4625H280.726C280.845 39.4526 280.959 39.4144 281.059 39.3513C281.178 39.2854 281.268 39.1775 281.31 39.0494L284.601 28.2742H280.897C280.838 28.2753 280.779 28.2646 280.725 28.2428C280.671 28.2209 280.621 28.1883 280.58 28.147C280.513 28.075 280.466 27.9875 280.443 27.8928V27.8769Z" fill="white"/>
</g>
<g clip-path="url(#clip3_4_426)">
<path d="M415.728 26.7485C415.728 26.772 415.728 26.8015 415.722 26.8191C415.692 27.0487 415.692 27.2783 415.71 27.5137C415.722 27.5726 415.735 27.6315 415.784 27.6786C415.863 27.7669 415.986 27.7492 416.035 27.6433C416.06 27.5903 416.06 27.5373 416.047 27.4843C415.986 27.2606 415.974 27.0252 415.968 26.7956C415.968 26.7838 415.968 26.7661 415.968 26.7485C416.035 26.7426 416.096 26.7367 416.152 26.7367C416.195 26.7308 416.231 26.7249 416.262 26.7073C416.354 26.6602 416.354 26.5601 416.256 26.513C416.219 26.4953 416.17 26.4895 416.127 26.4895C415.974 26.4953 415.82 26.4953 415.667 26.4953C415.612 26.4953 415.557 26.5012 415.502 26.5071C415.471 26.513 415.434 26.513 415.41 26.5307C415.367 26.5483 415.342 26.5778 415.342 26.619C415.348 26.6602 415.367 26.6837 415.41 26.7014C415.434 26.719 415.465 26.7249 415.495 26.7249C415.569 26.7308 415.649 26.7426 415.728 26.7485ZM417.415 27.0193C417.415 27.0252 417.421 27.031 417.421 27.031C417.446 27.19 417.47 27.343 417.489 27.4961C417.495 27.5491 417.501 27.5962 417.538 27.6374C417.618 27.7374 417.74 27.7257 417.795 27.6197C417.82 27.5667 417.826 27.5137 417.814 27.4549C417.777 27.2783 417.759 27.1017 417.722 26.931C417.697 26.825 417.667 26.7249 417.636 26.6307C417.618 26.5719 417.575 26.5307 417.501 26.5248C417.427 26.513 417.372 26.5483 417.342 26.6013C417.305 26.6484 417.274 26.6955 417.25 26.7485C417.207 26.8427 417.17 26.9369 417.121 27.0252C417.115 27.0487 417.108 27.0664 417.096 27.084C417.09 27.0722 417.084 27.0664 417.084 27.0664C417.004 26.9192 416.931 26.772 416.851 26.6307C416.839 26.619 416.832 26.6072 416.826 26.5954C416.79 26.5424 416.747 26.513 416.679 26.513C416.618 26.5189 416.569 26.5542 416.538 26.6072C416.526 26.6307 416.526 26.6484 416.52 26.6719C416.495 26.8603 416.464 27.0487 416.44 27.2371C416.428 27.343 416.422 27.449 416.422 27.555C416.415 27.5785 416.422 27.6079 416.434 27.6315C416.446 27.6786 416.483 27.708 416.532 27.7139C416.593 27.7198 416.636 27.7021 416.655 27.655C416.673 27.6197 416.679 27.5903 416.685 27.5608C416.71 27.4549 416.728 27.3548 416.747 27.2547C416.759 27.1959 416.765 27.1488 416.783 27.084C416.796 27.1076 416.808 27.1252 416.82 27.1429C416.875 27.2135 416.931 27.2842 416.998 27.343C417.066 27.3901 417.121 27.3842 417.176 27.3313C417.188 27.3195 417.194 27.3136 417.207 27.3018C417.262 27.2194 417.329 27.137 417.384 27.0546C417.397 27.0428 417.403 27.031 417.415 27.0193Z" fill="#3A3B7B"/>
<path d="M403.283 26.8641C403.24 26.9759 403.232 27.0565 403.252 27.1235C403.274 27.2146 403.33 27.2445 403.407 27.2213C404.127 27.0503 405.707 27.5356 406.292 27.6709C406.43 27.6993 406.542 27.5284 406.448 27.3752C406.31 27.2268 404.731 26.5915 404.129 26.5568C403.893 26.544 403.47 26.4859 403.283 26.8641Z" fill="#3A3B7B"/>
<path d="M409.457 24.8076C409.534 24.8501 409.577 24.8907 409.598 24.936C409.629 24.9955 409.613 25.0366 409.56 25.0576C409.083 25.2807 408.45 26.241 408.194 26.5722C408.132 26.6484 407.989 26.6041 407.967 26.4788C407.972 26.3372 408.534 25.295 408.847 25.0111C408.97 24.9003 409.174 24.6828 409.457 24.8076Z" fill="#3A3B7B"/>
<path d="M405.664 24.3348C405.757 24.2681 405.853 24.2447 405.902 24.2881C406.62 24.8779 407.001 25.8118 407.237 26.6668C407.246 26.6867 407.246 26.7153 407.239 26.7451C407.236 26.7706 407.217 26.7975 407.186 26.8183C407.153 26.8413 407.125 26.8483 407.112 26.8285C406.797 26.4174 404.998 24.818 405.664 24.3348Z" fill="#3A3B7B"/>
<path d="M390.449 34.5596C390.622 34.4365 390.809 34.3341 391.007 34.2546C391.214 34.1977 391.435 34.2071 391.636 34.2815C391.838 34.3559 392.008 34.491 392.122 34.6666C392.224 34.8418 392.264 35.044 392.236 35.2428C392.208 35.4416 392.113 35.6262 391.966 35.7689C391.852 35.8846 391.723 35.9853 391.581 36.0686C390.951 36.4592 390.316 36.8284 389.68 37.219C389.55 37.3168 389.412 37.4045 389.268 37.4812C389.048 37.5865 388.796 37.6147 388.557 37.5609C388.318 37.5072 388.106 37.3749 387.957 37.187C387.846 37.0539 387.753 36.9083 387.679 36.7535C387.076 35.5388 386.452 34.3295 385.872 33.0934C385.605 32.5583 385.387 31.943 385.175 31.349C385.084 31.1764 385.066 30.9764 385.125 30.7913C385.185 30.6063 385.318 30.4509 385.495 30.3581C385.672 30.2654 385.88 30.2428 386.074 30.2949C386.269 30.347 386.434 30.4699 386.536 30.6373C386.848 31.0351 387.124 31.4576 387.361 31.9002C387.963 32.9704 388.537 34.0405 389.117 35.0786C389.151 35.136 389.188 35.1914 389.229 35.2445C389.665 35.0684 390.075 34.8381 390.449 34.5596Z" fill="#3A3B7B"/>
<path d="M396.675 34.1864C395.298 35.7328 392.99 35.3421 391.83 33.3516C391.005 31.9389 390.86 29.6059 392.655 28.1344C393.039 27.8263 393.497 27.6164 393.988 27.5244C394.589 27.4416 395.203 27.5434 395.741 27.8154C396.278 28.0874 396.713 28.5155 396.982 29.0387C397.963 30.751 397.824 32.9342 396.675 34.1864ZM396.118 30.5798C395.971 30.159 395.678 29.7998 395.287 29.5631C395.066 29.4117 394.797 29.3382 394.526 29.3547C394.255 29.3713 393.998 29.477 393.798 29.654C393.001 30.3336 392.834 31.9443 393.414 32.9021C393.487 33.0583 393.596 33.1971 393.732 33.3088C393.867 33.4205 394.027 33.5024 394.199 33.5488C394.371 33.5952 394.551 33.6049 394.728 33.5773C394.904 33.5497 395.072 33.4855 395.22 33.389C395.652 33.0674 395.969 32.6246 396.127 32.1221C396.285 31.6196 396.276 31.0824 396.101 30.5851L396.118 30.5798Z" fill="#3A3B7B"/>
<path d="M402.295 31.2539C402.154 31.283 402.008 31.2848 401.867 31.259C401.725 31.2333 401.59 31.1806 401.47 31.1041C401.365 31.0464 401.274 30.967 401.205 30.8717C401.135 30.7764 401.089 30.6675 401.069 30.5529C401.048 30.4382 401.055 30.3208 401.088 30.2088C401.12 30.0969 401.178 29.9933 401.258 29.9055C401.396 29.729 401.593 29.6027 401.815 29.547C402.397 29.3851 402.995 29.2863 403.6 29.2527C403.732 29.2379 403.867 29.2486 403.995 29.2844C404.124 29.3202 404.243 29.3802 404.347 29.461C404.451 29.5417 404.537 29.6416 404.6 29.7547C404.663 29.8677 404.702 29.9918 404.715 30.1195C404.889 30.7469 404.908 31.4048 404.77 32.0406C404.269 34.0953 402.54 34.8016 400.6 34.1435C400.055 33.9675 399.578 33.6396 399.229 33.2017C398.763 32.6743 398.432 32.0494 398.264 31.377C398.128 30.7783 398.143 30.157 398.308 29.565C398.472 28.973 398.782 28.4274 399.212 27.9738C399.619 27.4808 400.148 27.0928 400.751 26.8447C401.131 26.6433 401.577 26.586 401.999 26.6842C402.095 26.7097 402.182 26.7593 402.251 26.8279C402.321 26.8965 402.369 26.9817 402.393 27.0745C402.416 27.1673 402.413 27.2644 402.384 27.3557C402.355 27.447 402.301 27.5293 402.228 27.5939C402.089 27.7148 401.938 27.8224 401.776 27.9149C401.281 28.2179 400.849 28.6083 400.505 29.0654C400.28 29.3612 400.124 29.7009 400.05 30.0605C399.976 30.4201 399.985 30.7909 400.076 31.1469C400.202 31.6323 400.483 32.068 400.879 32.3937C402.105 33.4639 403.7 32.4311 403.421 30.9703C403.014 31.0667 402.657 31.1683 402.295 31.2539Z" fill="#3A3B7B"/>
<path d="M409.788 34.272C407.976 35.3422 405.913 34.272 405.462 32.0246C405.133 30.4193 405.757 28.1719 407.943 27.3157C408.408 27.1375 408.912 27.0749 409.409 27.1338C410.006 27.2387 410.554 27.5208 410.975 27.9403C411.396 28.3598 411.669 28.8956 411.756 29.4722C412.124 31.3824 411.288 33.4212 409.788 34.272ZM410.418 30.6708C410.418 30.2262 410.254 29.7961 409.955 29.4561C409.796 29.2458 409.565 29.0951 409.303 29.0297C409.041 28.9644 408.763 28.9883 408.517 29.0976C407.536 29.5042 406.844 30.9811 407.095 32.0674C407.114 32.2379 407.172 32.4023 407.264 32.5491C407.357 32.6959 407.481 32.8216 407.629 32.9175C407.777 33.0132 407.946 33.0769 408.122 33.1038C408.299 33.1307 408.479 33.1203 408.651 33.0734C409.169 32.8995 409.618 32.5745 409.935 32.1437C410.252 31.713 410.421 31.198 410.418 30.6708Z" fill="#3A3B7B"/>
<path d="M413.588 34.7214C413.561 34.9173 413.454 35.0947 413.29 35.2146C413.127 35.3345 412.92 35.3871 412.716 35.3609C412.512 35.3346 412.327 35.2316 412.202 35.0746C412.077 34.9176 412.022 34.7193 412.05 34.5234C412.077 34.3276 412.184 34.1502 412.348 34.0303C412.512 33.9104 412.718 33.8578 412.922 33.884C413.126 33.9103 413.311 34.0132 413.436 34.1703C413.561 34.3273 413.616 34.5256 413.588 34.7214ZM413.103 27.5029C413.209 27.3475 413.365 27.2292 413.547 27.1655C413.729 27.1019 413.927 27.0963 414.113 27.1498C414.301 27.195 414.468 27.3011 414.584 27.4501C414.701 27.5992 414.761 27.7822 414.754 27.9685C414.729 28.2674 414.683 28.5642 414.614 28.8567C414.43 29.8467 414.252 30.8366 414.057 31.8158C413.968 32.2065 413.851 32.581 413.722 32.977C413.678 33.1008 413.603 33.2126 413.505 33.3034C413.444 33.3717 413.366 33.4241 413.278 33.4557C413.19 33.4874 413.095 33.4972 413.003 33.4844C412.91 33.4716 412.822 33.4366 412.747 33.3825C412.672 33.3284 412.612 33.257 412.574 33.175C412.508 33.0278 412.472 32.8697 412.468 32.7095C412.468 32.0459 412.468 31.3771 412.512 30.7082C412.588 29.7536 412.737 28.8057 412.958 27.8722C412.985 27.7471 413.034 27.6275 413.103 27.519V27.5029Z" fill="#3A3B7B"/>
<path fill-rule="evenodd" clip-rule="evenodd" d="M388.094 39.0213C388.028 39.1624 388.01 39.3196 388.042 39.471C388.064 39.6704 388.111 39.8666 388.182 40.0551C388.272 40.2859 388.371 40.5141 388.495 40.7953C388.523 40.86 388.553 40.9276 388.584 40.9987C388.75 41.3797 388.958 41.8667 389.236 42.5714C389.315 42.7716 389.385 42.9735 389.455 43.1767C389.484 43.2588 389.512 43.3412 389.542 43.4238C389.646 43.7173 389.827 43.9811 390.065 44.1901C390.167 44.305 390.301 44.3887 390.452 44.4305C390.606 44.4732 390.769 44.4705 390.922 44.4228C391.074 44.375 391.207 44.2844 391.305 44.1627C391.401 44.0434 391.458 43.8997 391.469 43.7495C391.531 43.457 391.51 43.1536 391.408 42.8716C391.245 42.4033 391.06 41.9343 390.846 41.4756L390.845 41.4736C390.493 40.756 390.136 40.0433 389.762 39.3303L389.759 39.3253C389.65 39.1396 389.507 38.9735 389.338 38.8346C389.229 38.7107 389.078 38.627 388.911 38.5982C388.74 38.5688 388.564 38.5985 388.415 38.6819C388.273 38.7596 388.161 38.8784 388.094 39.0213Z" fill="#3A3B7B"/>
<path fill-rule="evenodd" clip-rule="evenodd" d="M393.463 37.2543C392.912 37.1173 392.336 37.0973 391.776 37.1958C391.342 37.2368 390.916 37.3328 390.62 37.523C390.469 37.6198 390.347 37.7441 390.279 37.902C390.211 38.0609 390.203 38.2426 390.258 38.445C390.36 38.8157 390.493 39.1762 390.625 39.5355L390.646 39.5937L390.646 39.595C391.044 40.6389 391.445 41.6792 391.849 42.716C391.896 42.8794 391.963 43.037 392.048 43.1856L392.05 43.1884C392.162 43.3731 392.306 43.5383 392.475 43.677C392.56 43.7533 392.665 43.8061 392.778 43.8297C392.893 43.8534 393.012 43.8466 393.123 43.8097C393.234 43.7728 393.333 43.7074 393.408 43.6206C393.481 43.5352 393.53 43.4323 393.547 43.3227C393.62 43.0252 393.597 42.7134 393.48 42.429C393.444 42.3333 393.415 42.2355 393.385 42.1325C393.375 42.0982 393.365 42.0633 393.354 42.0277C394.28 41.6803 395.265 41.2131 395.612 40.1263C395.748 39.7507 395.759 39.344 395.644 38.9619C395.529 38.5795 395.294 38.2405 394.97 37.9916C394.53 37.6433 394.015 37.3916 393.463 37.2543ZM391.935 38.5873C391.953 38.5823 391.972 38.5776 391.99 38.5732C392.593 38.4823 393.21 38.6035 393.727 38.9145C393.955 39.0666 394.048 39.2357 394.064 39.3983C394.081 39.5658 394.017 39.7473 393.89 39.9217C393.649 40.2513 393.21 40.515 392.813 40.5642C392.523 39.9245 392.229 39.2589 391.935 38.5873Z" fill="#3A3B7B"/>
<path d="M397.137 36.0833C397.794 35.7923 398.607 35.7421 399.243 35.9466C399.403 35.9914 399.542 36.0883 399.636 36.2207C399.73 36.3523 399.773 36.5109 399.758 36.6694C399.757 36.7723 399.731 36.8736 399.682 36.9649C399.631 37.0579 399.558 37.1378 399.469 37.1981C399.379 37.2582 399.276 37.2969 399.168 37.3107C399.06 37.3246 398.95 37.3132 398.847 37.2776L398.839 37.2748L398.832 37.2711C398.779 37.2447 398.723 37.2249 398.666 37.2119L398.662 37.2111C398.214 37.097 397.792 37.2861 397.638 37.5184C397.564 37.6291 397.555 37.7409 397.617 37.8426C397.682 37.9515 397.843 38.0738 398.169 38.1609C398.258 38.1845 398.35 38.2072 398.443 38.2304C398.7 38.2944 398.968 38.3608 399.227 38.4529L399.228 38.4533C400.421 38.8891 400.866 39.7918 400.713 40.6408C400.563 41.4804 399.832 42.2445 398.734 42.4247C398.334 42.5098 397.918 42.4932 397.527 42.3767C397.135 42.2598 396.781 42.0465 396.502 41.7579L396.494 41.7503C396.406 41.6416 396.347 41.5139 396.32 41.3783C396.296 41.256 396.309 41.1296 396.357 41.014C396.405 40.8991 396.486 40.7996 396.59 40.7272C396.701 40.645 396.834 40.5957 396.973 40.5854C397.112 40.5752 397.251 40.6042 397.373 40.6687C397.495 40.7251 397.608 40.7972 397.709 40.8828L397.711 40.8844C397.891 41.0422 398.109 41.0833 398.317 41.0452C398.529 41.0066 398.728 40.8864 398.856 40.7269C398.983 40.5684 399.034 40.3801 398.974 40.1974C398.913 40.0133 398.729 39.807 398.327 39.6346C398.221 39.5917 398.112 39.5571 397.999 39.5234C397.968 39.5143 397.937 39.5053 397.905 39.4961C397.821 39.4716 397.735 39.4464 397.65 39.4186C397.592 39.3996 397.534 39.3815 397.477 39.3635C397.32 39.3145 397.167 39.2668 397.02 39.2028C396.7 39.0982 396.424 38.8975 396.232 38.6302C396.04 38.3619 395.943 38.041 395.956 37.7155C395.957 36.9223 396.477 36.3758 397.137 36.0833Z" fill="#3A3B7B"/>
<path d="M405.459 35.9988C405.331 35.9392 405.191 35.9109 405.049 35.9164C404.908 35.922 404.77 35.9613 404.648 36.0308C404.527 36.0999 404.426 36.1965 404.353 36.3122C404.287 36.4097 404.241 36.5186 404.218 36.633C404.195 36.7474 404.195 36.8649 404.219 36.9789C404.243 37.1255 404.269 37.2681 404.295 37.4087C404.338 37.6413 404.38 37.8687 404.408 38.1006L404.409 38.1065C404.471 38.4701 404.504 38.8379 404.507 39.2064L404.508 39.2117C404.529 39.6097 404.388 39.9999 404.114 40.2997L404.11 40.305C404.021 40.4145 403.901 40.4982 403.766 40.5465C403.63 40.5948 403.483 40.6059 403.341 40.5786C403.199 40.5512 403.067 40.4865 402.962 40.3916C402.856 40.2968 402.779 40.1751 402.741 40.0411C402.66 39.7585 402.613 39.4678 402.601 39.1749L402.74 37.0516C402.742 37.0239 402.744 36.9954 402.747 36.9667C402.752 36.9022 402.757 36.8365 402.76 36.7752C402.763 36.6851 402.76 36.5924 402.738 36.5046C402.716 36.4149 402.673 36.3296 402.598 36.257C402.523 36.185 402.422 36.132 402.295 36.0959C402.065 36.032 401.871 36.034 401.709 36.1C401.547 36.1659 401.436 36.2884 401.357 36.4299C401.279 36.5701 401.229 36.7362 401.191 36.9025C401.163 37.0259 401.141 37.1555 401.119 37.2788C401.112 37.3213 401.104 37.363 401.097 37.4036L401.097 37.4048C400.982 38.0811 400.948 38.7678 400.995 39.4516C401.004 39.8211 401.084 40.1858 401.232 40.5272C401.399 40.9676 401.7 41.3492 402.098 41.6216C402.496 41.8945 402.971 42.0449 403.46 42.0529C403.949 42.0608 404.429 41.9259 404.837 41.6661C405.244 41.4066 405.559 41.0348 405.741 40.5997C405.996 40.0455 406.115 39.4428 406.091 38.8375C406.076 38.3956 406.051 37.9503 406.026 37.5073C406.014 37.29 406.001 37.0731 405.99 36.8576C405.985 36.6414 405.911 36.4321 405.778 36.2576C405.695 36.1474 405.586 36.0584 405.459 35.9988Z" fill="#3A3B7B"/>
<path d="M409.963 39.3282C409.95 39.344 409.937 39.3603 409.922 39.3772C409.819 38.804 409.723 38.2311 409.627 37.6572C409.592 37.4513 409.558 37.2445 409.523 37.0384L409.519 37.0154L409.506 36.9955C409.482 36.9581 409.48 36.9214 409.48 36.8432V36.8342L409.478 36.8252C409.453 36.6637 409.376 36.5134 409.26 36.394C409.144 36.2749 408.994 36.192 408.828 36.156C408.663 36.1169 408.489 36.1255 408.328 36.1808C408.168 36.2361 408.029 36.3353 407.928 36.4661C407.843 36.5665 407.774 36.6778 407.722 36.7968C407.605 37.0531 407.486 37.31 407.367 37.5676L407.365 37.5721C407.068 38.2152 406.769 38.8627 406.479 39.5153L406.478 39.5174C406.3 39.9405 406.153 40.3863 406.006 40.8308C405.977 40.9195 405.948 41.0082 405.918 41.0966C405.865 41.2369 405.842 41.3859 405.85 41.5348C405.84 41.6681 405.874 41.8011 405.945 41.9158C406.019 42.0329 406.128 42.1249 406.259 42.1792C406.397 42.2374 406.551 42.2497 406.698 42.2143C406.844 42.1789 406.974 42.0979 407.067 41.9841C407.186 41.8439 407.288 41.6909 407.371 41.5289C407.617 41.0462 407.852 40.5576 408.086 40.0711C408.176 39.8829 408.264 39.7144 408.364 39.5308C408.371 39.5534 408.378 39.5755 408.386 39.5976C408.49 40.0408 408.668 40.4652 408.91 40.8554C408.956 40.9381 409.02 41.0103 409.098 41.0672C409.176 41.1248 409.267 41.1652 409.363 41.1857C409.46 41.2062 409.56 41.2063 409.656 41.1859C409.753 41.1657 409.844 41.1252 409.922 41.0679L410.078 40.9562L411.285 39.9801L411.214 40.4168C411.116 41.0171 411.018 41.6124 410.915 42.2078C410.847 42.4717 410.848 42.7474 410.915 43.0112C410.945 43.1596 411.02 43.2963 411.13 43.4038C411.242 43.5122 411.385 43.5858 411.541 43.6152C411.696 43.6445 411.858 43.6283 412.004 43.5685C412.148 43.5096 412.27 43.4111 412.356 43.2855C412.555 43.0485 412.679 42.7615 412.713 42.4587C412.764 42.0311 412.822 41.5977 412.88 41.1645C412.947 40.6651 413.013 40.1658 413.07 39.6761L413.07 39.6746C413.124 39.1386 413.15 38.6003 413.148 38.0618C413.16 37.8916 413.116 37.7221 413.022 37.5772C412.928 37.4318 412.788 37.3187 412.623 37.254C412.451 37.1791 412.258 37.159 412.074 37.1969C411.89 37.2345 411.724 37.3273 411.6 37.4618C411.377 37.6595 411.168 37.871 410.974 38.095L410.973 38.0965C410.761 38.3496 410.551 38.6075 410.343 38.8639C410.216 39.0197 410.089 39.1752 409.963 39.3282Z" fill="#3A3B7B"/>
</g>
<g clip-path="url(#clip4_4_426)">
<path d="M542.078 25.5501C542.078 25.8746 542.344 26.1377 542.673 26.1377H543.268C543.596 26.1377 543.862 25.8746 543.862 25.5501C543.862 25.2256 543.596 24.9626 543.268 24.9626H542.673C542.344 24.9626 542.078 25.2256 542.078 25.5501Z" fill="#212326"/>
<path d="M524.828 43.7645H527.718L526.877 42.9335C526.654 42.7132 526.351 42.5893 526.036 42.5893H524.828C520.229 42.5893 516.501 38.9065 516.501 34.3635C516.501 29.8205 520.229 26.1377 524.828 26.1377H534.345C538.945 26.1377 542.673 29.8205 542.673 34.3635C542.673 38.9065 538.945 42.5893 534.345 42.5893H530.785C530.312 42.5893 529.858 42.4036 529.523 42.0731L528.538 41.0996C527.98 40.5486 527.224 40.2391 526.435 40.2391H524.828C521.543 40.2391 518.88 37.6085 518.88 34.3635C518.88 31.1185 521.543 28.4879 524.828 28.4879H534.345C537.631 28.4879 540.294 31.1185 540.294 34.3635C540.294 37.6085 537.631 40.2391 534.345 40.2391H532.059C531.586 40.2391 531.132 40.0534 530.798 39.7229L529.812 38.7493C529.254 38.1984 528.498 37.8889 527.709 37.8889H524.828C522.857 37.8889 521.26 36.3105 521.26 34.3635C521.26 32.4165 522.857 30.8382 524.828 30.8382H534.345C536.316 30.8382 537.914 32.4165 537.914 34.3635C537.914 36.2868 536.355 37.8503 534.417 37.8882L534.417 37.8889H533.547C533.073 37.8889 532.619 37.7032 532.285 37.3726L531.299 36.3991C530.842 35.947 530.25 35.6575 529.617 35.5681L529.587 35.5386H524.828C524.171 35.5386 523.639 35.0125 523.639 34.3635C523.639 33.7145 524.171 33.1884 524.828 33.1884H534.345C535.002 33.1884 535.535 33.7145 535.535 34.3635C535.535 35.0125 535.002 35.5386 534.345 35.5386H531.966L532.807 36.3696C533.03 36.5899 533.333 36.7137 533.649 36.7137H534.345C535.659 36.7137 536.725 35.6615 536.725 34.3635C536.725 33.0655 535.659 32.0133 534.345 32.0133H524.828C523.514 32.0133 522.449 33.0655 522.449 34.3635C522.449 35.6615 523.514 36.7137 524.828 36.7137H529.196C529.669 36.7137 530.123 36.8995 530.458 37.23L531.444 38.2035C532.001 38.7545 532.758 39.064 533.547 39.064H534.643V39.055C537.132 38.9033 539.104 36.8608 539.104 34.3635C539.104 31.7675 536.973 29.663 534.345 29.663H524.828C522.2 29.663 520.07 31.7675 520.07 34.3635C520.07 36.9595 522.2 39.064 524.828 39.064H527.709C528.182 39.064 528.636 39.2497 528.971 39.5802L529.957 40.5538C530.514 41.1047 531.271 41.4142 532.059 41.4142H534.345C538.288 41.4142 541.483 38.2575 541.483 34.3635C541.483 30.4695 538.288 27.3128 534.345 27.3128H524.828C520.886 27.3128 517.691 30.4695 517.691 34.3635C517.691 38.2575 520.886 41.4142 524.828 41.4142H526.435C526.908 41.4142 527.362 41.5999 527.697 41.9305L528.682 42.904C529.24 43.4549 529.997 43.7645 530.785 43.7645H534.345C539.602 43.7645 543.862 39.5555 543.862 34.3635C543.862 29.1715 539.602 24.9626 534.345 24.9626L524.828 24.9626C519.572 24.9626 515.311 29.1715 515.311 34.3635C515.311 39.5555 519.572 43.7645 524.828 43.7645Z" fill="#212326"/>
</g>
<g clip-path="url(#clip5_4_426)">
<path d="M647.86 27.0516C646.446 27.0516 645.09 27.6133 644.09 28.6133L640.826 31.8767C639.826 32.8766 639.265 34.2328 639.265 35.6469C639.265 38.5917 641.652 40.9789 644.597 40.9789C646.011 40.9789 647.367 40.4171 648.367 39.4172L650.624 37.1599C650.624 37.1599 650.624 37.16 650.624 37.1599L657.201 30.5829C657.679 30.1053 658.327 29.8371 659.002 29.8371C660.133 29.8371 661.091 30.574 661.424 31.5938L663.499 29.5181C662.552 28.035 660.892 27.0516 659.002 27.0516C657.588 27.0516 656.232 27.6133 655.232 28.6133L646.397 37.4476C645.92 37.9252 645.272 38.1935 644.597 38.1935C643.19 38.1935 642.05 37.0534 642.05 35.6469C642.05 34.9716 642.318 34.3238 642.796 33.8463L646.059 30.5829C646.537 30.1053 647.185 29.8371 647.86 29.8371C648.991 29.8371 649.949 30.574 650.282 31.5939L652.357 29.5181C651.411 28.035 649.75 27.0516 647.86 27.0516Z" fill="#394149"/>
<path d="M657.539 37.4476C657.062 37.9252 656.414 38.1935 655.739 38.1935C654.608 38.1935 653.649 37.4567 653.317 36.4371L651.241 38.5127C652.188 39.9956 653.849 40.9789 655.739 40.9789C657.153 40.9789 658.509 40.4171 659.509 39.4172L668.343 30.5829C668.821 30.1053 669.468 29.8371 670.144 29.8371C671.55 29.8371 672.69 30.9772 672.69 32.3836C672.69 33.059 672.422 33.7067 671.944 34.1842L668.681 37.4476C668.204 37.9252 667.556 38.1935 666.88 38.1935C665.75 38.1935 664.791 37.4566 664.459 36.4368L662.383 38.5125C663.33 39.9956 664.99 40.9789 666.88 40.9789C668.295 40.9789 669.651 40.4171 670.651 39.4172L673.914 36.1538C674.914 35.1539 675.476 33.7977 675.476 32.3836C675.476 29.4388 673.089 27.0516 670.144 27.0516C668.73 27.0516 667.373 27.6133 666.374 28.6133L657.539 37.4476Z" fill="#394149"/>
</g>
<g clip-path="url(#clip6_4_426)">
<path d="M804.997 30.9997C805.001 30.9707 805.001 30.9414 804.997 30.9123C805.001 30.8887 805.001 30.8645 804.997 30.8408L804.713 28.7986C804.672 28.5543 804.563 28.3259 804.397 28.1391L804.349 28.0834L804.259 27.996L799.348 23.8481L799.485 23.9832C799.373 23.8509 799.231 23.7452 799.071 23.6737C798.911 23.6022 798.737 23.5667 798.561 23.57H797.07C796.827 23.5653 796.59 23.6408 796.397 23.7845C796.194 23.6417 795.95 23.5665 795.7 23.57H794.209C794.013 23.5668 793.82 23.6144 793.649 23.7079C793.479 23.8014 793.336 23.9375 793.236 24.1024C793.082 24.3378 793.024 24.6216 793.074 24.897L793.26 26.1843C793.137 26.1156 792.997 26.08 792.855 26.081H785.633C785.374 26.0826 785.121 26.157 784.904 26.2955C784.694 26.4244 784.525 26.609 784.417 26.8279L783.858 26.3591C783.638 26.1594 783.347 26.0512 783.048 26.0572H771.716C771.456 26.0618 771.202 26.133 770.979 26.2638C770.673 26.439 770.449 26.724 770.354 27.0584L766.756 38.8586C766.688 39.0531 766.682 39.2628 766.737 39.4609C766.791 39.659 766.905 39.8367 767.064 39.9711C767.105 40.0054 767.148 40.0372 767.193 40.0664C767.193 40.0664 767.12 40.0188 767.08 39.9791L771.992 44.135C772.2 44.3225 772.471 44.4273 772.754 44.4289H784.174C784.435 44.4223 784.689 44.3483 784.912 44.2144C785.038 44.147 785.15 44.0582 785.244 43.9522L785.285 43.8965L785.349 43.8171L785.398 43.7297L785.933 44.1826C786.138 44.3627 786.404 44.4618 786.679 44.4608H798.124C798.384 44.4522 798.638 44.3784 798.861 44.2462C798.984 44.1747 799.096 44.0864 799.194 43.984L799.234 43.9283L799.299 43.8489C799.333 43.7986 799.363 43.7454 799.388 43.6899C799.415 43.6418 799.436 43.5912 799.453 43.539L802.736 32.7638V32.6685C802.74 32.6315 802.74 32.5942 802.736 32.5572V32.4857C802.74 32.462 802.74 32.4379 802.736 32.4142C802.739 32.3639 802.739 32.3135 802.736 32.2632H803.789C803.881 32.2714 803.973 32.2714 804.065 32.2632H804.138C804.197 32.2458 804.254 32.2218 804.308 32.1917H804.389L804.535 32.0804L804.6 32.0328L804.713 31.8897V31.8421L804.794 31.707C804.79 31.6807 804.79 31.6538 804.794 31.6275C804.79 31.6146 804.79 31.6007 804.794 31.5878C804.812 31.5412 804.825 31.4933 804.835 31.4447C804.831 31.4291 804.831 31.4127 804.835 31.397C804.831 31.3734 804.831 31.3492 804.835 31.3255C804.835 31.3255 804.997 31.0156 804.997 30.9997Z" fill="black"/>
<path d="M783.38 26.9631C783.423 27.0012 783.453 27.0514 783.466 27.1068C783.479 27.1622 783.474 27.2202 783.453 27.273L779.862 39.0653C779.817 39.194 779.724 39.3016 779.603 39.3672C779.504 39.4322 779.389 39.4705 779.27 39.4785H767.858C767.761 39.4739 767.668 39.4343 767.599 39.3672C767.557 39.3297 767.528 39.2809 767.515 39.2272C767.502 39.1734 767.506 39.117 767.526 39.0653L771.124 27.273C771.166 27.1426 771.256 27.0321 771.376 26.9631C771.476 26.9028 771.59 26.8674 771.708 26.8598H783.12C783.217 26.8607 783.31 26.8976 783.38 26.9631ZM777.422 36.6893L779.57 29.6489H773.556L771.416 36.6893H777.422ZM794.274 27.0822C794.312 27.1266 794.361 27.1618 794.416 27.1852C794.471 27.2086 794.53 27.2196 794.59 27.2173H796.073C796.129 27.2179 796.185 27.2043 796.235 27.1779C796.284 27.1515 796.326 27.1131 796.357 27.0664C796.383 27.0299 796.402 26.9885 796.411 26.9449C796.421 26.9012 796.422 26.856 796.413 26.8121L796.122 24.7143C796.094 24.6172 796.044 24.5275 795.976 24.452C795.937 24.4077 795.888 24.3725 795.833 24.3491C795.779 24.3257 795.719 24.3147 795.66 24.3169H794.176C794.12 24.3164 794.064 24.33 794.014 24.3564C793.965 24.3828 793.923 24.4212 793.893 24.4679C793.836 24.5792 793.812 24.6507 793.836 24.7143L794.136 26.8121C794.151 26.9142 794.199 27.0089 794.274 27.0822ZM798.983 24.6984C798.955 24.6013 798.905 24.5116 798.837 24.4361C798.8 24.3919 798.752 24.3568 798.699 24.3333C798.646 24.3099 798.587 24.2989 798.529 24.3011H797.037C796.982 24.2995 796.927 24.3127 796.878 24.3393C796.83 24.3659 796.79 24.4048 796.762 24.452C796.708 24.5225 796.685 24.6111 796.697 24.6984L796.997 26.7962C797.016 26.8973 797.064 26.991 797.135 27.0664C797.174 27.1099 797.223 27.1444 797.278 27.1678C797.332 27.1911 797.391 27.2026 797.451 27.2014H798.942C798.998 27.2022 799.052 27.1886 799.101 27.1621C799.149 27.1356 799.189 27.0971 799.218 27.0505C799.246 27.0149 799.266 26.9736 799.276 26.9296C799.285 26.8856 799.285 26.84 799.275 26.7962L798.983 24.6984ZM792.969 27.8769L792.823 26.8439H785.633C785.52 26.85 785.411 26.8856 785.317 26.9472C785.257 26.9791 785.205 27.0233 785.165 27.0768C785.124 27.1303 785.096 27.1918 785.082 27.2571L784.482 29.2277C784.458 29.277 784.45 29.3322 784.459 29.3861C784.467 29.44 784.493 29.4901 784.531 29.5297C784.599 29.5927 784.688 29.6294 784.782 29.633H793.52L791.372 36.6734H782.658C782.546 36.6759 782.437 36.709 782.342 36.7688C782.228 36.8402 782.144 36.9505 782.107 37.0787L781.499 39.0494C781.48 39.0999 781.474 39.1549 781.484 39.2081C781.494 39.2615 781.519 39.311 781.556 39.3513C781.622 39.4185 781.712 39.4583 781.807 39.4625H793.252C793.371 39.4526 793.485 39.4144 793.585 39.3513C793.704 39.2854 793.794 39.1775 793.836 39.0494L797.127 28.2742H793.422C793.364 28.2753 793.305 28.2646 793.251 28.2428C793.197 28.2209 793.147 28.1883 793.106 28.147C793.039 28.075 792.992 27.9875 792.969 27.8928V27.8769Z" fill="white"/>
</g>
<defs>
<clipPath id="clip0_4_426">
<rect width="27.8428" height="27.8428" fill="white" transform="translate(2.78555 20.1947) scale(1.00043)"/>
</clipPath>
<clipPath id="clip1_4_426">
<rect width="27.8428" height="19.4899" fill="white" transform="translate(130.917 24.2661) scale(1.00043)"/>
</clipPath>
<clipPath id="clip2_4_426">
<rect width="38.2838" height="20.8821" fill="white" transform="translate(254.174 23.5698) scale(1.00043)"/>
</clipPath>
<clipPath id="clip3_4_426">
<rect width="32.7153" height="20.186" fill="white" transform="translate(385.091 24.2661) scale(1.00043)"/>
</clipPath>
<clipPath id="clip4_4_426">
<rect width="28.5388" height="18.7939" fill="white" transform="translate(515.311 24.9626) scale(1.00043)"/>
</clipPath>
<clipPath id="clip5_4_426">
<rect width="36.1956" height="13.9214" fill="white" transform="translate(639.265 27.0516) scale(1.00043)"/>
</clipPath>
<clipPath id="clip6_4_426">
<rect width="38.2838" height="20.8821" fill="white" transform="translate(766.7 23.5698) scale(1.00043)"/>
</clipPath>
</defs>
</svg>
