<svg width="10" height="11" viewBox="0 0 10 11" fill="none" xmlns="http://www.w3.org/2000/svg">
<path opacity="0.1" d="M6.03382 5.60274C6.55831 5.37178 7.00329 4.99167 7.31339 4.50973C7.6235 4.02779 7.78504 3.46529 7.7779 2.89225C7.79745 2.51973 7.74094 2.14713 7.61185 1.79715C7.48275 1.44717 7.28376 1.12713 7.02699 0.856539C6.77022 0.585944 6.46105 0.370457 6.11832 0.2232C5.77558 0.0759431 5.40645 0 5.03342 0C4.66039 0 4.29126 0.0759431 3.94853 0.2232C3.60579 0.370457 3.29662 0.585944 3.03985 0.856539C2.78308 1.12713 2.58409 1.44717 2.455 1.79715C2.3259 2.14713 2.26941 2.51973 2.28896 2.89225C2.27746 3.47103 2.43769 4.04025 2.74944 4.52804C3.06119 5.01583 3.51048 5.40031 4.04058 5.63295C-0.187504 6.26716 0.00126851 10.8576 0.00126851 10.8576L9.99765 10.9029C9.99765 10.9029 10.2317 6.22941 6.03382 5.60274Z" fill="black"/>
</svg>
