<svg width="34" height="34" viewBox="0 0 34 34" fill="none" xmlns="http://www.w3.org/2000/svg">
<mask id="path-1-inside-1_4_720" fill="white">
<path d="M20.0541 16.7483C19.8835 16.7483 19.7251 16.7014 19.5845 16.626V16.628C19.5845 16.8963 19.4802 17.1483 19.2909 17.3371C19.1017 17.5263 18.8499 17.6306 18.5818 17.6306C18.4088 17.6306 18.2484 17.5826 18.1062 17.5051C18.0919 17.7506 17.9937 17.9801 17.8187 18.1553C17.6294 18.3445 17.3776 18.4489 17.1094 18.4489C16.5765 18.4489 16.1438 18.03 16.1126 17.505C15.9477 17.5941 15.7613 17.6408 15.5691 17.6284C15.0449 17.5941 14.6344 17.1412 14.6344 16.5971V12.0874L14.1209 12.977C13.9253 13.3173 13.5592 13.5286 13.165 13.5286C12.9729 13.5286 12.7831 13.4782 12.6151 13.3819C12.4058 13.2606 12.2561 13.0658 12.1939 12.8328C12.1313 12.5997 12.1637 12.3559 12.2847 12.1469C12.2848 12.1469 13.9648 9.23767 14.0673 9.05896C14.0795 9.03209 14.1142 8.95416 14.1437 8.88774C14.1719 8.82433 14.1961 8.75925 14.2193 8.69383C14.726 7.2635 15.9805 6.37502 17.4934 6.37502C19.4581 6.37502 21.0565 8.10824 21.0565 10.2387L21.0566 15.7455C21.0566 16.0135 20.9525 16.2653 20.7634 16.4548C20.5742 16.644 20.3224 16.7483 20.054 16.7483L20.0541 16.7483ZM17.4934 6.90779C16.1934 6.90779 15.1572 7.64209 14.7215 8.872C14.6936 8.9501 14.6646 9.0282 14.6307 9.1043C14.5324 9.32475 14.5324 9.32475 14.5047 9.35646L14.5011 9.35329C14.3639 9.61212 13.9564 10.3179 12.746 12.4136C12.6962 12.4995 12.683 12.5993 12.7084 12.6948C12.7341 12.7902 12.7957 12.8707 12.881 12.9199C13.1456 13.0719 13.5081 12.9738 13.659 12.711L14.6701 10.9603C14.7305 10.856 14.8527 10.8048 14.9698 10.8365C15.0863 10.8677 15.1673 10.9734 15.1673 11.0938V16.5973C15.1673 16.8569 15.3632 17.081 15.604 17.0969C15.7428 17.1042 15.8723 17.0577 15.9696 16.9605C16.0581 16.8721 16.1068 16.7543 16.1068 16.6283V13.029C16.1068 12.8818 16.2261 12.7625 16.3733 12.7625C16.5205 12.7625 16.6398 12.8816 16.6398 13.029L16.6397 17.4464C16.6397 17.7054 16.8504 17.9162 17.1094 17.9162C17.2353 17.9162 17.3534 17.8674 17.442 17.779C17.5305 17.6904 17.5792 17.5722 17.5792 17.4464V13.029C17.5792 12.8818 17.6984 12.7625 17.8457 12.7625C17.9929 12.7625 18.1122 12.8816 18.1122 13.029L18.1121 16.5869V16.6283C18.1121 16.8871 18.3228 17.0979 18.582 17.0979C18.7077 17.0979 18.8255 17.049 18.9146 16.9602C19.003 16.8719 19.0518 16.7541 19.0518 16.6281V13.0288C19.0518 12.8816 19.1709 12.7623 19.3183 12.7623C19.4655 12.7623 19.5848 12.8814 19.5848 13.0288L19.5845 15.7456C19.5845 16.0048 19.7952 16.2156 20.0541 16.2156C20.1801 16.2156 20.2979 16.1667 20.3863 16.0784C20.4751 15.9896 20.5237 15.8715 20.5237 15.7456L20.5238 10.2388C20.5238 8.40229 19.1644 6.90784 17.4934 6.90784L17.4934 6.90779Z"/>
</mask>
<path d="M20.0541 16.7483C19.8835 16.7483 19.7251 16.7014 19.5845 16.626V16.628C19.5845 16.8963 19.4802 17.1483 19.2909 17.3371C19.1017 17.5263 18.8499 17.6306 18.5818 17.6306C18.4088 17.6306 18.2484 17.5826 18.1062 17.5051C18.0919 17.7506 17.9937 17.9801 17.8187 18.1553C17.6294 18.3445 17.3776 18.4489 17.1094 18.4489C16.5765 18.4489 16.1438 18.03 16.1126 17.505C15.9477 17.5941 15.7613 17.6408 15.5691 17.6284C15.0449 17.5941 14.6344 17.1412 14.6344 16.5971V12.0874L14.1209 12.977C13.9253 13.3173 13.5592 13.5286 13.165 13.5286C12.9729 13.5286 12.7831 13.4782 12.6151 13.3819C12.4058 13.2606 12.2561 13.0658 12.1939 12.8328C12.1313 12.5997 12.1637 12.3559 12.2847 12.1469C12.2848 12.1469 13.9648 9.23767 14.0673 9.05896C14.0795 9.03209 14.1142 8.95416 14.1437 8.88774C14.1719 8.82433 14.1961 8.75925 14.2193 8.69383C14.726 7.2635 15.9805 6.37502 17.4934 6.37502C19.4581 6.37502 21.0565 8.10824 21.0565 10.2387L21.0566 15.7455C21.0566 16.0135 20.9525 16.2653 20.7634 16.4548C20.5742 16.644 20.3224 16.7483 20.054 16.7483L20.0541 16.7483ZM17.4934 6.90779C16.1934 6.90779 15.1572 7.64209 14.7215 8.872C14.6936 8.9501 14.6646 9.0282 14.6307 9.1043C14.5324 9.32475 14.5324 9.32475 14.5047 9.35646L14.5011 9.35329C14.3639 9.61212 13.9564 10.3179 12.746 12.4136C12.6962 12.4995 12.683 12.5993 12.7084 12.6948C12.7341 12.7902 12.7957 12.8707 12.881 12.9199C13.1456 13.0719 13.5081 12.9738 13.659 12.711L14.6701 10.9603C14.7305 10.856 14.8527 10.8048 14.9698 10.8365C15.0863 10.8677 15.1673 10.9734 15.1673 11.0938V16.5973C15.1673 16.8569 15.3632 17.081 15.604 17.0969C15.7428 17.1042 15.8723 17.0577 15.9696 16.9605C16.0581 16.8721 16.1068 16.7543 16.1068 16.6283V13.029C16.1068 12.8818 16.2261 12.7625 16.3733 12.7625C16.5205 12.7625 16.6398 12.8816 16.6398 13.029L16.6397 17.4464C16.6397 17.7054 16.8504 17.9162 17.1094 17.9162C17.2353 17.9162 17.3534 17.8674 17.442 17.779C17.5305 17.6904 17.5792 17.5722 17.5792 17.4464V13.029C17.5792 12.8818 17.6984 12.7625 17.8457 12.7625C17.9929 12.7625 18.1122 12.8816 18.1122 13.029L18.1121 16.5869V16.6283C18.1121 16.8871 18.3228 17.0979 18.582 17.0979C18.7077 17.0979 18.8255 17.049 18.9146 16.9602C19.003 16.8719 19.0518 16.7541 19.0518 16.6281V13.0288C19.0518 12.8816 19.1709 12.7623 19.3183 12.7623C19.4655 12.7623 19.5848 12.8814 19.5848 13.0288L19.5845 15.7456C19.5845 16.0048 19.7952 16.2156 20.0541 16.2156C20.1801 16.2156 20.2979 16.1667 20.3863 16.0784C20.4751 15.9896 20.5237 15.8715 20.5237 15.7456L20.5238 10.2388C20.5238 8.40229 19.1644 6.90784 17.4934 6.90784L17.4934 6.90779Z" fill="#4CAF4F"/>
<path d="M20.0541 16.7483V15.8039H23.3908L20.5491 17.5526L20.0541 16.7483ZM19.5845 16.626H18.64V15.0479L20.0308 15.7936L19.5845 16.626ZM19.2909 17.3371L18.6231 16.6693L18.624 16.6684L19.2909 17.3371ZM18.1062 17.5051L17.1634 17.45L17.2503 15.9636L18.5579 16.6757L18.1062 17.5051ZM17.8187 18.1553L18.4868 18.8228L18.4865 18.8231L17.8187 18.1553ZM16.1126 17.505L15.6636 16.6741L16.9675 15.9694L17.0554 17.449L16.1126 17.505ZM15.5691 17.6284L15.5085 18.571L15.5073 18.5709L15.5691 17.6284ZM14.6344 12.0874L13.8164 11.6153L15.5788 8.56199V12.0874H14.6344ZM14.1209 12.977L13.302 12.5064L13.3029 12.5049L14.1209 12.977ZM12.6151 13.3819L12.1455 14.2013L12.1414 14.199L12.6151 13.3819ZM12.1939 12.8328L13.106 12.588L13.1063 12.589L12.1939 12.8328ZM12.2847 12.1469L11.4673 11.6737L11.7402 11.2025H12.2847V12.1469ZM14.0673 9.05896L14.9275 9.44897L14.9089 9.48987L14.8866 9.52882L14.0673 9.05896ZM14.1437 8.88774L13.2808 8.50397L13.2808 8.50396L14.1437 8.88774ZM14.2193 8.69383L15.1096 9.00916L15.1095 9.00942L14.2193 8.69383ZM21.0565 10.2387L20.112 10.2387V10.2387H21.0565ZM21.0566 15.7455L22.0011 15.7455V15.7455H21.0566ZM20.7634 16.4548L21.4319 17.122L21.4313 17.1226L20.7634 16.4548ZM20.054 16.7483V17.6928H16.7173L19.5591 15.944L20.054 16.7483ZM17.4934 6.90779V5.96334H18.7455L18.4015 7.16724L17.4934 6.90779ZM14.7215 8.872L15.6117 9.18738L15.611 9.18941L14.7215 8.872ZM14.6307 9.1043L15.4935 9.48841L15.4933 9.4889L14.6307 9.1043ZM14.5047 9.35646L15.2159 9.97787L14.5981 10.685L13.8874 10.0712L14.5047 9.35646ZM14.5011 9.35329L13.6666 8.91103L14.2215 7.86394L15.1184 8.63851L14.5011 9.35329ZM12.746 12.4136L13.5638 12.8859L13.5634 12.8866L12.746 12.4136ZM12.7084 12.6948L11.7964 12.9403L11.7957 12.9373L12.7084 12.6948ZM12.881 12.9199L12.4106 13.7388L12.4088 13.7378L12.881 12.9199ZM13.659 12.711L12.8399 12.2408L12.8412 12.2386L13.659 12.711ZM14.6701 10.9603L13.8523 10.488L13.8529 10.487L14.6701 10.9603ZM14.9698 10.8365L14.7254 11.7488L14.7231 11.7482L14.9698 10.8365ZM15.604 17.0969L15.5541 18.0401L15.542 18.0393L15.604 17.0969ZM15.9696 16.9605L16.6375 17.6284L16.6369 17.629L15.9696 16.9605ZM16.6398 13.029H17.5843V13.029L16.6398 13.029ZM16.6397 17.4464H15.6952V17.4464L16.6397 17.4464ZM17.442 17.779L18.1105 18.4462L18.1092 18.4475L17.442 17.779ZM18.1122 13.029H19.0567V13.029L18.1122 13.029ZM18.1121 16.5869H17.1676V16.5868L18.1121 16.5869ZM18.9146 16.9602L19.5818 17.6286L19.5812 17.6293L18.9146 16.9602ZM19.5848 13.0288H20.5292V13.0289L19.5848 13.0288ZM19.5845 15.7456H18.64V15.7455L19.5845 15.7456ZM20.3863 16.0784L21.0541 16.7462L21.0535 16.7469L20.3863 16.0784ZM20.5237 15.7456H19.5792V15.7456L20.5237 15.7456ZM20.5238 10.2388H21.4683V10.2388L20.5238 10.2388ZM17.4934 6.90784V7.85228H16.2413L16.5853 6.64838L17.4934 6.90784ZM20.0541 17.6927C19.7063 17.6927 19.3958 17.5965 19.1382 17.4583L20.0308 15.7936C20.043 15.8002 20.0507 15.8027 20.0538 15.8035C20.0564 15.8042 20.0561 15.8039 20.0541 15.8039V17.6927ZM20.5289 16.626V16.628H18.64V16.626H20.5289ZM20.5289 16.628C20.5289 17.146 20.3256 17.639 19.9579 18.0058L18.624 16.6684C18.6307 16.6616 18.6341 16.6559 18.636 16.6512C18.638 16.6464 18.64 16.6391 18.64 16.628H20.5289ZM19.9588 18.0049C19.5922 18.3714 19.1001 18.5751 18.5818 18.5751V16.6862C18.5927 16.6862 18.5998 16.6842 18.6046 16.6822C18.6095 16.6802 18.6157 16.6766 18.6231 16.6693L19.9588 18.0049ZM18.5818 18.5751C18.2295 18.5751 17.9152 18.4765 17.6545 18.3346L18.5579 16.6757C18.5702 16.6824 18.578 16.6849 18.5811 16.6858C18.5837 16.6865 18.5835 16.6862 18.5818 16.6862V18.5751ZM19.049 17.5602C19.0219 18.0251 18.8333 18.476 18.4868 18.8228L17.1505 17.4878C17.154 17.4843 17.156 17.4812 17.1577 17.4773C17.1596 17.4731 17.1625 17.4644 17.1634 17.45L19.049 17.5602ZM18.4865 18.8231C18.1199 19.1897 17.6278 19.3933 17.1094 19.3933V17.5044C17.1204 17.5044 17.1276 17.5024 17.1324 17.5004C17.1372 17.4984 17.1435 17.4949 17.1509 17.4875L18.4865 18.8231ZM17.1094 19.3933C16.0667 19.3933 15.2301 18.575 15.1698 17.561L17.0554 17.449C17.0564 17.465 17.0629 17.4791 17.0746 17.4902C17.0802 17.4956 17.086 17.4991 17.091 17.5011C17.0954 17.5029 17.101 17.5044 17.1094 17.5044V19.3933ZM16.5617 18.3358C16.2566 18.5007 15.8949 18.5958 15.5085 18.5709L15.6296 16.6859C15.6296 16.6859 15.6317 16.6861 15.6366 16.685C15.642 16.6837 15.6512 16.6808 15.6636 16.6741L16.5617 18.3358ZM15.5073 18.5709C14.4586 18.5021 13.6899 17.6103 13.6899 16.5971H15.5788C15.5788 16.629 15.5904 16.6536 15.6049 16.6697C15.6191 16.6853 15.6287 16.6859 15.6309 16.686L15.5073 18.5709ZM13.6899 16.5971V12.0874H15.5788V16.5971H13.6899ZM15.4523 12.5595L14.9388 13.4492L13.3029 12.5049L13.8164 11.6153L15.4523 12.5595ZM14.9397 13.4477C14.5747 14.0826 13.8954 14.473 13.165 14.473V12.5841C13.2229 12.5841 13.2758 12.552 13.302 12.5064L14.9397 13.4477ZM13.165 14.473C12.8078 14.473 12.4562 14.3794 12.1455 14.2013L13.0846 12.5624C13.11 12.577 13.1379 12.5841 13.165 12.5841V14.473ZM12.1414 14.199C11.7174 13.9531 11.4087 13.5531 11.2814 13.0766L13.1063 12.589C13.1055 12.5858 13.1031 12.5801 13.0986 12.5742C13.094 12.5683 13.0899 12.5655 13.0888 12.5648L12.1414 14.199ZM11.2817 13.0777C11.1539 12.6016 11.2208 12.0994 11.4673 11.6737L13.102 12.6202C13.1033 12.6179 13.1057 12.6125 13.1067 12.6048C13.1077 12.5972 13.1069 12.5911 13.106 12.588L11.2817 13.0777ZM12.2847 11.2025C11.8214 11.3239 11.4746 11.6614 11.472 11.6657C11.4712 11.6672 11.4699 11.6693 11.4695 11.67C11.4692 11.6704 11.4688 11.6711 11.4687 11.6714C11.4686 11.6715 11.4684 11.6718 11.4684 11.6719C11.4683 11.6721 11.4683 11.672 11.4687 11.6714C11.4693 11.6703 11.4704 11.6685 11.4719 11.6657C11.475 11.6604 11.4797 11.6523 11.4859 11.6417C11.4982 11.6204 11.5162 11.5891 11.5393 11.5492C11.5854 11.4693 11.6514 11.355 11.731 11.2172C11.8901 10.9417 12.1033 10.5725 12.3197 10.1977C12.7532 9.44686 13.1977 8.67688 13.248 8.5891L14.8866 9.52882C14.8344 9.61975 14.3876 10.3938 13.9555 11.1422C13.7391 11.517 13.5259 11.8863 13.3667 12.1619C13.2871 12.2997 13.2211 12.414 13.1749 12.494C13.1518 12.5339 13.1337 12.5653 13.1213 12.5868C13.1151 12.5975 13.1103 12.6058 13.1071 12.6114C13.1054 12.6142 13.1041 12.6165 13.1031 12.6182C13.1027 12.619 13.1021 12.62 13.1016 12.6209C13.1014 12.6213 13.1007 12.6223 13.1 12.6236C13.0996 12.6243 13.0982 12.6266 13.0973 12.6281C13.0947 12.6325 12.7479 12.9699 12.2847 13.0914V11.2025ZM13.2072 8.66895C13.2176 8.64602 13.2505 8.5721 13.2808 8.50397L15.0067 9.27151C14.9779 9.33623 14.9414 9.41817 14.9275 9.44897L13.2072 8.66895ZM13.2808 8.50396C13.2939 8.47445 13.3084 8.43673 13.3292 8.37823L15.1095 9.00942C15.0838 9.08176 15.05 9.17421 15.0067 9.27153L13.2808 8.50396ZM13.3291 8.37849C13.9688 6.57261 15.5788 5.43058 17.4934 5.43058V7.31946C16.3821 7.31946 15.4832 7.9544 15.1096 9.00916L13.3291 8.37849ZM17.4934 5.43058C20.0503 5.43058 22.0009 7.66011 22.0009 10.2387H20.112C20.112 8.55637 18.8659 7.31946 17.4934 7.31946V5.43058ZM22.0009 10.2387L22.0011 15.7455L20.1122 15.7455L20.112 10.2387L22.0009 10.2387ZM22.0011 15.7455C22.0011 16.2634 21.7979 16.7553 21.4319 17.122L20.095 15.7876C20.1025 15.7801 20.1061 15.7737 20.1081 15.7688C20.1102 15.7638 20.1122 15.7565 20.1122 15.7455H22.0011ZM21.4313 17.1226C21.0646 17.4892 20.5725 17.6928 20.054 17.6928V15.8039C20.0651 15.8039 20.0724 15.8019 20.0772 15.7999C20.082 15.7979 20.0882 15.7943 20.0956 15.787L21.4313 17.1226ZM19.5591 15.944L19.5591 15.944L20.5491 17.5526L20.549 17.5527L19.5591 15.944ZM17.4934 7.85223C16.5955 7.85223 15.9146 8.33259 15.6117 9.18738L13.8313 8.55662C14.3999 6.95159 15.7913 5.96334 17.4934 5.96334V7.85223ZM15.611 9.18941C15.5812 9.27296 15.5425 9.37847 15.4935 9.48841L13.7679 8.7202C13.7867 8.67793 13.8061 8.62724 13.832 8.55459L15.611 9.18941ZM15.4933 9.4889C15.4501 9.58591 15.4138 9.66782 15.3861 9.72331C15.3689 9.75775 15.341 9.81082 15.3006 9.86961C15.2597 9.92918 15.2192 9.9741 15.2159 9.97787L13.7935 8.73505C13.7957 8.73251 13.795 8.73333 13.7939 8.73463C13.7924 8.73631 13.7888 8.74059 13.784 8.74646C13.779 8.75254 13.7727 8.76039 13.7656 8.76973C13.7585 8.77916 13.7512 8.78918 13.7439 8.79975C13.7291 8.82128 13.7177 8.84014 13.7096 8.8544C13.7021 8.86772 13.6974 8.87693 13.6964 8.87901C13.6953 8.88115 13.696 8.87989 13.6992 8.87302C13.7023 8.86636 13.7067 8.85677 13.713 8.84281C13.7193 8.82898 13.7268 8.81227 13.736 8.79162C13.7453 8.77101 13.7558 8.74739 13.7681 8.7197L15.4933 9.4889ZM13.8874 10.0712L13.8837 10.0681L15.1184 8.63851L15.122 8.64168L13.8874 10.0712ZM15.3355 9.79555C15.1877 10.0745 14.7658 10.8048 13.5638 12.8859L11.9281 11.9412C13.147 9.83089 13.54 9.14979 13.6666 8.91103L15.3355 9.79555ZM13.5634 12.8866C13.639 12.756 13.66 12.5984 13.6212 12.4522L11.7957 12.9373C11.7061 12.6002 11.7535 12.243 11.9285 11.9405L13.5634 12.8866ZM13.6204 12.4492C13.5815 12.3049 13.486 12.1786 13.3531 12.1019L12.4088 13.7378C12.1054 13.5627 11.8867 13.2756 11.7964 12.9403L13.6204 12.4492ZM13.3514 12.1009C13.2439 12.0392 13.1393 12.0396 13.0671 12.059C12.9952 12.0784 12.903 12.1308 12.8399 12.2408L14.4781 13.1811C14.0665 13.8982 13.1258 14.1497 12.4106 13.7388L13.3514 12.1009ZM12.8412 12.2386L13.8523 10.488L15.4879 11.4327L14.4768 13.1833L12.8412 12.2386ZM13.8529 10.487C14.1257 10.016 14.6825 9.78031 15.2166 9.92488L14.7231 11.7482C15.0229 11.8293 15.3354 11.6961 15.4874 11.4337L13.8529 10.487ZM15.2142 9.92425C15.7441 10.0662 16.1117 10.5463 16.1117 11.0938H14.2228C14.2228 11.4004 14.4286 11.6693 14.7254 11.7488L15.2142 9.92425ZM16.1117 11.0938V16.5973H14.2228V11.0938H16.1117ZM16.1117 16.5973C16.1117 16.4896 16.0718 16.3918 16.0064 16.3169C15.941 16.2422 15.8257 16.165 15.666 16.1545L15.542 18.0393C14.7469 17.987 14.2228 17.2944 14.2228 16.5973H16.1117ZM15.6539 16.1538C15.5423 16.1479 15.406 16.1887 15.3024 16.2921L16.6369 17.629C16.3387 17.9266 15.9434 18.0606 15.5541 18.04L15.6539 16.1538ZM15.3018 16.2927C15.2122 16.3824 15.1624 16.5052 15.1624 16.6283H17.0513C17.0513 17.0034 16.904 17.3618 16.6375 17.6284L15.3018 16.2927ZM15.1624 16.6283V13.029H17.0513V16.6283H15.1624ZM15.1624 13.029C15.1624 12.3602 15.7045 11.818 16.3733 11.818V13.7069C16.7477 13.7069 17.0513 13.4034 17.0513 13.029H15.1624ZM16.3733 11.818C17.0417 11.818 17.5843 12.3596 17.5843 13.029H15.6954C15.6954 13.4036 15.9993 13.7069 16.3733 13.7069V11.818ZM17.5843 13.029L17.5841 17.4464L15.6952 17.4464L15.6954 13.0289L17.5843 13.029ZM17.5841 17.4464C17.5841 17.1838 17.372 16.9717 17.1094 16.9717V18.8606C16.3288 18.8606 15.6952 18.227 15.6952 17.4464H17.5841ZM17.1094 16.9717C16.9865 16.9717 16.8643 17.0213 16.7749 17.1105L18.1092 18.4475C17.8425 18.7136 17.484 18.8606 17.1094 18.8606V16.9717ZM16.7736 17.1118C16.6843 17.2013 16.6348 17.3235 16.6348 17.4464H18.5236C18.5236 17.821 18.3767 18.1795 18.1105 18.4462L16.7736 17.1118ZM16.6348 17.4464V13.029H18.5236V17.4464H16.6348ZM16.6348 13.029C16.6348 12.3606 17.1764 11.818 17.8457 11.818V13.7069C18.2204 13.7069 18.5236 13.403 18.5236 13.029H16.6348ZM17.8457 11.818C18.5141 11.818 19.0567 12.3596 19.0567 13.029H17.1678C17.1678 13.4036 17.4717 13.7069 17.8457 13.7069V11.818ZM19.0567 13.029L19.0565 16.5869L17.1676 16.5868L17.1678 13.0289L19.0567 13.029ZM19.0565 16.5869V16.6283H17.1676V16.5869H19.0565ZM19.0565 16.6283C19.0565 16.365 18.844 16.1534 18.582 16.1534V18.0423C17.8017 18.0423 17.1676 17.4092 17.1676 16.6283H19.0565ZM18.582 16.1534C18.4565 16.1534 18.335 16.2045 18.248 16.2911L19.5812 17.6293C19.3159 17.8935 18.9588 18.0423 18.582 18.0423V16.1534ZM18.2474 16.2917C18.1571 16.3819 18.1073 16.5051 18.1073 16.6281H19.9962C19.9962 17.0031 19.849 17.3619 19.5818 17.6286L18.2474 16.2917ZM18.1073 16.6281V13.0288H19.9962V16.6281H18.1073ZM18.1073 13.0288C18.1073 12.3604 18.6489 11.8178 19.3183 11.8178V13.7067C19.6929 13.7067 19.9962 13.4028 19.9962 13.0288H18.1073ZM19.3183 11.8178C19.9867 11.8178 20.5292 12.3595 20.5292 13.0288H18.6403C18.6403 13.4034 18.9443 13.7067 19.3183 13.7067V11.8178ZM20.5292 13.0289L20.5289 15.7458L18.64 15.7455L18.6403 13.0287L20.5292 13.0289ZM20.5289 15.7456C20.5289 15.4836 20.3173 15.2711 20.0541 15.2711V17.16C19.2732 17.16 18.64 16.526 18.64 15.7456H20.5289ZM20.0541 15.2711C19.9302 15.2711 19.8079 15.3213 19.7191 15.4099L21.0535 16.7469C20.7878 17.0121 20.4299 17.16 20.0541 17.16V15.2711ZM19.7185 15.4106C19.6286 15.5005 19.5792 15.6232 19.5792 15.7456H21.4681C21.4681 16.1197 21.3216 16.4787 21.0541 16.7462L19.7185 15.4106ZM19.5792 15.7456L19.5794 10.2388L21.4683 10.2388L21.4681 15.7457L19.5792 15.7456ZM19.5794 10.2388C19.5794 8.83782 18.5607 7.85228 17.4934 7.85228V5.9634C19.7681 5.9634 21.4683 7.96676 21.4683 10.2388H19.5794ZM16.5853 6.64838L16.5853 6.64833L18.4015 7.16724L18.4015 7.1673L16.5853 6.64838Z" fill="#4CAF4F" mask="url(#path-1-inside-1_4_720)"/>
<path d="M11.422 21.8109C11.2956 21.887 11.132 21.8459 11.0564 21.7196C10.9806 21.5934 11.0217 21.4297 11.1477 21.3539M11.422 21.8109L13.7245 18.7127C13.947 18.579 14.2403 18.6318 14.3775 18.8302M11.422 21.8109L14.5083 19.9593H14.5085L14.5088 19.9591M11.422 21.8109L15.6934 20.3441C15.8012 20.2794 15.8773 20.1769 15.9076 20.0553M11.1477 21.3539L14.2342 19.5024C14.342 19.4376 14.4182 19.335 14.4486 19.2137M11.1477 21.3539L11.1789 21.406L11.2848 21.5825L11.285 21.5828L11.3327 21.6623L11.3906 21.7589L11.3907 21.7588L11.3908 21.7588L11.391 21.7586M11.1477 21.3539L11.179 21.406M14.4486 19.2137C14.482 19.0805 14.4566 18.9443 14.3775 18.8302M14.4486 19.2137L14.5248 19.2328L14.5175 19.0762C14.5125 18.9684 14.481 18.8728 14.4276 18.7959L14.4275 18.7956L14.3775 18.8302M14.4486 19.2137L14.5248 19.2328L14.5323 19.3944L14.3778 19.4871H14.3776L14.2654 19.5544L14.2654 19.5544L14.2654 19.5544L11.1791 21.4059M14.3775 18.8302L14.4274 18.7956L12.1487 23.0212C12.2456 22.963 12.2776 22.8369 12.2189 22.7391C12.1606 22.642 12.0341 22.6101 11.9368 22.6685L15.0231 20.8171C15.094 20.7745 15.1683 20.7423 15.2442 20.7202L15.7229 20.3933L15.7229 20.3933L15.7493 20.3753C15.8616 20.2987 15.9359 20.1924 15.9664 20.0701L15.9664 20.07L15.9076 20.0553M11.1791 21.4059C11.2762 21.3479 11.4027 21.3793 11.4612 21.4765C11.4614 21.4767 11.4615 21.4769 11.4616 21.4771C11.5199 21.5749 11.4877 21.7005 11.391 21.7586M11.1791 21.4059C11.1791 21.406 11.179 21.406 11.179 21.406M11.1791 21.4059L11.179 21.406M11.391 21.7586L14.4771 19.9073L14.4771 19.9073L14.4773 19.9072C14.4774 19.9072 14.4775 19.9071 14.4776 19.907L14.5083 19.9583L14.5085 19.9586L14.5088 19.9591M11.391 21.7586L11.2852 21.5827L11.285 21.5823L11.2492 21.5228L11.179 21.406M14.5088 19.9591V19.8874C14.5684 19.8484 14.6229 19.8032 14.6716 19.7528L15.1796 19.4876L15.1796 19.4876L15.2077 19.4729C15.2894 19.4303 15.3717 19.4103 15.45 19.4103C15.4923 19.4103 15.5359 19.4156 15.5803 19.4266C15.5804 19.4266 15.5804 19.4266 15.5804 19.4266C15.5806 19.4267 15.5807 19.4267 15.5809 19.4267L15.6803 19.0274M14.5088 19.9591L15.2101 19.5384C15.3176 19.474 15.4434 19.4552 15.5657 19.4855C15.6874 19.5159 15.79 19.592 15.8546 19.6996C15.9192 19.8074 15.938 19.9338 15.9076 20.0553M15.6803 19.0274C15.6803 19.0274 15.6803 19.0274 15.6802 19.0274M15.6803 19.0274C15.9236 19.0882 16.1305 19.2418 16.2594 19.4566L16.3114 19.4254M15.6803 19.0274L15.695 18.9685M15.6802 19.0274L15.5805 19.4266C15.7186 19.4611 15.8331 19.546 15.9064 19.6683C15.9065 19.6683 15.9065 19.6684 15.9066 19.6685C15.9066 19.6685 15.9066 19.6685 15.9066 19.6685C15.9801 19.7913 16.0009 19.9322 15.9665 20.0698L15.9664 20.0699L15.9076 20.0553M15.6802 19.0274C15.6802 19.0274 15.6801 19.0274 15.6801 19.0274L15.6795 19.0272C15.6065 19.0091 15.5326 18.9998 15.459 18.9992M15.6802 19.0274L15.695 18.9685M15.2349 21.1698L15.5011 21.0101L15.7756 21.1721C15.8578 21.2206 15.92 21.2813 15.962 21.3515L15.9621 21.3517C15.9622 21.3518 15.9622 21.3519 15.9623 21.352L15.9105 21.3831M15.2349 21.1698L16.0224 21.7535C16.0567 21.6155 16.0358 21.4747 15.9623 21.352L15.9105 21.3831M15.2349 21.1698L15.2661 21.2219M15.2349 21.1698L15.2349 21.1698L15.2661 21.2219M15.9105 21.3831C15.7771 21.161 15.4879 21.0887 15.2661 21.2219M15.9105 21.3831C15.9752 21.4908 15.9941 21.6172 15.9637 21.7389L15.2661 21.2219M16.3604 21.0979C16.3627 21.1016 16.3649 21.1052 16.3672 21.1089L16.3604 21.0979ZM16.3604 21.0979C16.3445 21.1103 16.3283 21.1225 16.3118 21.1343C16.3129 21.1361 16.314 21.1379 16.3151 21.1397L16.3604 21.0979ZM16.2869 20.3777C16.321 20.3124 16.3475 20.2428 16.3658 20.1698L16.2869 20.3777ZM16.2869 20.3777C16.3039 20.3882 16.3207 20.3991 16.3373 20.4103C16.3752 20.3398 16.4047 20.2642 16.4246 20.1844C16.4895 19.9249 16.4493 19.6554 16.3114 19.4254M16.2869 20.3777L16.3658 20.1697C16.4266 19.9263 16.3883 19.6716 16.2597 19.457L16.2595 19.4567C16.2595 19.4566 16.2595 19.4566 16.2594 19.4566L16.3114 19.4254M16.3114 19.4254C16.1737 19.1958 15.9548 19.0334 15.695 18.9685M15.695 18.9685L15.4537 18.9381M15.4537 18.9381C15.4559 18.9585 15.4577 18.9789 15.459 18.9992M15.4537 18.9381C15.4525 18.9381 15.4512 18.9381 15.45 18.9381C15.2903 18.9381 15.1334 18.979 14.9892 19.0543M15.4537 18.9381L14.9892 19.0543M15.459 18.9992C15.4598 19.0103 15.4604 19.0213 15.4609 19.0324L15.45 19.0329L15.1568 19.0465M15.459 18.9992C15.456 18.9992 15.453 18.9991 15.45 18.9991C15.3503 18.9992 15.2515 19.0152 15.1568 19.0465M15.1568 19.0465L14.9892 19.0543M15.1568 19.0465C15.1087 19.0624 15.0617 19.0822 15.0162 19.106C14.9997 19.1146 14.9834 19.1238 14.9673 19.1334L14.9671 19.1335L14.9336 19.1536M14.9892 19.0543L14.7201 19.2817L14.7202 19.2817L14.9067 19.3284C14.9067 19.3284 14.9067 19.3284 14.9067 19.3285C14.9212 19.2704 14.9301 19.2119 14.9336 19.1536M14.9892 19.0543L14.9171 18.9162M14.9892 19.0543C14.9817 18.8934 14.9393 18.735 14.8579 18.5935C14.8394 18.6018 14.8211 18.6104 14.8029 18.6193M14.9336 19.1536C14.9355 19.1213 14.9357 19.089 14.9342 19.0568C14.9321 19.0094 14.9264 18.9624 14.9171 18.9162M14.9336 19.1536L14.9171 18.9162M14.9171 18.9162L14.7707 18.6357C14.7814 18.6301 14.7921 18.6246 14.8029 18.6193M14.9171 18.9162L14.7657 18.5614C14.7789 18.5803 14.7913 18.5996 14.8029 18.6193M14.9171 18.9162C14.8964 18.8123 14.8579 18.7121 14.8029 18.6193M16.0155 20.7653L16.0963 20.6285C16.0613 20.6612 16.0237 20.6914 15.9837 20.7187C15.9683 20.7292 15.9526 20.7393 15.9365 20.749L15.9363 20.7491L15.9022 20.7696L16.0155 20.7653ZM8.47418 18.5677L8.42049 18.5394C8.41062 18.5572 8.38605 18.6014 8.34976 18.6668C8.34077 18.683 8.33106 18.7005 8.32068 18.7192C8.33919 18.7284 8.35785 18.7365 8.37655 18.7436C8.40847 18.6861 8.44101 18.6274 8.47418 18.5677ZM12.6942 23.9312C12.6942 23.9312 12.6941 23.9312 12.6941 23.9312L12.6942 23.9312Z" fill="#4CAF4F" stroke="#4CAF4F" stroke-width="0.928093"/>
<path d="M24.6021 19.4185L24.6021 19.4185L24.6021 19.4185ZM24.6021 19.4185C24.5032 19.2412 24.5072 19.023 24.612 18.8482L24.6021 19.4185ZM18.7594 18.999C18.6856 18.9996 18.6114 19.0089 18.5382 19.0273L18.7594 18.999ZM18.7594 18.999C18.7608 18.9787 18.7625 18.9583 18.7647 18.938L18.7594 18.999ZM24.1771 19.7497L24.137 19.6774L24.1771 19.7497ZM23.0392 21.4058C23.0391 21.4058 23.0391 21.4057 23.039 21.4057L23.0391 21.4058L23.0392 21.4058ZM21.5242 23.9315C21.5241 23.9314 21.524 23.9314 21.5238 23.9313L21.5242 23.9315ZM21.5237 23.9312L21.5238 23.9313L21.5237 23.9312Z" fill="#4CAF4F" stroke="#4CAF4F" stroke-width="0.928093"/>
</svg>
