<svg width="46" height="39" viewBox="0 0 46 39" fill="none" xmlns="http://www.w3.org/2000/svg">
<path d="M45.2679 26.4643C45.2679 33.3876 39.6554 39 32.7322 39L13.9286 39C12.0054 39 10.4464 37.441 10.4464 35.5179L10.4464 11.8393C10.4464 7.99299 13.5645 4.87497 17.4107 4.87497L41.7857 4.87497C43.7089 4.87497 45.2679 6.43398 45.2679 8.35712L45.2679 26.4643Z" fill="#E8F5E9"/>
<path d="M19.7171 16.4668C19.5494 16.4668 19.3937 16.4207 19.2554 16.3465V16.3485C19.2554 16.6123 19.1528 16.8601 18.9668 17.0457C18.7807 17.2317 18.5331 17.3343 18.2696 17.3343C18.0994 17.3343 17.9417 17.287 17.8019 17.2109C17.7878 17.4523 17.6914 17.6779 17.5192 17.8502C17.3332 18.0362 17.0856 18.1388 16.8219 18.1388C16.298 18.1388 15.8725 17.7269 15.8419 17.2107C15.6798 17.2983 15.4965 17.3443 15.3074 17.3321C14.7921 17.2983 14.3884 16.8531 14.3884 16.3181V11.8842L13.8836 12.7589C13.6913 13.0935 13.3313 13.3012 12.9437 13.3012C12.7549 13.3012 12.5683 13.2516 12.4031 13.1569C12.1973 13.0377 12.0502 12.8462 11.989 12.6171C11.9274 12.3879 11.9593 12.1482 12.0782 11.9427C12.0784 11.9427 13.7301 9.08237 13.8309 8.90667C13.8429 8.88025 13.877 8.80363 13.9061 8.73833C13.9338 8.67598 13.9576 8.61199 13.9804 8.54767C14.4785 7.14138 15.7119 6.26783 17.1994 6.26783C19.1311 6.26783 20.7026 7.97192 20.7026 10.0666L20.7028 15.4809C20.7028 15.7444 20.6004 15.992 20.4145 16.1782C20.2284 16.3643 19.9809 16.4668 19.717 16.4668L19.7171 16.4668ZM17.1994 6.79164C15.9213 6.79164 14.9025 7.5136 14.4741 8.72285C14.4467 8.79964 14.4182 8.87642 14.3849 8.95124C14.2882 9.16799 14.2882 9.16799 14.261 9.19916L14.2574 9.19605C14.1225 9.45053 13.7218 10.1444 12.5318 12.2049C12.4829 12.2894 12.4699 12.3875 12.4949 12.4814C12.5201 12.5752 12.5807 12.6543 12.6645 12.7027C12.9247 12.8522 13.2811 12.7557 13.4294 12.4973L14.4236 10.7761C14.483 10.6735 14.6031 10.6232 14.7183 10.6544C14.8328 10.685 14.9124 10.7889 14.9124 10.9074V16.3183C14.9124 16.5736 15.105 16.7939 15.3418 16.8095C15.4783 16.8167 15.6056 16.771 15.7013 16.6755C15.7882 16.5885 15.8361 16.4727 15.8361 16.3488V12.81C15.8361 12.6653 15.9535 12.5479 16.0982 12.5479C16.2429 12.5479 16.3602 12.6651 16.3602 12.81L16.36 17.1532C16.36 17.4078 16.5673 17.615 16.8219 17.615C16.9456 17.615 17.0618 17.5671 17.1489 17.4802C17.2359 17.393 17.2838 17.2769 17.2838 17.1532V12.81C17.2838 12.6653 17.4009 12.5479 17.5458 12.5479C17.6905 12.5479 17.8079 12.6651 17.8079 12.81L17.8077 16.3081V16.3488C17.8077 16.6033 18.0149 16.8105 18.2697 16.8105C18.3933 16.8105 18.5091 16.7624 18.5967 16.6751C18.6837 16.5883 18.7316 16.4725 18.7316 16.3486V12.8098C18.7316 12.6651 18.8488 12.5478 18.9936 12.5478C19.1384 12.5478 19.2557 12.6649 19.2557 12.8098L19.2553 15.481C19.2553 15.7358 19.4626 15.943 19.7171 15.943C19.8409 15.943 19.9568 15.8949 20.0437 15.8081C20.131 15.7209 20.1788 15.6047 20.1788 15.481L20.1789 10.0667C20.1789 8.26103 18.8424 6.7917 17.1994 6.7917L17.1994 6.79164Z" fill="#103E13"/>
<path d="M9.42207 20.2299L13.2244 17.9489C13.6828 17.6736 14.2727 17.7906 14.5667 18.2153C14.674 18.3701 14.7288 18.5504 14.7373 18.734C14.8791 18.66 15.0333 18.6198 15.1903 18.6198C15.2707 18.6198 15.3515 18.6298 15.4312 18.6497C15.6867 18.7135 15.9019 18.8731 16.0373 19.0989C16.1728 19.325 16.2124 19.59 16.1486 19.8451C16.0897 20.0813 15.9461 20.28 15.7464 20.4163C15.886 20.4987 16.0065 20.6111 16.0921 20.7541C16.2277 20.9802 16.2672 21.2451 16.2035 21.5006C16.1397 21.7557 15.9801 21.971 15.754 22.1067L15.7526 22.1075C15.8898 22.1897 16.0081 22.3009 16.0928 22.4419C16.2285 22.668 16.268 22.9329 16.2042 23.1884C16.1402 23.4437 15.9806 23.659 15.7548 23.7945L11.1121 26.5798C10.2456 27.0994 9.24391 27.2787 8.29194 27.0843C7.33144 26.8881 6.53597 26.336 6.0523 25.5297C5.28687 24.254 5.40158 22.7467 6.35109 21.5964C6.39457 21.5439 6.43739 21.4904 6.47628 21.4349C6.51746 21.3764 6.56554 21.3074 6.58194 21.2838C6.68022 21.1082 8.28394 18.2188 8.28377 18.2192C8.44571 17.927 8.74925 17.7615 9.06231 17.7617C9.20834 17.7617 9.3565 17.7976 9.49318 17.8735C9.65824 17.9657 9.79689 18.1 9.89386 18.262C10.0932 18.5942 10.1003 19.01 9.91256 19.3465L9.42207 20.2299ZM9.44487 18.5314C9.39401 18.4465 9.32411 18.3789 9.23863 18.331C9.06192 18.2332 8.83943 18.2969 8.74214 18.4729C7.5946 20.5403 7.20342 21.2449 7.05246 21.4956L7.0559 21.4964C7.04327 21.5384 7.04327 21.5384 6.90512 21.7358C6.85819 21.8026 6.80716 21.8667 6.75515 21.9299C5.93868 22.9191 5.84388 24.164 6.50132 25.2602C6.90856 25.9391 7.58162 26.4046 8.39657 26.571C9.22039 26.7385 10.0887 26.5826 10.8423 26.1304L15.4854 23.3451C15.5914 23.2816 15.6662 23.1807 15.6961 23.0611C15.726 22.9416 15.7074 22.8174 15.6438 22.7114C15.5128 22.4932 15.2285 22.4215 15.0103 22.5529L12.7197 23.9271C12.5957 24.0016 12.4346 23.9615 12.3603 23.8373C12.2858 23.7133 12.326 23.5523 12.45 23.4778L14.7407 22.1037L15.4846 21.6574C15.5906 21.5937 15.6656 21.4928 15.6954 21.3735C15.7253 21.2539 15.7068 21.1295 15.6431 21.0237C15.512 20.8053 15.2277 20.7343 15.0096 20.8652L11.975 22.6857C11.8506 22.7603 11.69 22.72 11.6155 22.5959C11.541 22.4719 11.5814 22.3109 11.7053 22.2364L15.4296 20.0022C15.5356 19.9385 15.6105 19.8378 15.6403 19.7182C15.6702 19.5987 15.6516 19.4745 15.5881 19.3685C15.5246 19.2627 15.4237 19.1879 15.3041 19.158C15.1839 19.1282 15.0601 19.1467 14.9545 19.21L14.265 19.6237C14.2649 19.6237 14.2649 19.6238 14.2647 19.6238H14.2645L11.2301 21.4443C11.1057 21.5191 10.9449 21.4787 10.8706 21.3545C10.7961 21.2305 10.8365 21.0695 10.9604 20.995L13.995 19.1746C14.101 19.1109 14.1759 19.01 14.2058 18.8907C14.2386 18.7598 14.2137 18.6259 14.1359 18.5137C14.001 18.3186 13.7126 18.2668 13.4939 18.3982L8.85414 21.1816C8.75257 21.2423 8.62246 21.2276 8.5373 21.1453C8.45199 21.063 8.43279 20.9335 8.49021 20.83L9.455 19.0917C9.5518 18.918 9.54803 18.7034 9.44482 18.5314L9.44487 18.5314Z" fill="#103E13"/>
<path d="M27.5913 25.5296C27.1077 26.336 26.3125 26.888 25.3518 27.0842C24.3996 27.2783 23.3983 27.0993 22.5316 26.5796L17.8885 23.7943C17.6626 23.6588 17.5028 23.4435 17.4388 23.1878C17.3753 22.9327 17.415 22.6677 17.5504 22.4419C17.6349 22.3008 17.7533 22.1896 17.8907 22.1074L17.8893 22.1066C17.6634 21.971 17.5036 21.7558 17.4399 21.5005C17.376 21.2451 17.4157 20.98 17.5512 20.7539C17.6385 20.6087 17.7581 20.4952 17.8946 20.4146C17.6964 20.2783 17.5536 20.0802 17.4949 19.8452C17.4309 19.5898 17.4706 19.3248 17.6062 19.099C17.7415 18.8731 17.9569 18.7134 18.2123 18.6496C18.292 18.6296 18.3729 18.6197 18.453 18.6197C18.6102 18.6199 18.7644 18.6598 18.9061 18.7339C18.9148 18.5503 18.9695 18.37 19.0768 18.2153C19.371 17.7908 19.9603 17.6734 20.4194 17.9488L24.2216 20.2295L23.7315 19.3467C23.5435 19.0097 23.5504 18.594 23.7497 18.2615C23.8469 18.0998 23.9857 17.9654 24.1516 17.8724C24.2879 17.7969 24.4356 17.7611 24.5813 17.7611C24.8941 17.7613 25.198 17.9263 25.3598 18.2186C25.9236 19.2344 26.9874 21.1501 27.0622 21.2839C27.0782 21.307 27.1262 21.3759 27.1674 21.4345C27.2066 21.4901 27.249 21.5433 27.2928 21.5961C28.2421 22.7469 28.3566 24.254 27.5912 25.5296L27.5913 25.5296ZM26.8885 21.93C26.8364 21.8669 26.7852 21.8024 26.7386 21.7359C26.5968 21.5348 26.5932 21.5295 26.5825 21.4769C26.4168 21.2027 26.0125 20.4749 24.9013 18.4727C24.8038 18.297 24.5823 18.2329 24.4059 18.3303C24.3191 18.3789 24.2494 18.4467 24.1985 18.5315C24.0955 18.7033 24.0915 18.9179 24.1888 19.0922L25.1533 20.8299C25.2109 20.9336 25.1917 21.0629 25.1065 21.1452C25.0215 21.2278 24.8916 21.2422 24.7895 21.1815L20.1498 18.3981C19.9311 18.267 19.6428 18.3183 19.5076 18.5136C19.4298 18.6258 19.405 18.7597 19.4375 18.8905C19.4674 19.0099 19.5424 19.1107 19.6485 19.1743C19.6489 19.1745 19.649 19.1748 19.6493 19.175L22.683 20.9949C22.807 21.0694 22.8472 21.2302 22.7727 21.3544C22.6982 21.4783 22.5376 21.5188 22.4132 21.4442L18.6888 19.21C18.5832 19.1466 18.4588 19.1279 18.3394 19.1579C18.2196 19.1878 18.1188 19.2626 18.0553 19.3688C17.9917 19.4746 17.9733 19.5988 18.0028 19.7183C18.0327 19.8377 18.1077 19.9386 18.2137 20.0023L18.9384 20.4369L21.9379 22.2365C22.0619 22.311 22.1021 22.4718 22.0277 22.596C21.9532 22.7199 21.7925 22.7603 21.6682 22.6858L18.6339 20.8653C18.4157 20.7341 18.1315 20.8053 18.0002 21.0238C17.9366 21.1298 17.9182 21.254 17.9477 21.3735C17.9776 21.4929 18.0526 21.5937 18.1587 21.6575L18.9026 22.1038L21.193 23.4779C21.317 23.5524 21.3572 23.7132 21.2827 23.8374C21.2082 23.9613 21.0476 24.002 20.9232 23.9272L18.6329 22.553C18.5272 22.4897 18.4034 22.471 18.2833 22.501C18.1638 22.5309 18.0627 22.6057 17.9992 22.7115C17.9357 22.8175 17.9172 22.9419 17.9467 23.0612C17.9766 23.1806 18.0516 23.2814 18.1577 23.3452L22.8008 26.1306C23.5543 26.5826 24.4232 26.7391 25.2466 26.5711C26.0614 26.4047 26.7344 25.9392 27.1417 25.2603C27.7998 24.1639 27.7051 22.9189 26.8888 21.93L26.8885 21.93Z" fill="#103E13"/>
</svg>
