<svg width="75" height="13" viewBox="0 0 75 13" fill="none" xmlns="http://www.w3.org/2000/svg">
<path d="M73.6977 12.7982C73.8445 12.7834 73.9885 12.7492 74.1263 12.6966C74.3273 12.618 74.5021 12.4843 74.6306 12.3108C74.7591 12.1374 74.836 11.9312 74.8526 11.716C74.8526 10.5611 74.8526 8.87599 74.8526 6.71149C74.8526 5.62924 74.8526 4.41625 74.8526 3.07979C74.8526 2.75293 74.8526 2.41155 74.8526 2.07017C74.9 1.73892 74.8279 1.40163 74.6492 1.11867C74.5493 0.982992 74.4192 0.872363 74.2692 0.795483C74.1192 0.718602 73.9534 0.677564 73.7849 0.675597H72.6518H62.1562L1.40496 0.450433C1.24947 0.44779 1.09563 0.482725 0.956531 0.552275C0.81743 0.621826 0.69718 0.723939 0.605995 0.849923C0.430594 1.13403 0.363536 1.47187 0.417139 1.80143C0.417139 2.52777 0.417139 3.25411 0.417139 3.98045C0.417139 5.43314 0.417139 6.88582 0.417139 8.3385C0.417139 9.06484 0.417139 9.79119 0.417139 10.5175C0.387007 10.8558 0.387007 11.1961 0.417139 11.5344C0.455297 11.6794 0.52622 11.8138 0.624437 11.9271C0.722655 12.0404 0.845549 12.1297 0.983685 12.1881C1.1268 12.2451 1.28004 12.2723 1.43402 12.268H5.1311L21.2632 12.3552L48.5736 12.5222L66.9864 12.6675L71.9908 12.7256H73.291C73.5888 12.7256 73.7341 12.7256 73.7341 12.7256H73.291H71.9908H66.9864H48.5736L21.2632 12.6384L5.1311 12.5731H1.43402C1.23056 12.5813 1.02763 12.5467 0.838419 12.4714C0.647165 12.3898 0.477079 12.2655 0.341131 12.1082C0.205183 11.9508 0.106963 11.7645 0.0539683 11.5635C0.0119222 11.3728 -0.00275031 11.1772 0.0103896 10.9824V10.4449C0.0103896 9.71855 0.0103896 8.99221 0.0103896 8.26586C0.0103896 6.81318 0.0103896 5.3605 0.0103896 3.90781C0.0103896 3.18147 0.0103896 2.45513 0.0103896 1.72879C-0.00346319 1.53535 -0.00346319 1.34116 0.0103896 1.14771C0.0376068 0.934053 0.120241 0.73123 0.250084 0.559379C0.375384 0.384052 0.541222 0.241625 0.733462 0.14424C0.925701 0.0468556 1.13864 -0.00258934 1.35413 0.000104455L62.1053 0.334215L72.601 0.406854H73.7341C73.9337 0.407008 74.1303 0.455276 74.3074 0.547576C74.4844 0.639876 74.6365 0.773484 74.7509 0.93708C74.9557 1.25287 75.0384 1.63247 74.9834 2.0048C74.9834 2.34618 74.9834 2.68756 74.9834 3.01442C74.9834 4.33636 74.9834 5.54935 74.9834 6.64613C74.9834 8.82515 74.9325 10.4957 74.918 11.6579C74.9002 11.8813 74.819 12.0951 74.6839 12.2739C74.5488 12.4528 74.3654 12.5893 74.1553 12.6675C74.0179 12.7527 73.8594 12.7979 73.6977 12.7982Z" fill="#E0E0E0"/>
</svg>
