<svg width="34" height="34" viewBox="0 0 34 34" fill="none" xmlns="http://www.w3.org/2000/svg">
<g clip-path="url(#clip0_4_714)">
<path d="M32.7887 27.2277L32.7887 27.2277C32.9223 27.1351 33.0361 27.0168 33.1236 26.8799L33.4221 27.0705L33.1236 26.8799C33.2111 26.7429 33.2704 26.5899 33.2982 26.4297C33.326 26.2696 33.3217 26.1055 33.2856 25.9471L33.6309 25.8683L33.2856 25.9471C33.2494 25.7886 33.1821 25.639 33.0876 25.5067L33.086 25.5046C31.7559 23.6139 29.9436 22.114 27.8375 21.1609L27.3239 20.9285L27.7562 20.5667C29.0382 19.4936 29.9583 18.0515 30.3913 16.4368C30.8243 14.822 30.7492 13.113 30.176 11.5425C29.6029 9.97199 28.5597 8.61626 27.1884 7.65992C25.8172 6.70357 24.1845 6.19307 22.5127 6.19792L22.5111 6.19793C21.7671 6.19669 21.0265 6.29942 20.311 6.50314L20.3046 6.50495L20.3046 6.50489C20.1457 6.54695 19.9967 6.62021 19.8663 6.7204C19.736 6.82059 19.6268 6.94571 19.5453 7.08848C19.4638 7.23125 19.4115 7.38881 19.3914 7.55199C19.3713 7.71518 19.3839 7.88072 19.4285 8.03898C19.473 8.19725 19.5486 8.34507 19.6508 8.47385L19.3734 8.69403L19.6508 8.47385C19.753 8.60263 19.8798 8.70978 20.0238 8.78908L19.853 9.09933L20.0238 8.78908C20.1679 8.86838 20.3262 8.91824 20.4897 8.93575C20.6532 8.95326 20.8185 8.93808 20.976 8.89108L20.9801 8.88987L20.9801 8.88989C21.4784 8.74775 21.9942 8.67611 22.5123 8.67709M32.7887 27.2277L22.5117 9.03125M32.7887 27.2277L32.7846 27.2306C32.5779 27.3784 32.3299 27.4575 32.0758 27.4568C31.877 27.4555 31.6814 27.4071 31.505 27.3153C31.3288 27.2236 31.1769 27.0912 31.0619 26.9293M32.7887 27.2277L30.7726 27.1336M22.5123 8.67709L22.5117 9.03125M22.5123 8.67709C22.5121 8.67709 22.5119 8.67709 22.5117 8.67709V9.03125M22.5123 8.67709C24.015 8.67727 25.456 9.27427 26.5186 10.3368C27.5813 11.3995 28.1783 12.8409 28.1783 14.3437C28.1783 15.8466 27.5813 17.288 26.5186 18.3507C25.4559 19.4134 24.0145 20.0104 22.5117 20.0104C22.1829 20.0104 21.8676 20.141 21.6351 20.3735C21.4027 20.6059 21.2721 20.9212 21.2721 21.25C21.2721 21.5787 21.4027 21.894 21.6351 22.1265C21.8676 22.359 22.1829 22.4896 22.5117 22.4896H22.512C24.1885 22.4914 25.84 22.8956 27.3278 23.6682C28.8155 24.4408 30.0961 25.5591 31.0619 26.9293M22.5117 9.03125C23.9206 9.03125 25.2719 9.59096 26.2682 10.5872C27.2644 11.5835 27.8241 12.9348 27.8241 14.3437C27.8241 15.7527 27.2644 17.104 26.2682 18.1002C25.2719 19.0965 23.9206 19.6562 22.5117 19.6562C22.089 19.6562 21.6836 19.8242 21.3847 20.123C21.0858 20.4219 20.9179 20.8273 20.9179 21.25C20.9179 21.6727 21.0858 22.0781 21.3847 22.3769C21.6836 22.6758 22.089 22.8437 22.5117 22.8437C24.1314 22.8455 25.7271 23.2361 27.1646 23.9825C28.6021 24.729 29.8394 25.8096 30.7726 27.1336M31.0619 26.9293C31.0617 26.9291 31.0616 26.9289 31.0615 26.9287L30.7726 27.1336M31.0619 26.9293C31.0619 26.9293 31.062 26.9294 31.0621 26.9295L30.7726 27.1336M16.9313 20.5673L16.5011 20.9292L17.0133 21.1609C19.1194 22.114 20.9317 23.6139 22.2618 25.5046L22.2669 25.5118L22.2723 25.5187C22.3756 25.6511 22.451 25.8031 22.4938 25.9654C22.5366 26.1278 22.546 26.2972 22.5213 26.4633C22.4967 26.6294 22.4386 26.7888 22.3504 26.9318C22.2623 27.0747 22.1461 27.1983 22.0088 27.295C21.8715 27.3917 21.716 27.4594 21.5517 27.4942C21.3874 27.5289 21.2177 27.5299 21.053 27.4971C20.8883 27.4643 20.732 27.3984 20.5936 27.3033C20.4551 27.2083 20.3375 27.0861 20.2477 26.9442L20.2431 26.937L20.2382 26.9301C19.2744 25.5573 17.9942 24.4367 16.5059 23.6632C15.0175 22.8896 13.3648 22.4857 11.6874 22.4857C10.0101 22.4857 8.35738 22.8896 6.86904 23.6632C5.38071 24.4367 4.10051 25.5573 3.13666 26.9301L3.13587 26.9312C3.02257 27.0939 2.8715 27.2267 2.69561 27.3183C2.51972 27.4098 2.32426 27.4573 2.12597 27.4567L2.1238 27.4568C1.86951 27.4576 1.62138 27.3785 1.4145 27.2306L1.4128 27.2294C1.14464 27.0401 0.96251 26.7522 0.906352 26.4288C0.85021 26.1055 0.924548 25.7731 1.11306 25.5046C2.44319 23.6139 4.25551 22.114 6.36159 21.1609L6.87378 20.9292L6.44357 20.5673C5.16501 19.4917 4.24812 18.0489 3.8172 16.4347C3.38629 14.8204 3.46219 13.1126 4.03463 11.5429C4.60707 9.97324 5.64834 8.61755 7.01729 7.65964C8.38624 6.70173 10.0166 6.18795 11.6874 6.18795C13.3583 6.18795 14.9887 6.70173 16.3576 7.65964C17.7266 8.61755 18.7678 9.97324 19.3403 11.5429C19.9127 13.1126 19.9886 14.8204 19.5577 16.4346C19.1268 18.0489 18.2099 19.4917 16.9313 20.5673ZM6.97579 11.1955C6.35313 12.1274 6.02079 13.223 6.02079 14.3437C6.02079 15.8466 6.61781 17.288 7.68051 18.3507C8.74322 19.4134 10.1846 20.0104 11.6874 20.0104C12.8082 20.0104 13.9038 19.6781 14.8357 19.0554C15.7676 18.4327 16.4939 17.5477 16.9228 16.5123C17.3517 15.4768 17.4639 14.3375 17.2452 13.2382C17.0266 12.139 16.4869 11.1293 15.6944 10.3368C14.9019 9.54432 13.8922 9.00462 12.793 8.78597C11.6937 8.56732 10.5544 8.67954 9.51891 9.10844C8.48346 9.53733 7.59845 10.2636 6.97579 11.1955Z" fill="#4CAF4F" stroke="#4CAF4F" stroke-width="0.696069"/>
</g>
<defs>
<clipPath id="clip0_4_714">
<rect width="33.4113" height="33.4113" fill="white" transform="scale(1.01762)"/>
</clipPath>
</defs>
</svg>
