<svg width="75" height="13" viewBox="0 0 75 13" fill="none" xmlns="http://www.w3.org/2000/svg">
<path d="M73.3863 12.7169C73.533 12.6989 73.6785 12.6722 73.822 12.6371C74.0249 12.5725 74.2115 12.4652 74.3694 12.3224C74.5273 12.1795 74.6526 12.0045 74.7371 11.8091C74.8515 11.5159 74.8963 11.2002 74.8679 10.8867C74.8679 10.5381 74.8679 10.1605 74.8679 9.73924C74.8679 8.89677 74.8679 7.9381 74.8679 6.83417V2.22238C74.9025 1.88849 74.8287 1.55231 74.6572 1.2637C74.4781 0.967708 74.1963 0.74798 73.8656 0.646378C73.5039 0.581825 73.1355 0.562308 72.7689 0.588275H62.318L1.78356 0.363134C1.45795 0.363902 1.1437 0.482878 0.899237 0.697953C0.654772 0.913029 0.496724 1.20957 0.454484 1.53242C0.454484 2.22238 0.454484 2.98496 0.454484 3.71123C0.454484 5.16376 0.454484 6.6163 0.454484 8.06883C0.454484 8.7951 0.454484 9.52137 0.454484 10.2476C0.427429 10.5871 0.442062 10.9285 0.498058 11.2644C0.588737 11.5589 0.775373 11.8146 1.02823 11.9907C1.29651 12.1609 1.61164 12.2423 1.92881 12.2231H2.93832H5.03723L21.1095 12.303L48.3228 12.47L66.6683 12.6153L71.6578 12.6734H66.6683H48.3228L21.095 12.6443L5.0227 12.5862H1.86345C1.47062 12.6095 1.0808 12.505 0.752256 12.2884C0.421785 12.0595 0.180601 11.7234 0.0695631 11.337C0.00446892 10.968 -0.0150457 10.5924 0.0114604 10.2186C0.0114604 9.49231 0.0114604 8.76604 0.0114604 8.03978C0.0114604 6.58724 0.0114604 5.13471 0.0114604 3.68217C0.0114604 2.9559 0.0114604 2.22964 0.0114604 1.50337C0.0644543 1.08808 0.266985 0.706349 0.58114 0.429626C0.895295 0.152902 1.29954 0.000165342 1.71819 0L62.2526 0.334077L72.7036 0.413967C73.0928 0.390093 73.4834 0.416949 73.8656 0.493857C74.2429 0.617148 74.5612 0.875896 74.7589 1.22012C74.9468 1.54001 75.0282 1.91133 74.9913 2.28048C74.9913 2.62183 74.9913 2.95591 74.9913 3.28999C74.9913 4.60454 74.9913 5.81014 74.9913 6.92133C74.9913 8.03252 74.9913 8.9694 74.9913 9.8264C74.9913 10.2404 74.9913 10.6253 74.9913 10.9812C75.0177 11.3059 74.9654 11.6323 74.8388 11.9326C74.7445 12.133 74.6082 12.3107 74.439 12.4536C74.2697 12.5964 74.0717 12.7011 73.8583 12.7605C73.6997 12.7736 73.5399 12.7589 73.3863 12.7169Z" fill="#E0E0E0"/>
</svg>
