<svg width="12" height="9" viewBox="0 0 12 9" fill="none" xmlns="http://www.w3.org/2000/svg">
<path fill-rule="evenodd" clip-rule="evenodd" d="M10.6883 0.257498C11.2046 0.399185 11.6112 0.816663 11.7492 1.34682C12 2.30768 12 4.3125 12 4.3125C12 4.3125 12 6.31726 11.7492 7.27818C11.6112 7.80834 11.2046 8.22582 10.6883 8.36758C9.75253 8.62501 6 8.62501 6 8.62501C6 8.62501 2.24748 8.62501 1.31168 8.36758C0.795341 8.22582 0.388705 7.80834 0.250705 7.27818C0 6.31726 0 4.3125 0 4.3125C0 4.3125 0 2.30768 0.250705 1.34682C0.388705 0.816663 0.795341 0.399185 1.31168 0.257498C2.24748 0 6 0 6 0C6 0 9.75253 0 10.6883 0.257498ZM4.87501 2.62496V6.37496L7.87502 4.50003L4.87501 2.62496Z" fill="white"/>
</svg>
